<svg width="3508" height="3042" viewBox="0 0 3508 3042" fill="none" xmlns="http://www.w3.org/2000/svg">
<mask id="mask0_647_312" style="mask-type:alpha" maskUnits="userSpaceOnUse" x="0" y="0" width="3508" height="3042">
<g opacity="0.15">
<path d="M3508 0H0V3042H3508V0Z" fill="url(#paint0_radial_647_312)"/>
</g>
</mask>
<g mask="url(#mask0_647_312)">
<path d="M296.259 244H114V426.258H296.259V244Z" stroke="#136DEC" stroke-width="1.5"/>
<path d="M478.517 244H296.259V426.258H478.517V244Z" stroke="#136DEC" stroke-width="1.5"/>
<path d="M660.776 244H478.517V426.258H660.776V244Z" stroke="#136DEC" stroke-width="1.5"/>
<path d="M843.034 244H660.776V426.258H843.034V244Z" stroke="#136DEC" stroke-width="1.5"/>
<path d="M1025.29 244H843.034V426.258H1025.29V244Z" stroke="#136DEC" stroke-width="1.5"/>
<path d="M1207.55 244H1025.29V426.258H1207.55V244Z" stroke="#136DEC" stroke-width="1.5"/>
<path d="M1389.81 244H1207.55V426.258H1389.81V244Z" stroke="#136DEC" stroke-width="1.5"/>
<path d="M1572.07 244H1389.81V426.258H1572.07V244Z" stroke="#136DEC" stroke-width="1.5"/>
<path d="M1754.33 244H1572.07V426.258H1754.33V244Z" stroke="#136DEC" stroke-width="1.5"/>
<path d="M296.259 426.262H114V608.52H296.259V426.262Z" stroke="#136DEC" stroke-width="1.5"/>
<path d="M478.517 426.262H296.259V608.52H478.517V426.262Z" stroke="#136DEC" stroke-width="1.5"/>
<path d="M660.776 426.262H478.517V608.52H660.776V426.262Z" stroke="#136DEC" stroke-width="1.5"/>
<path d="M843.034 426.262H660.776V608.52H843.034V426.262Z" stroke="#136DEC" stroke-width="1.5"/>
<path d="M1025.29 426.262H843.034V608.52H1025.29V426.262Z" stroke="#136DEC" stroke-width="1.5"/>
<path d="M1207.55 426.262H1025.29V608.52H1207.55V426.262Z" stroke="#136DEC" stroke-width="1.5"/>
<path d="M1389.81 426.262H1207.55V608.52H1389.81V426.262Z" stroke="#136DEC" stroke-width="1.5"/>
<path d="M1572.07 426.262H1389.81V608.52H1572.07V426.262Z" stroke="#136DEC" stroke-width="1.5"/>
<path d="M1754.33 426.262H1572.07V608.52H1754.33V426.262Z" stroke="#136DEC" stroke-width="1.5"/>
<path d="M296.259 608.516H114V790.774H296.259V608.516Z" stroke="#136DEC" stroke-width="1.5"/>
<path d="M478.517 608.516H296.259V790.774H478.517V608.516Z" stroke="#136DEC" stroke-width="1.5"/>
<path d="M660.776 608.516H478.517V790.774H660.776V608.516Z" stroke="#136DEC" stroke-width="1.5"/>
<path d="M843.034 608.516H660.776V790.774H843.034V608.516Z" stroke="#136DEC" stroke-width="1.5"/>
<path d="M1025.29 608.516H843.034V790.774H1025.29V608.516Z" stroke="#136DEC" stroke-width="1.5"/>
<path d="M1207.55 608.516H1025.29V790.774H1207.55V608.516Z" stroke="#136DEC" stroke-width="1.5"/>
<path d="M1389.81 608.516H1207.55V790.774H1389.81V608.516Z" stroke="#136DEC" stroke-width="1.5"/>
<path d="M1572.07 608.516H1389.81V790.774H1572.07V608.516Z" stroke="#136DEC" stroke-width="1.5"/>
<path d="M1754.33 608.516H1572.07V790.774H1754.33V608.516Z" stroke="#136DEC" stroke-width="1.5"/>
<path d="M296.259 790.773H114V973.032H296.259V790.773Z" stroke="#136DEC" stroke-width="1.5"/>
<path d="M478.517 790.773H296.259V973.032H478.517V790.773Z" stroke="#136DEC" stroke-width="1.5"/>
<path d="M660.776 790.773H478.517V973.032H660.776V790.773Z" stroke="#136DEC" stroke-width="1.5"/>
<path d="M843.034 790.773H660.776V973.032H843.034V790.773Z" stroke="#136DEC" stroke-width="1.5"/>
<path d="M1025.29 790.773H843.034V973.032H1025.29V790.773Z" stroke="#136DEC" stroke-width="1.5"/>
<path d="M1207.55 790.773H1025.29V973.032H1207.55V790.773Z" stroke="#136DEC" stroke-width="1.5"/>
<path d="M1389.81 790.773H1207.55V973.032H1389.81V790.773Z" stroke="#136DEC" stroke-width="1.5"/>
<path d="M1572.07 790.773H1389.81V973.032H1572.07V790.773Z" stroke="#136DEC" stroke-width="1.5"/>
<path d="M1754.33 790.773H1572.07V973.032H1754.33V790.773Z" stroke="#136DEC" stroke-width="1.5"/>
<path d="M296.259 973.035H114V1155.29H296.259V973.035Z" stroke="#136DEC" stroke-width="1.5"/>
<path d="M478.517 973.035H296.259V1155.29H478.517V973.035Z" stroke="#136DEC" stroke-width="1.5"/>
<path d="M660.776 973.035H478.517V1155.29H660.776V973.035Z" stroke="#136DEC" stroke-width="1.5"/>
<path d="M843.034 973.035H660.776V1155.29H843.034V973.035Z" stroke="#136DEC" stroke-width="1.5"/>
<path d="M1025.29 973.035H843.034V1155.29H1025.29V973.035Z" stroke="#136DEC" stroke-width="1.5"/>
<path d="M1207.55 973.035H1025.29V1155.29H1207.55V973.035Z" stroke="#136DEC" stroke-width="1.5"/>
<path d="M1389.81 973.035H1207.55V1155.29H1389.81V973.035Z" stroke="#136DEC" stroke-width="1.5"/>
<path d="M1572.07 973.035H1389.81V1155.29H1572.07V973.035Z" stroke="#136DEC" stroke-width="1.5"/>
<path d="M1754.33 973.035H1572.07V1155.29H1754.33V973.035Z" stroke="#136DEC" stroke-width="1.5"/>
<path d="M296.259 1155.29H114V1337.55H296.259V1155.29Z" stroke="#136DEC" stroke-width="1.5"/>
<path d="M478.517 1155.29H296.259V1337.55H478.517V1155.29Z" stroke="#136DEC" stroke-width="1.5"/>
<path d="M660.776 1155.29H478.517V1337.55H660.776V1155.29Z" stroke="#136DEC" stroke-width="1.5"/>
<path d="M843.034 1155.29H660.776V1337.55H843.034V1155.29Z" stroke="#136DEC" stroke-width="1.5"/>
<path d="M1025.29 1155.29H843.034V1337.55H1025.29V1155.29Z" stroke="#136DEC" stroke-width="1.5"/>
<path d="M1207.55 1155.29H1025.29V1337.55H1207.55V1155.29Z" stroke="#136DEC" stroke-width="1.5"/>
<path d="M1389.81 1155.29H1207.55V1337.55H1389.81V1155.29Z" stroke="#136DEC" stroke-width="1.5"/>
<path d="M1572.07 1155.29H1389.81V1337.55H1572.07V1155.29Z" stroke="#136DEC" stroke-width="1.5"/>
<path d="M1754.33 1155.29H1572.07V1337.55H1754.33V1155.29Z" stroke="#136DEC" stroke-width="1.5"/>
<path d="M296.259 1337.55H114V1519.81H296.259V1337.55Z" stroke="#136DEC" stroke-width="1.5"/>
<path d="M478.517 1337.55H296.259V1519.81H478.517V1337.55Z" stroke="#136DEC" stroke-width="1.5"/>
<path d="M660.776 1337.55H478.517V1519.81H660.776V1337.55Z" stroke="#136DEC" stroke-width="1.5"/>
<path d="M843.034 1337.55H660.776V1519.81H843.034V1337.55Z" stroke="#136DEC" stroke-width="1.5"/>
<path d="M1025.29 1337.55H843.034V1519.81H1025.29V1337.55Z" stroke="#136DEC" stroke-width="1.5"/>
<path d="M1207.55 1337.55H1025.29V1519.81H1207.55V1337.55Z" stroke="#136DEC" stroke-width="1.5"/>
<path d="M1389.81 1337.55H1207.55V1519.81H1389.81V1337.55Z" stroke="#136DEC" stroke-width="1.5"/>
<path d="M1572.07 1337.55H1389.81V1519.81H1572.07V1337.55Z" stroke="#136DEC" stroke-width="1.5"/>
<path d="M1754.33 1337.55H1572.07V1519.81H1754.33V1337.55Z" stroke="#136DEC" stroke-width="1.5"/>
<path d="M1936.93 245.152H1754.67V427.411H1936.93V245.152Z" stroke="#136DEC" stroke-width="1.5"/>
<path d="M2119.19 245.152H1936.93V427.411H2119.19V245.152Z" stroke="#136DEC" stroke-width="1.5"/>
<path d="M2301.45 245.152H2119.19V427.411H2301.45V245.152Z" stroke="#136DEC" stroke-width="1.5"/>
<path d="M2483.71 245.152H2301.45V427.411H2483.71V245.152Z" stroke="#136DEC" stroke-width="1.5"/>
<path d="M2665.97 245.152H2483.71V427.411H2665.97V245.152Z" stroke="#136DEC" stroke-width="1.5"/>
<path d="M2848.22 245.152H2665.96V427.411H2848.22V245.152Z" stroke="#136DEC" stroke-width="1.5"/>
<path d="M3030.48 245.152H2848.22V427.411H3030.48V245.152Z" stroke="#136DEC" stroke-width="1.5"/>
<path d="M3212.74 245.152H3030.48V427.411H3212.74V245.152Z" stroke="#136DEC" stroke-width="1.5"/>
<path d="M3395 245.152H3212.74V427.411H3395V245.152Z" stroke="#136DEC" stroke-width="1.5"/>
<path d="M1936.93 427.414H1754.67V609.673H1936.93V427.414Z" stroke="#136DEC" stroke-width="1.5"/>
<path d="M2119.19 427.414H1936.93V609.673H2119.19V427.414Z" stroke="#136DEC" stroke-width="1.5"/>
<path d="M2301.45 427.414H2119.19V609.673H2301.45V427.414Z" stroke="#136DEC" stroke-width="1.5"/>
<path d="M2483.71 427.414H2301.45V609.673H2483.71V427.414Z" stroke="#136DEC" stroke-width="1.5"/>
<path d="M2665.97 427.414H2483.71V609.673H2665.97V427.414Z" stroke="#136DEC" stroke-width="1.5"/>
<path d="M2848.22 427.414H2665.96V609.673H2848.22V427.414Z" stroke="#136DEC" stroke-width="1.5"/>
<path d="M3030.48 427.414H2848.22V609.673H3030.48V427.414Z" stroke="#136DEC" stroke-width="1.5"/>
<path d="M3212.74 427.414H3030.48V609.673H3212.74V427.414Z" stroke="#136DEC" stroke-width="1.5"/>
<path d="M3395 427.414H3212.74V609.673H3395V427.414Z" stroke="#136DEC" stroke-width="1.5"/>
<path d="M1936.93 609.668H1754.67V791.926H1936.93V609.668Z" stroke="#136DEC" stroke-width="1.5"/>
<path d="M2119.19 609.668H1936.93V791.926H2119.19V609.668Z" stroke="#136DEC" stroke-width="1.5"/>
<path d="M2301.45 609.668H2119.19V791.926H2301.45V609.668Z" stroke="#136DEC" stroke-width="1.5"/>
<path d="M2483.71 609.668H2301.45V791.926H2483.71V609.668Z" stroke="#136DEC" stroke-width="1.5"/>
<path d="M2665.97 609.668H2483.71V791.926H2665.97V609.668Z" stroke="#136DEC" stroke-width="1.5"/>
<path d="M2848.22 609.668H2665.96V791.926H2848.22V609.668Z" stroke="#136DEC" stroke-width="1.5"/>
<path d="M3030.48 609.668H2848.22V791.926H3030.48V609.668Z" stroke="#136DEC" stroke-width="1.5"/>
<path d="M3212.74 609.668H3030.48V791.926H3212.74V609.668Z" stroke="#136DEC" stroke-width="1.5"/>
<path d="M3395 609.668H3212.74V791.926H3395V609.668Z" stroke="#136DEC" stroke-width="1.5"/>
<path d="M1936.93 791.926H1754.67V974.184H1936.93V791.926Z" stroke="#136DEC" stroke-width="1.5"/>
<path d="M2119.19 791.926H1936.93V974.184H2119.19V791.926Z" stroke="#136DEC" stroke-width="1.5"/>
<path d="M2301.45 791.926H2119.19V974.184H2301.45V791.926Z" stroke="#136DEC" stroke-width="1.5"/>
<path d="M2483.71 791.926H2301.45V974.184H2483.71V791.926Z" stroke="#136DEC" stroke-width="1.5"/>
<path d="M2665.97 791.926H2483.71V974.184H2665.97V791.926Z" stroke="#136DEC" stroke-width="1.5"/>
<path d="M2848.22 791.926H2665.96V974.184H2848.22V791.926Z" stroke="#136DEC" stroke-width="1.5"/>
<path d="M3030.48 791.926H2848.22V974.184H3030.48V791.926Z" stroke="#136DEC" stroke-width="1.5"/>
<path d="M3212.74 791.926H3030.48V974.184H3212.74V791.926Z" stroke="#136DEC" stroke-width="1.5"/>
<path d="M3395 791.926H3212.74V974.184H3395V791.926Z" stroke="#136DEC" stroke-width="1.5"/>
<path d="M1936.93 974.188H1754.67V1156.45H1936.93V974.188Z" stroke="#136DEC" stroke-width="1.5"/>
<path d="M2119.19 974.188H1936.93V1156.45H2119.19V974.188Z" stroke="#136DEC" stroke-width="1.5"/>
<path d="M2301.45 974.188H2119.19V1156.45H2301.45V974.188Z" stroke="#136DEC" stroke-width="1.5"/>
<path d="M2483.71 974.188H2301.45V1156.45H2483.71V974.188Z" stroke="#136DEC" stroke-width="1.5"/>
<path d="M2665.97 974.188H2483.71V1156.45H2665.97V974.188Z" stroke="#136DEC" stroke-width="1.5"/>
<path d="M2848.22 974.188H2665.96V1156.45H2848.22V974.188Z" stroke="#136DEC" stroke-width="1.5"/>
<path d="M3030.48 974.188H2848.22V1156.45H3030.48V974.188Z" stroke="#136DEC" stroke-width="1.5"/>
<path d="M3212.74 974.188H3030.48V1156.45H3212.74V974.188Z" stroke="#136DEC" stroke-width="1.5"/>
<path d="M3395 974.188H3212.74V1156.45H3395V974.188Z" stroke="#136DEC" stroke-width="1.5"/>
<path d="M1936.93 1156.45H1754.67V1338.7H1936.93V1156.45Z" stroke="#136DEC" stroke-width="1.5"/>
<path d="M2119.19 1156.45H1936.93V1338.7H2119.19V1156.45Z" stroke="#136DEC" stroke-width="1.5"/>
<path d="M2301.45 1156.45H2119.19V1338.7H2301.45V1156.45Z" stroke="#136DEC" stroke-width="1.5"/>
<path d="M2483.71 1156.45H2301.45V1338.7H2483.71V1156.45Z" stroke="#136DEC" stroke-width="1.5"/>
<path d="M2665.97 1156.45H2483.71V1338.7H2665.97V1156.45Z" stroke="#136DEC" stroke-width="1.5"/>
<path d="M2848.22 1156.45H2665.96V1338.7H2848.22V1156.45Z" stroke="#136DEC" stroke-width="1.5"/>
<path d="M3030.48 1156.45H2848.22V1338.7H3030.48V1156.45Z" stroke="#136DEC" stroke-width="1.5"/>
<path d="M3212.74 1156.45H3030.48V1338.7H3212.74V1156.45Z" stroke="#136DEC" stroke-width="1.5"/>
<path d="M3395 1156.45H3212.74V1338.7H3395V1156.45Z" stroke="#136DEC" stroke-width="1.5"/>
<path d="M1936.93 1338.7H1754.67V1520.96H1936.93V1338.7Z" stroke="#136DEC" stroke-width="1.5"/>
<path d="M2119.19 1338.7H1936.93V1520.96H2119.19V1338.7Z" stroke="#136DEC" stroke-width="1.5"/>
<path d="M2301.45 1338.7H2119.19V1520.96H2301.45V1338.7Z" stroke="#136DEC" stroke-width="1.5"/>
<path d="M2483.71 1338.7H2301.45V1520.96H2483.71V1338.7Z" stroke="#136DEC" stroke-width="1.5"/>
<path d="M2665.97 1338.7H2483.71V1520.96H2665.97V1338.7Z" stroke="#136DEC" stroke-width="1.5"/>
<path d="M2848.22 1338.7H2665.96V1520.96H2848.22V1338.7Z" stroke="#136DEC" stroke-width="1.5"/>
<path d="M3030.48 1338.7H2848.22V1520.96H3030.48V1338.7Z" stroke="#136DEC" stroke-width="1.5"/>
<path d="M3212.74 1338.7H3030.48V1520.96H3212.74V1338.7Z" stroke="#136DEC" stroke-width="1.5"/>
<path d="M3395 1338.7H3212.74V1520.96H3395V1338.7Z" stroke="#136DEC" stroke-width="1.5"/>
<path d="M296.259 1520.55H114V1702.81H296.259V1520.55Z" stroke="#136DEC" stroke-width="1.5"/>
<path d="M478.517 1520.55H296.259V1702.81H478.517V1520.55Z" stroke="#136DEC" stroke-width="1.5"/>
<path d="M660.776 1520.55H478.517V1702.81H660.776V1520.55Z" stroke="#136DEC" stroke-width="1.5"/>
<path d="M843.034 1520.55H660.776V1702.81H843.034V1520.55Z" stroke="#136DEC" stroke-width="1.5"/>
<path d="M1025.29 1520.55H843.034V1702.81H1025.29V1520.55Z" stroke="#136DEC" stroke-width="1.5"/>
<path d="M1207.55 1520.55H1025.29V1702.81H1207.55V1520.55Z" stroke="#136DEC" stroke-width="1.5"/>
<path d="M1389.81 1520.55H1207.55V1702.81H1389.81V1520.55Z" stroke="#136DEC" stroke-width="1.5"/>
<path d="M1572.07 1520.55H1389.81V1702.81H1572.07V1520.55Z" stroke="#136DEC" stroke-width="1.5"/>
<path d="M1754.33 1520.55H1572.07V1702.81H1754.33V1520.55Z" stroke="#136DEC" stroke-width="1.5"/>
<path d="M296.259 1702.8H114V1885.06H296.259V1702.8Z" stroke="#136DEC" stroke-width="1.5"/>
<path d="M478.517 1702.8H296.259V1885.06H478.517V1702.8Z" stroke="#136DEC" stroke-width="1.5"/>
<path d="M660.776 1702.8H478.517V1885.06H660.776V1702.8Z" stroke="#136DEC" stroke-width="1.5"/>
<path d="M843.034 1702.8H660.776V1885.06H843.034V1702.8Z" stroke="#136DEC" stroke-width="1.5"/>
<path d="M1025.29 1702.8H843.034V1885.06H1025.29V1702.8Z" stroke="#136DEC" stroke-width="1.5"/>
<path d="M1207.55 1702.8H1025.29V1885.06H1207.55V1702.8Z" stroke="#136DEC" stroke-width="1.5"/>
<path d="M1389.81 1702.8H1207.55V1885.06H1389.81V1702.8Z" stroke="#136DEC" stroke-width="1.5"/>
<path d="M1572.07 1702.8H1389.81V1885.06H1572.07V1702.8Z" stroke="#136DEC" stroke-width="1.5"/>
<path d="M1754.33 1702.8H1572.07V1885.06H1754.33V1702.8Z" stroke="#136DEC" stroke-width="1.5"/>
<path d="M296.259 1885.06H114V2067.32H296.259V1885.06Z" stroke="#136DEC" stroke-width="1.5"/>
<path d="M478.517 1885.06H296.259V2067.32H478.517V1885.06Z" stroke="#136DEC" stroke-width="1.5"/>
<path d="M660.776 1885.06H478.517V2067.32H660.776V1885.06Z" stroke="#136DEC" stroke-width="1.5"/>
<path d="M843.034 1885.06H660.776V2067.32H843.034V1885.06Z" stroke="#136DEC" stroke-width="1.5"/>
<path d="M1025.29 1885.06H843.034V2067.32H1025.29V1885.06Z" stroke="#136DEC" stroke-width="1.5"/>
<path d="M1207.55 1885.06H1025.29V2067.32H1207.55V1885.06Z" stroke="#136DEC" stroke-width="1.5"/>
<path d="M1389.81 1885.06H1207.55V2067.32H1389.81V1885.06Z" stroke="#136DEC" stroke-width="1.5"/>
<path d="M1572.07 1885.06H1389.81V2067.32H1572.07V1885.06Z" stroke="#136DEC" stroke-width="1.5"/>
<path d="M1754.33 1885.06H1572.07V2067.32H1754.33V1885.06Z" stroke="#136DEC" stroke-width="1.5"/>
<path d="M296.259 2067.32H114V2249.58H296.259V2067.32Z" stroke="#136DEC" stroke-width="1.5"/>
<path d="M478.517 2067.32H296.259V2249.58H478.517V2067.32Z" stroke="#136DEC" stroke-width="1.5"/>
<path d="M660.776 2067.32H478.517V2249.58H660.776V2067.32Z" stroke="#136DEC" stroke-width="1.5"/>
<path d="M843.034 2067.32H660.776V2249.58H843.034V2067.32Z" stroke="#136DEC" stroke-width="1.5"/>
<path d="M1025.29 2067.32H843.034V2249.58H1025.29V2067.32Z" stroke="#136DEC" stroke-width="1.5"/>
<path d="M1207.55 2067.32H1025.29V2249.58H1207.55V2067.32Z" stroke="#136DEC" stroke-width="1.5"/>
<path d="M1389.81 2067.32H1207.55V2249.58H1389.81V2067.32Z" stroke="#136DEC" stroke-width="1.5"/>
<path d="M1572.07 2067.32H1389.81V2249.58H1572.07V2067.32Z" stroke="#136DEC" stroke-width="1.5"/>
<path d="M1754.33 2067.32H1572.07V2249.58H1754.33V2067.32Z" stroke="#136DEC" stroke-width="1.5"/>
<path d="M296.259 2249.59H114V2431.84H296.259V2249.59Z" stroke="#136DEC" stroke-width="1.5"/>
<path d="M478.517 2249.59H296.259V2431.84H478.517V2249.59Z" stroke="#136DEC" stroke-width="1.5"/>
<path d="M660.776 2249.59H478.517V2431.84H660.776V2249.59Z" stroke="#136DEC" stroke-width="1.5"/>
<path d="M843.034 2249.59H660.776V2431.84H843.034V2249.59Z" stroke="#136DEC" stroke-width="1.5"/>
<path d="M1025.29 2249.59H843.034V2431.84H1025.29V2249.59Z" stroke="#136DEC" stroke-width="1.5"/>
<path d="M1207.55 2249.59H1025.29V2431.84H1207.55V2249.59Z" stroke="#136DEC" stroke-width="1.5"/>
<path d="M1389.81 2249.59H1207.55V2431.84H1389.81V2249.59Z" stroke="#136DEC" stroke-width="1.5"/>
<path d="M1572.07 2249.59H1389.81V2431.84H1572.07V2249.59Z" stroke="#136DEC" stroke-width="1.5"/>
<path d="M1754.33 2249.59H1572.07V2431.84H1754.33V2249.59Z" stroke="#136DEC" stroke-width="1.5"/>
<path d="M296.259 2431.84H114V2614.1H296.259V2431.84Z" stroke="#136DEC" stroke-width="1.5"/>
<path d="M478.517 2431.84H296.259V2614.1H478.517V2431.84Z" stroke="#136DEC" stroke-width="1.5"/>
<path d="M660.776 2431.84H478.517V2614.1H660.776V2431.84Z" stroke="#136DEC" stroke-width="1.5"/>
<path d="M843.034 2431.84H660.776V2614.1H843.034V2431.84Z" stroke="#136DEC" stroke-width="1.5"/>
<path d="M1025.29 2431.84H843.034V2614.1H1025.29V2431.84Z" stroke="#136DEC" stroke-width="1.5"/>
<path d="M1207.55 2431.84H1025.29V2614.1H1207.55V2431.84Z" stroke="#136DEC" stroke-width="1.5"/>
<path d="M1389.81 2431.84H1207.55V2614.1H1389.81V2431.84Z" stroke="#136DEC" stroke-width="1.5"/>
<path d="M1572.07 2431.84H1389.81V2614.1H1572.07V2431.84Z" stroke="#136DEC" stroke-width="1.5"/>
<path d="M1754.33 2431.84H1572.07V2614.1H1754.33V2431.84Z" stroke="#136DEC" stroke-width="1.5"/>
<path d="M296.259 2614.09H114V2796.35H296.259V2614.09Z" stroke="#136DEC" stroke-width="1.5"/>
<path d="M478.517 2614.09H296.259V2796.35H478.517V2614.09Z" stroke="#136DEC" stroke-width="1.5"/>
<path d="M660.776 2614.09H478.517V2796.35H660.776V2614.09Z" stroke="#136DEC" stroke-width="1.5"/>
<path d="M843.034 2614.09H660.776V2796.35H843.034V2614.09Z" stroke="#136DEC" stroke-width="1.5"/>
<path d="M1025.29 2614.09H843.034V2796.35H1025.29V2614.09Z" stroke="#136DEC" stroke-width="1.5"/>
<path d="M1207.55 2614.09H1025.29V2796.35H1207.55V2614.09Z" stroke="#136DEC" stroke-width="1.5"/>
<path d="M1389.81 2614.09H1207.55V2796.35H1389.81V2614.09Z" stroke="#136DEC" stroke-width="1.5"/>
<path d="M1572.07 2614.09H1389.81V2796.35H1572.07V2614.09Z" stroke="#136DEC" stroke-width="1.5"/>
<path d="M1754.33 2614.09H1572.07V2796.35H1754.33V2614.09Z" stroke="#136DEC" stroke-width="1.5"/>
<path d="M1936.93 1521.7H1754.67V1703.96H1936.93V1521.7Z" stroke="#136DEC" stroke-width="1.5"/>
<path d="M2119.19 1521.7H1936.93V1703.96H2119.19V1521.7Z" stroke="#136DEC" stroke-width="1.5"/>
<path d="M2301.45 1521.7H2119.19V1703.96H2301.45V1521.7Z" stroke="#136DEC" stroke-width="1.5"/>
<path d="M2483.71 1521.7H2301.45V1703.96H2483.71V1521.7Z" stroke="#136DEC" stroke-width="1.5"/>
<path d="M2665.97 1521.7H2483.71V1703.96H2665.97V1521.7Z" stroke="#136DEC" stroke-width="1.5"/>
<path d="M2848.22 1521.7H2665.96V1703.96H2848.22V1521.7Z" stroke="#136DEC" stroke-width="1.5"/>
<path d="M3030.48 1521.7H2848.22V1703.96H3030.48V1521.7Z" stroke="#136DEC" stroke-width="1.5"/>
<path d="M3212.74 1521.7H3030.48V1703.96H3212.74V1521.7Z" stroke="#136DEC" stroke-width="1.5"/>
<path d="M3395 1521.7H3212.74V1703.96H3395V1521.7Z" stroke="#136DEC" stroke-width="1.5"/>
<path d="M1936.93 1703.96H1754.67V1886.22H1936.93V1703.96Z" stroke="#136DEC" stroke-width="1.5"/>
<path d="M2119.19 1703.96H1936.93V1886.22H2119.19V1703.96Z" stroke="#136DEC" stroke-width="1.5"/>
<path d="M2301.45 1703.96H2119.19V1886.22H2301.45V1703.96Z" stroke="#136DEC" stroke-width="1.5"/>
<path d="M2483.71 1703.96H2301.45V1886.22H2483.71V1703.96Z" stroke="#136DEC" stroke-width="1.5"/>
<path d="M2665.97 1703.96H2483.71V1886.22H2665.97V1703.96Z" stroke="#136DEC" stroke-width="1.5"/>
<path d="M2848.22 1703.96H2665.96V1886.22H2848.22V1703.96Z" stroke="#136DEC" stroke-width="1.5"/>
<path d="M3030.48 1703.96H2848.22V1886.22H3030.48V1703.96Z" stroke="#136DEC" stroke-width="1.5"/>
<path d="M3212.74 1703.96H3030.48V1886.22H3212.74V1703.96Z" stroke="#136DEC" stroke-width="1.5"/>
<path d="M3395 1703.96H3212.74V1886.22H3395V1703.96Z" stroke="#136DEC" stroke-width="1.5"/>
<path d="M1936.93 1886.21H1754.67V2068.47H1936.93V1886.21Z" stroke="#136DEC" stroke-width="1.5"/>
<path d="M2119.19 1886.21H1936.93V2068.47H2119.19V1886.21Z" stroke="#136DEC" stroke-width="1.5"/>
<path d="M2301.45 1886.21H2119.19V2068.47H2301.45V1886.21Z" stroke="#136DEC" stroke-width="1.5"/>
<path d="M2483.71 1886.21H2301.45V2068.47H2483.71V1886.21Z" stroke="#136DEC" stroke-width="1.5"/>
<path d="M2665.97 1886.21H2483.71V2068.47H2665.97V1886.21Z" stroke="#136DEC" stroke-width="1.5"/>
<path d="M2848.22 1886.21H2665.96V2068.47H2848.22V1886.21Z" stroke="#136DEC" stroke-width="1.5"/>
<path d="M3030.48 1886.21H2848.22V2068.47H3030.48V1886.21Z" stroke="#136DEC" stroke-width="1.5"/>
<path d="M3212.74 1886.21H3030.48V2068.47H3212.74V1886.21Z" stroke="#136DEC" stroke-width="1.5"/>
<path d="M3395 1886.21H3212.74V2068.47H3395V1886.21Z" stroke="#136DEC" stroke-width="1.5"/>
<path d="M1936.93 2068.47H1754.67V2250.73H1936.93V2068.47Z" stroke="#136DEC" stroke-width="1.5"/>
<path d="M2119.19 2068.47H1936.93V2250.73H2119.19V2068.47Z" stroke="#136DEC" stroke-width="1.5"/>
<path d="M2301.45 2068.47H2119.19V2250.73H2301.45V2068.47Z" stroke="#136DEC" stroke-width="1.5"/>
<path d="M2483.71 2068.47H2301.45V2250.73H2483.71V2068.47Z" stroke="#136DEC" stroke-width="1.5"/>
<path d="M2665.97 2068.47H2483.71V2250.73H2665.97V2068.47Z" stroke="#136DEC" stroke-width="1.5"/>
<path d="M2848.22 2068.47H2665.96V2250.73H2848.22V2068.47Z" stroke="#136DEC" stroke-width="1.5"/>
<path d="M3030.48 2068.47H2848.22V2250.73H3030.48V2068.47Z" stroke="#136DEC" stroke-width="1.5"/>
<path d="M3212.74 2068.47H3030.48V2250.73H3212.74V2068.47Z" stroke="#136DEC" stroke-width="1.5"/>
<path d="M3395 2068.47H3212.74V2250.73H3395V2068.47Z" stroke="#136DEC" stroke-width="1.5"/>
<path d="M1936.93 2250.74H1754.67V2433H1936.93V2250.74Z" stroke="#136DEC" stroke-width="1.5"/>
<path d="M2119.19 2250.74H1936.93V2433H2119.19V2250.74Z" stroke="#136DEC" stroke-width="1.5"/>
<path d="M2301.45 2250.74H2119.19V2433H2301.45V2250.74Z" stroke="#136DEC" stroke-width="1.5"/>
<path d="M2483.71 2250.74H2301.45V2433H2483.71V2250.74Z" stroke="#136DEC" stroke-width="1.5"/>
<path d="M2665.97 2250.74H2483.71V2433H2665.97V2250.74Z" stroke="#136DEC" stroke-width="1.5"/>
<path d="M2848.22 2250.74H2665.96V2433H2848.22V2250.74Z" stroke="#136DEC" stroke-width="1.5"/>
<path d="M3030.48 2250.74H2848.22V2433H3030.48V2250.74Z" stroke="#136DEC" stroke-width="1.5"/>
<path d="M3212.74 2250.74H3030.48V2433H3212.74V2250.74Z" stroke="#136DEC" stroke-width="1.5"/>
<path d="M3395 2250.74H3212.74V2433H3395V2250.74Z" stroke="#136DEC" stroke-width="1.5"/>
<path d="M1936.93 2432.99H1754.67V2615.25H1936.93V2432.99Z" stroke="#136DEC" stroke-width="1.5"/>
<path d="M2119.19 2432.99H1936.93V2615.25H2119.19V2432.99Z" stroke="#136DEC" stroke-width="1.5"/>
<path d="M2301.45 2432.99H2119.19V2615.25H2301.45V2432.99Z" stroke="#136DEC" stroke-width="1.5"/>
<path d="M2483.71 2432.99H2301.45V2615.25H2483.71V2432.99Z" stroke="#136DEC" stroke-width="1.5"/>
<path d="M2665.97 2432.99H2483.71V2615.25H2665.97V2432.99Z" stroke="#136DEC" stroke-width="1.5"/>
<path d="M2848.22 2432.99H2665.96V2615.25H2848.22V2432.99Z" stroke="#136DEC" stroke-width="1.5"/>
<path d="M3030.48 2432.99H2848.22V2615.25H3030.48V2432.99Z" stroke="#136DEC" stroke-width="1.5"/>
<path d="M3212.74 2432.99H3030.48V2615.25H3212.74V2432.99Z" stroke="#136DEC" stroke-width="1.5"/>
<path d="M3395 2432.99H3212.74V2615.25H3395V2432.99Z" stroke="#136DEC" stroke-width="1.5"/>
<path d="M1936.93 2615.25H1754.67V2797.51H1936.93V2615.25Z" stroke="#136DEC" stroke-width="1.5"/>
<path d="M2119.19 2615.25H1936.93V2797.51H2119.19V2615.25Z" stroke="#136DEC" stroke-width="1.5"/>
<path d="M2301.45 2615.25H2119.19V2797.51H2301.45V2615.25Z" stroke="#136DEC" stroke-width="1.5"/>
<path d="M2483.71 2615.25H2301.45V2797.51H2483.71V2615.25Z" stroke="#136DEC" stroke-width="1.5"/>
<path d="M2665.97 2615.25H2483.71V2797.51H2665.97V2615.25Z" stroke="#136DEC" stroke-width="1.5"/>
<path d="M2848.22 2615.25H2665.96V2797.51H2848.22V2615.25Z" stroke="#136DEC" stroke-width="1.5"/>
<path d="M3030.48 2615.25H2848.22V2797.51H3030.48V2615.25Z" stroke="#136DEC" stroke-width="1.5"/>
<path d="M3212.74 2615.25H3030.48V2797.51H3212.74V2615.25Z" stroke="#136DEC" stroke-width="1.5"/>
<path d="M3395 2615.25H3212.74V2797.51H3395V2615.25Z" stroke="#136DEC" stroke-width="1.5"/>
</g>
<defs>
<radialGradient id="paint0_radial_647_312" cx="0" cy="0" r="1" gradientUnits="userSpaceOnUse" gradientTransform="translate(1754 1521) rotate(90) scale(1875.05 2162.29)">
<stop stop-color="#FAFAFA" stop-opacity="0.8"/>
<stop offset="0.802885" stop-color="#FAFAFA" stop-opacity="0"/>
</radialGradient>
</defs>
</svg>
