<svg width="280" height="280" viewBox="0 0 280 280" fill="none" xmlns="http://www.w3.org/2000/svg">
<mask id="mask0_761_1316" style="mask-type:alpha" maskUnits="userSpaceOnUse" x="0" y="0" width="280" height="280">
<circle cx="140" cy="140" r="140" fill="#D9D9D9"/>
</mask>
<g mask="url(#mask0_761_1316)">
<path d="M393.128 -43.5508H-112.713C-117.734 -43.5508 -121.805 -39.4802 -121.805 -34.4589V314.174C-121.805 319.195 -117.734 323.266 -112.713 323.266H393.128C398.149 323.266 402.219 319.195 402.219 314.174V-34.4589C402.219 -39.4802 398.149 -43.5508 393.128 -43.5508Z" fill="#009B3A"/>
<path d="M-77.2617 139.855L140.208 278.721L357.678 139.855L140.208 0.988281L-77.2617 139.855Z" fill="#FEDF00"/>
<path d="M140.208 231.561C190.855 231.561 231.912 190.503 231.912 139.857C231.912 89.2097 190.855 48.1523 140.208 48.1523C89.5613 48.1523 48.5039 89.2097 48.5039 139.857C48.5039 190.503 89.5613 231.561 140.208 231.561Z" fill="#002776"/>
<mask id="mask1_761_1316" style="mask-type:luminance" maskUnits="userSpaceOnUse" x="48" y="48" width="184" height="184">
<path d="M140.208 231.561C190.855 231.561 231.912 190.503 231.912 139.857C231.912 89.2097 190.855 48.1523 140.208 48.1523C89.5613 48.1523 48.5039 89.2097 48.5039 139.857C48.5039 190.503 89.5613 231.561 140.208 231.561Z" fill="white"/>
</mask>
<g mask="url(#mask1_761_1316)">
<path d="M-134.904 323.265C-134.904 264.198 -111.44 207.551 -69.674 165.785C-27.9077 124.019 28.7395 100.555 87.8059 100.555C146.872 100.555 203.52 124.019 245.286 165.785C287.052 207.551 310.516 264.198 310.516 323.265H297.416C297.416 267.673 275.332 214.358 236.022 175.049C196.713 135.739 143.398 113.655 87.8059 113.655C32.214 113.655 -21.101 135.739 -60.4105 175.049C-99.7199 214.358 -121.804 267.673 -121.804 323.265H-134.904Z" fill="white"/>
</g>
<path fill-rule="evenodd" clip-rule="evenodd" d="M61.9946 113.049C63.0291 112.922 63.9653 112.344 64.597 111.441C65.2288 110.538 65.5044 109.385 65.3633 108.236C65.2221 107.086 64.6758 106.034 63.8444 105.311C63.013 104.588 61.9648 104.253 60.9302 104.38C59.8956 104.507 58.9595 105.086 58.3277 105.989C57.696 106.891 57.4203 108.044 57.5615 109.194C57.7026 110.343 58.249 111.395 59.0803 112.118C59.9117 112.841 60.96 113.176 61.9946 113.049M61.7969 111.439C62.4045 111.365 62.952 111.006 63.3189 110.442C63.6858 109.879 63.8421 109.156 63.7534 108.433C63.6646 107.711 63.3382 107.048 62.8458 106.589C62.3534 106.131 61.7355 105.916 61.1279 105.99C60.5202 106.065 59.9728 106.423 59.6059 106.987C59.2389 107.551 59.0827 108.273 59.1714 108.996C59.2601 109.719 59.5866 110.382 60.0789 110.84C60.5713 111.298 61.1893 111.514 61.7969 111.439" fill="#009B3A"/>
<path fill-rule="evenodd" clip-rule="evenodd" d="M69.1112 112.263L70.7292 112.15L70.5029 108.914L73.9879 108.67C74.7141 108.62 75.3904 108.282 75.868 107.733C76.3456 107.184 76.5854 106.467 76.5346 105.741C76.4839 105.014 76.1467 104.338 75.5972 103.861C75.0478 103.383 74.3312 103.143 73.605 103.194L68.6264 103.542L69.1112 112.263ZM70.3898 107.296L73.7503 107.061C74.0474 107.04 74.3241 106.902 74.5194 106.678C74.7148 106.453 74.8129 106.16 74.7921 105.863C74.7714 105.565 74.6334 105.289 74.4087 105.093C74.1839 104.898 73.8907 104.8 73.5936 104.821L70.2331 105.056L70.3898 107.296Z" fill="#009B3A"/>
<path d="M76.5161 111.742C76.4291 110.497 76.2376 107.759 74.3707 107.889L72.0059 108.055C74.7441 107.863 74.9355 110.601 75.0226 111.846" fill="#009B3A"/>
<path fill-rule="evenodd" clip-rule="evenodd" d="M80.1778 111.572L84.2945 111.5C84.786 111.492 85.271 111.387 85.7217 111.191C86.1725 110.995 86.5803 110.712 86.9217 110.358C87.2632 110.004 87.5316 109.587 87.7118 109.13C87.8919 108.672 87.9802 108.184 87.9717 107.693L87.9499 106.445C87.9413 105.954 87.836 105.469 87.64 105.018C87.444 104.567 87.1611 104.159 86.8075 103.818C86.454 103.476 86.0366 103.208 85.5792 103.028C85.1219 102.848 84.6336 102.759 84.1421 102.768L80.0254 102.84L80.1778 111.572ZM81.7712 109.922L84.1415 109.881C84.7701 109.87 85.3686 109.61 85.8053 109.157C86.2421 108.705 86.4813 108.098 86.4703 107.469L86.4573 106.721C86.4463 106.092 86.186 105.494 85.7338 105.057C85.2815 104.62 84.6743 104.381 84.0457 104.392L81.6754 104.433L81.7712 109.922Z" fill="#009B3A"/>
<path d="M91.2694 111.463L99.125 111.737L99.1816 110.116L92.8223 109.894L92.9007 107.65L97.8884 107.824L97.9406 106.327L92.953 106.153L93.0139 104.408L98.9991 104.617L99.0557 102.996L91.5742 102.734L91.2694 111.463Z" fill="#009B3A"/>
<path d="M102.35 111.935L103.842 112.065L104.364 106.099L105.582 112.218L106.949 112.337L109.211 106.523L108.689 112.489L110.181 112.62L110.942 103.919L108.767 103.729L106.505 109.543L105.286 103.425L103.111 103.234L102.35 111.935Z" fill="#009B3A"/>
<path d="M120.444 113.977L126.9 115.087L127.153 113.611L122.173 112.755L122.511 110.788L126.569 111.485L126.823 110.009L122.765 109.312L122.997 107.96L127.824 108.789L128.077 107.313L121.775 106.23L120.444 113.977Z" fill="#009B3A"/>
<path fill-rule="evenodd" clip-rule="evenodd" d="M137.03 117.233L138.6 117.639L139.413 114.498L142.795 115.373C143.5 115.555 144.248 115.45 144.875 115.081C145.502 114.711 145.957 114.108 146.14 113.403C146.322 112.698 146.217 111.95 145.847 111.322C145.478 110.695 144.874 110.24 144.169 110.058L139.338 108.809L137.03 117.233ZM139.819 112.928L143.08 113.772C143.368 113.846 143.675 113.803 143.931 113.652C144.188 113.501 144.374 113.254 144.448 112.966C144.523 112.677 144.48 112.371 144.329 112.114C144.178 111.858 143.931 111.672 143.642 111.597L140.381 110.754L139.819 112.928Z" fill="#009B3A"/>
<path fill-rule="evenodd" clip-rule="evenodd" d="M147.743 120.091L149.29 120.579L150.265 117.485L153.597 118.536C154.291 118.755 155.044 118.689 155.69 118.353C156.336 118.016 156.821 117.438 157.04 116.743C157.259 116.049 157.193 115.296 156.857 114.65C156.521 114.005 155.942 113.519 155.248 113.3L150.488 111.799L147.743 120.091ZM150.753 115.938L153.966 116.951C154.25 117.041 154.558 117.014 154.822 116.876C155.086 116.739 155.285 116.502 155.374 116.218C155.464 115.934 155.437 115.626 155.299 115.362C155.162 115.098 154.925 114.899 154.641 114.809L151.428 113.796L150.753 115.938Z" fill="#009B3A"/>
<path d="M154.824 122.326C155.199 121.136 156.024 118.518 154.239 117.955L151.979 117.242C154.596 118.068 153.771 120.685 153.396 121.875" fill="#009B3A"/>
<path fill-rule="evenodd" clip-rule="evenodd" d="M161.976 124.885C162.953 125.25 164.05 125.169 165.027 124.66C166.004 124.151 166.781 123.256 167.187 122.171C167.592 121.086 167.594 119.901 167.19 118.876C166.786 117.851 166.011 117.07 165.035 116.705C164.058 116.339 162.961 116.42 161.984 116.929C161.007 117.438 160.23 118.334 159.824 119.418C159.419 120.503 159.417 121.689 159.821 122.714C160.225 123.739 161 124.52 161.976 124.885M162.544 123.366C163.118 123.58 163.769 123.515 164.355 123.184C164.94 122.854 165.413 122.285 165.668 121.603C165.922 120.921 165.939 120.182 165.714 119.548C165.489 118.915 165.04 118.438 164.467 118.224C163.893 118.009 163.242 118.075 162.656 118.405C162.071 118.736 161.598 119.305 161.343 119.986C161.089 120.668 161.072 121.407 161.297 122.041C161.522 122.675 161.971 123.151 162.544 123.366" fill="#009B3A"/>
<mask id="mask2_761_1316" style="mask-type:luminance" maskUnits="userSpaceOnUse" x="168" y="119" width="12" height="12">
<path d="M168.652 127.47L172.135 119.461L179.343 122.595L175.861 130.605L168.652 127.47ZM174.595 123.66L173.998 125.033L177.602 126.6L178.199 125.227L174.595 123.66Z" fill="white"/>
</mask>
<g mask="url(#mask2_761_1316)">
<path fill-rule="evenodd" clip-rule="evenodd" d="M172.256 129.037C173.212 129.453 174.313 129.43 175.315 128.973C176.317 128.516 177.14 127.662 177.602 126.6C178.064 125.538 178.127 124.354 177.778 123.309C177.428 122.264 176.695 121.444 175.739 121.028C174.783 120.612 173.683 120.636 172.68 121.093C171.678 121.55 170.855 122.404 170.393 123.466C169.932 124.528 169.868 125.711 170.218 126.756C170.567 127.801 171.301 128.622 172.256 129.037M172.903 127.55C173.465 127.794 174.118 127.763 174.721 127.464C175.323 127.164 175.824 126.621 176.114 125.953C176.405 125.286 176.46 124.548 176.268 123.904C176.077 123.259 175.654 122.76 175.092 122.516C174.531 122.271 173.877 122.303 173.275 122.602C172.673 122.901 172.171 123.445 171.881 124.112C171.591 124.78 171.535 125.517 171.727 126.162C171.919 126.807 172.342 127.306 172.903 127.55" fill="#009B3A"/>
</g>
<path d="M174.57 125.281L177.602 126.6L177.105 127.744L174.073 126.425L174.57 125.281Z" fill="#009B3A"/>
<path d="M176.459 126.102L177.603 126.599L175.862 130.604L174.718 130.106L176.459 126.102Z" fill="#009B3A"/>
<path fill-rule="evenodd" clip-rule="evenodd" d="M178.791 131.972L180.242 132.696L181.69 129.793L184.816 131.352C185.467 131.677 186.221 131.729 186.912 131.498C187.602 131.267 188.172 130.772 188.497 130.12C188.822 129.469 188.875 128.715 188.644 128.024C188.413 127.334 187.917 126.764 187.266 126.439L182.799 124.212L178.791 131.972ZM182.413 128.341L185.428 129.845C185.695 129.977 186.003 129.999 186.285 129.904C186.568 129.81 186.801 129.607 186.934 129.341C187.067 129.074 187.088 128.766 186.994 128.483C186.899 128.201 186.697 127.968 186.43 127.835L183.415 126.332L182.413 128.341Z" fill="#009B3A"/>
<path d="M185.433 135.286C185.99 134.17 187.214 131.713 185.539 130.878L183.418 129.82C185.874 131.045 184.65 133.502 184.093 134.618" fill="#009B3A"/>
<path d="M188.678 136.996L195.519 140.867L196.318 139.455L190.78 136.322L191.886 134.367L196.229 136.824L196.966 135.521L192.623 133.064L193.483 131.543L198.695 134.493L199.494 133.081L192.979 129.395L188.678 136.996Z" fill="#009B3A"/>
<path d="M201.42 141.268C200.95 142.004 201.426 142.825 202.478 143.495C203.53 144.166 204.247 144.142 204.55 143.669C205.505 142.169 199.982 139.982 201.685 137.368C203.152 135.123 205.663 136.87 206.61 137.474C207.557 138.077 209.078 139.638 207.895 141.436L206.291 140.414C206.793 139.625 206.241 138.866 205.399 138.33C204.584 137.81 203.921 137.573 203.435 138.336C202.621 139.555 208.034 141.857 206.375 144.462C205.151 146.382 203.023 145.544 201.602 144.639C200.392 143.868 198.584 142.05 199.762 140.212L201.42 141.268Z" fill="#009B3A"/>
<path d="M210.788 147.463C210.28 148.174 210.712 149.018 211.728 149.743C212.744 150.467 213.461 150.481 213.788 150.024C214.82 148.577 209.42 146.104 211.256 143.583C212.84 141.417 215.256 143.294 216.17 143.946C217.084 144.598 218.521 146.236 217.246 147.97L215.697 146.865C216.24 146.103 215.728 145.317 214.916 144.737C214.129 144.175 213.479 143.904 212.954 144.64C212.077 145.816 217.362 148.398 215.569 150.912C214.247 152.765 212.165 151.817 210.793 150.839C209.625 150.005 207.915 148.096 209.188 146.322L210.788 147.463Z" fill="#009B3A"/>
<path fill-rule="evenodd" clip-rule="evenodd" d="M219.649 157.512C220.464 158.161 221.533 158.423 222.62 158.241C223.706 158.059 224.722 157.448 225.443 156.541C226.164 155.635 226.531 154.508 226.464 153.408C226.397 152.308 225.901 151.326 225.086 150.677C224.27 150.028 223.201 149.766 222.114 149.948C221.028 150.13 220.012 150.742 219.291 151.648C218.57 152.554 218.203 153.681 218.27 154.781C218.337 155.881 218.833 156.863 219.649 157.512M220.658 156.243C221.137 156.624 221.777 156.763 222.436 156.63C223.095 156.496 223.72 156.101 224.174 155.531C224.627 154.962 224.871 154.264 224.853 153.592C224.834 152.919 224.555 152.328 224.076 151.946C223.597 151.565 222.957 151.426 222.298 151.56C221.639 151.693 221.014 152.088 220.561 152.658C220.108 153.227 219.863 153.925 219.882 154.598C219.9 155.27 220.179 155.862 220.658 156.243" fill="#009B3A"/>
<path d="M65.3477 119.457L64.1332 123.195L66.0021 123.802" fill="white"/>
<path d="M65.3477 119.457L66.5621 123.195L64.6932 123.802" fill="white"/>
<path d="M69.0879 122.176H65.1577V124.141" fill="white"/>
<path d="M69.0879 122.176L65.9083 124.486L64.7533 122.896" fill="white"/>
<path d="M61.6094 122.172L64.789 124.482L65.944 122.892" fill="white"/>
<path d="M61.6094 122.172H65.5396V124.137" fill="white"/>
<path d="M67.6582 126.566L66.4437 122.829L64.5748 123.436" fill="white"/>
<path d="M67.6582 126.566L64.4786 124.256L65.6337 122.667" fill="white"/>
<path d="M63.0371 126.566L66.2167 124.256L65.0616 122.667" fill="white"/>
<path d="M63.0371 126.566L64.2516 122.829L66.1205 123.436" fill="white"/>
<path d="M73.457 158.012L72.2425 161.75L74.1115 162.357" fill="white"/>
<path d="M73.457 158.012L74.6715 161.75L72.8026 162.357" fill="white"/>
<path d="M77.1953 160.727H73.2651V162.692" fill="white"/>
<path d="M77.1953 160.727L74.0157 163.037L72.8607 161.447" fill="white"/>
<path d="M69.7188 160.727L72.8983 163.037L74.0534 161.447" fill="white"/>
<path d="M69.7188 160.727H73.6489V162.692" fill="white"/>
<path d="M75.7676 165.117L74.5531 161.379L72.6842 161.987" fill="white"/>
<path d="M75.7676 165.117L72.588 162.807L73.743 161.217" fill="white"/>
<path d="M71.1465 165.117L74.3261 162.807L73.171 161.217" fill="white"/>
<path d="M71.1465 165.117L72.361 161.379L74.2299 161.987" fill="white"/>
<path d="M62.2305 166.902L61.2184 170.017L62.7758 170.523" fill="white"/>
<path d="M62.2305 166.902L63.2425 170.017L61.6851 170.523" fill="white"/>
<path d="M65.3438 169.16H62.0686V170.798" fill="white"/>
<path d="M65.3438 169.16L62.6941 171.085L61.7316 169.76" fill="white"/>
<path d="M59.1152 169.164L61.7649 171.089L62.7274 169.764" fill="white"/>
<path d="M59.1152 169.164H62.3904V170.802" fill="white"/>
<path d="M64.1543 172.824L63.1422 169.709L61.5848 170.215" fill="white"/>
<path d="M64.1543 172.824L61.5046 170.899L62.4672 169.574" fill="white"/>
<path d="M60.3027 172.828L62.9524 170.903L61.9898 169.578" fill="white"/>
<path d="M60.3027 172.828L61.3148 169.713L62.8722 170.219" fill="white"/>
<path d="M82.4414 154.453L81.8631 156.233L82.753 156.522" fill="white"/>
<path d="M82.4414 154.453L83.0197 156.233L82.1298 156.522" fill="white"/>
<path d="M84.2207 155.754H82.3492V156.69" fill="white"/>
<path d="M84.2207 155.754L82.7066 156.854L82.1566 156.097" fill="white"/>
<path d="M80.6602 155.746L82.1742 156.846L82.7243 156.089" fill="white"/>
<path d="M80.6602 155.746H82.5317V156.682" fill="white"/>
<path d="M83.543 157.84L82.9646 156.06L82.0747 156.349" fill="white"/>
<path d="M83.543 157.84L82.0289 156.74L82.5789 155.983" fill="white"/>
<path d="M81.3418 157.84L82.8559 156.74L82.3059 155.983" fill="white"/>
<path d="M81.3418 157.84L81.9201 156.06L82.8101 156.349" fill="white"/>
<path d="M92.5488 167.773L91.5368 170.888L93.0942 171.394" fill="white"/>
<path d="M92.5488 167.773L93.5609 170.888L92.0035 171.394" fill="white"/>
<path d="M95.6641 170.039H92.3889V171.677" fill="white"/>
<path d="M95.6641 170.039L93.0144 171.964L92.0519 170.639" fill="white"/>
<path d="M89.4336 170.035L92.0832 171.96L93.0458 170.635" fill="white"/>
<path d="M89.4336 170.035H92.7087V171.673" fill="white"/>
<path d="M94.4727 173.695L93.4606 170.58L91.9032 171.086" fill="white"/>
<path d="M94.4727 173.695L91.823 171.77L92.7855 170.445" fill="white"/>
<path d="M90.623 173.699L93.2727 171.774L92.3102 170.449" fill="white"/>
<path d="M90.623 173.699L91.6351 170.584L93.1926 171.09" fill="white"/>
<path d="M89.8027 177.535L88.9931 180.027L90.239 180.432" fill="white"/>
<path d="M89.8027 177.535L90.6124 180.027L89.3665 180.432" fill="white"/>
<path d="M92.293 179.348H89.6728V180.658" fill="white"/>
<path d="M92.293 179.348L90.1732 180.888L89.4032 179.828" fill="white"/>
<path d="M87.3086 179.348L89.4283 180.888L90.1984 179.828" fill="white"/>
<path d="M87.3086 179.348H89.9287V180.658" fill="white"/>
<path d="M91.3418 182.277L90.5321 179.785L89.2862 180.19" fill="white"/>
<path d="M91.3418 182.277L89.2221 180.737L89.9921 179.677" fill="white"/>
<path d="M88.2617 182.273L90.3814 180.733L89.6114 179.674" fill="white"/>
<path d="M88.2617 182.273L89.0714 179.782L90.3173 180.186" fill="white"/>
<path d="M168.658 107.48L167.444 111.218L169.313 111.826" fill="white"/>
<path d="M168.658 107.48L169.873 111.218L168.004 111.826" fill="white"/>
<path d="M172.393 110.195H168.462V112.16" fill="white"/>
<path d="M172.393 110.195L169.213 112.505L168.058 110.916" fill="white"/>
<path d="M164.92 110.195L168.1 112.505L169.255 110.916" fill="white"/>
<path d="M164.92 110.195H168.85V112.16" fill="white"/>
<path d="M170.965 114.586L169.75 110.848L167.881 111.455" fill="white"/>
<path d="M170.965 114.586L167.785 112.276L168.94 110.686" fill="white"/>
<path d="M166.344 114.586L169.523 112.276L168.368 110.686" fill="white"/>
<path d="M166.344 114.586L167.558 110.848L169.427 111.455" fill="white"/>
<path d="M204.463 168.117L203.248 171.855L205.117 172.462" fill="white"/>
<path d="M204.463 168.117L205.677 171.855L203.808 172.462" fill="white"/>
<path d="M208.201 170.832H204.271V172.797" fill="white"/>
<path d="M208.201 170.832L205.022 173.142L203.867 171.552" fill="white"/>
<path d="M200.725 170.832L203.904 173.142L205.059 171.552" fill="white"/>
<path d="M200.725 170.832H204.655V172.797" fill="white"/>
<path d="M206.773 175.223L205.559 171.485L203.69 172.092" fill="white"/>
<path d="M206.773 175.223L203.594 172.913L204.749 171.323" fill="white"/>
<path d="M202.152 175.227L205.332 172.916L204.177 171.327" fill="white"/>
<path d="M202.152 175.227L203.367 171.489L205.236 172.096" fill="white"/>
<path d="M217.191 170.301L216.382 172.793L217.628 173.197" fill="white"/>
<path d="M217.191 170.301L218.001 172.793L216.755 173.197" fill="white"/>
<path d="M219.682 172.113H217.062V173.423" fill="white"/>
<path d="M219.682 172.113L217.562 173.653L216.792 172.593" fill="white"/>
<path d="M214.699 172.113L216.819 173.653L217.589 172.593" fill="white"/>
<path d="M214.699 172.113H217.319V173.423" fill="white"/>
<path d="M218.73 175.043L217.921 172.551L216.675 172.956" fill="white"/>
<path d="M218.73 175.043L216.611 173.503L217.381 172.443" fill="white"/>
<path d="M215.65 175.039L217.77 173.499L217 172.439" fill="white"/>
<path d="M215.65 175.039L216.46 172.547L217.706 172.952" fill="white"/>
<path d="M208.207 176.883L207.195 179.998L208.752 180.504" fill="white"/>
<path d="M208.207 176.883L209.219 179.998L207.662 180.504" fill="white"/>
<path d="M211.318 179.148H208.043V180.786" fill="white"/>
<path d="M211.318 179.148L208.669 181.074L207.706 179.749" fill="white"/>
<path d="M205.09 179.145L207.739 181.07L208.702 179.745" fill="white"/>
<path d="M205.09 179.145H208.365V180.782" fill="white"/>
<path d="M210.131 182.809L209.119 179.694L207.561 180.2" fill="white"/>
<path d="M210.131 182.809L207.481 180.884L208.444 179.559" fill="white"/>
<path d="M206.281 182.809L208.931 180.884L207.968 179.559" fill="white"/>
<path d="M206.281 182.809L207.293 179.694L208.851 180.2" fill="white"/>
<path d="M186.121 196.094L185.109 199.209L186.666 199.715" fill="white"/>
<path d="M186.121 196.094L187.133 199.209L185.576 199.715" fill="white"/>
<path d="M189.236 198.359H185.961V199.997" fill="white"/>
<path d="M189.236 198.359L186.587 200.284L185.624 198.96" fill="white"/>
<path d="M183.006 198.359L185.656 200.284L186.618 198.96" fill="white"/>
<path d="M183.006 198.359H186.281V199.997" fill="white"/>
<path d="M188.047 202.02L187.035 198.905L185.477 199.411" fill="white"/>
<path d="M188.047 202.02L185.397 200.094L186.36 198.77" fill="white"/>
<path d="M184.195 202.02L186.845 200.094L185.882 198.77" fill="white"/>
<path d="M184.195 202.02L185.207 198.905L186.765 199.411" fill="white"/>
<path d="M185.998 205.98L185.188 208.472L186.434 208.877" fill="white"/>
<path d="M185.998 205.98L186.808 208.472L185.562 208.877" fill="white"/>
<path d="M188.49 207.793H185.87V209.103" fill="white"/>
<path d="M188.49 207.793L186.371 209.333L185.6 208.273" fill="white"/>
<path d="M183.506 207.793L185.626 209.333L186.396 208.273" fill="white"/>
<path d="M183.506 207.793H186.126V209.103" fill="white"/>
<path d="M187.537 210.723L186.727 208.231L185.482 208.636" fill="white"/>
<path d="M187.537 210.723L185.417 209.183L186.187 208.123" fill="white"/>
<path d="M184.459 210.723L186.579 209.183L185.809 208.123" fill="white"/>
<path d="M184.459 210.723L185.269 208.231L186.515 208.636" fill="white"/>
<path d="M195.23 189.512L194.421 192.004L195.667 192.408" fill="white"/>
<path d="M195.23 189.512L196.04 192.004L194.794 192.408" fill="white"/>
<path d="M197.723 191.324H195.103V192.634" fill="white"/>
<path d="M197.723 191.324L195.603 192.864L194.833 191.804" fill="white"/>
<path d="M192.738 191.324L194.858 192.864L195.628 191.804" fill="white"/>
<path d="M192.738 191.324H195.358V192.634" fill="white"/>
<path d="M196.771 194.254L195.962 191.762L194.716 192.167" fill="white"/>
<path d="M196.771 194.254L194.652 192.714L195.422 191.654" fill="white"/>
<path d="M193.691 194.254L195.811 192.714L195.041 191.654" fill="white"/>
<path d="M193.691 194.254L194.501 191.762L195.747 192.167" fill="white"/>
<path d="M202.592 184.242L201.58 187.357L203.137 187.863" fill="white"/>
<path d="M202.592 184.242L203.604 187.357L202.046 187.863" fill="white"/>
<path d="M205.705 186.508H202.43V188.145" fill="white"/>
<path d="M205.705 186.508L203.055 188.433L202.093 187.108" fill="white"/>
<path d="M199.475 186.504L202.124 188.429L203.087 187.104" fill="white"/>
<path d="M199.475 186.504H202.75V188.141" fill="white"/>
<path d="M204.516 190.164L203.504 187.049L201.946 187.555" fill="white"/>
<path d="M204.516 190.164L201.866 188.239L202.829 186.914" fill="white"/>
<path d="M200.664 190.168L203.314 188.243L202.351 186.918" fill="white"/>
<path d="M200.664 190.168L201.676 187.053L203.234 187.559" fill="white"/>
<path d="M185.75 187.766L184.94 190.258L186.186 190.662" fill="white"/>
<path d="M185.75 187.766L186.56 190.258L185.314 190.662" fill="white"/>
<path d="M188.24 189.574H185.62V190.884" fill="white"/>
<path d="M188.24 189.574L186.121 191.114L185.35 190.054" fill="white"/>
<path d="M183.258 189.582L185.378 191.122L186.148 190.062" fill="white"/>
<path d="M183.258 189.582H185.878V190.892" fill="white"/>
<path d="M187.289 192.508L186.479 190.016L185.233 190.421" fill="white"/>
<path d="M187.289 192.508L185.169 190.968L185.939 189.908" fill="white"/>
<path d="M184.209 192.504L186.329 190.964L185.559 189.904" fill="white"/>
<path d="M184.209 192.504L185.019 190.012L186.265 190.417" fill="white"/>
<path d="M105.271 140.32L104.259 143.435L105.817 143.941" fill="white"/>
<path d="M105.271 140.32L106.284 143.435L104.726 143.941" fill="white"/>
<path d="M108.387 142.586H105.112V144.224" fill="white"/>
<path d="M108.387 142.586L105.737 144.511L104.775 143.186" fill="white"/>
<path d="M102.158 142.586L104.808 144.511L105.77 143.186" fill="white"/>
<path d="M102.158 142.586H105.433V144.224" fill="white"/>
<path d="M107.197 146.25L106.185 143.135L104.628 143.641" fill="white"/>
<path d="M107.197 146.25L104.548 144.325L105.51 143" fill="white"/>
<path d="M103.346 146.246L105.995 144.321L105.033 142.996" fill="white"/>
<path d="M103.346 146.246L104.358 143.131L105.915 143.637" fill="white"/>
<path d="M165.164 132.621L164.354 135.113L165.6 135.518" fill="white"/>
<path d="M165.164 132.621L165.974 135.113L164.728 135.518" fill="white"/>
<path d="M167.654 134.434H165.034V135.744" fill="white"/>
<path d="M167.654 134.434L165.535 135.974L164.765 134.914" fill="white"/>
<path d="M162.67 134.43L164.79 135.97L165.56 134.91" fill="white"/>
<path d="M162.67 134.43H165.29V135.74" fill="white"/>
<path d="M166.703 137.359L165.893 134.867L164.648 135.272" fill="white"/>
<path d="M166.703 137.359L164.583 135.819L165.353 134.759" fill="white"/>
<path d="M163.623 137.363L165.743 135.823L164.973 134.763" fill="white"/>
<path d="M163.623 137.363L164.433 134.871L165.679 135.276" fill="white"/>
<path d="M140.209 177.098L138.994 180.835L140.863 181.443" fill="white"/>
<path d="M140.209 177.098L141.423 180.835L139.555 181.443" fill="white"/>
<path d="M143.947 179.816H140.017V181.781" fill="white"/>
<path d="M143.947 179.816L140.768 182.127L139.613 180.537" fill="white"/>
<path d="M136.471 179.816L139.65 182.127L140.805 180.537" fill="white"/>
<path d="M136.471 179.816H140.401V181.781" fill="white"/>
<path d="M142.518 184.207L141.303 180.469L139.434 181.076" fill="white"/>
<path d="M142.518 184.207L139.338 181.897L140.493 180.307" fill="white"/>
<path d="M137.896 184.207L141.076 181.897L139.921 180.307" fill="white"/>
<path d="M137.896 184.207L139.111 180.469L140.98 181.076" fill="white"/>
<path d="M150.814 159.539L149.802 162.654L151.36 163.16" fill="white"/>
<path d="M150.814 159.539L151.827 162.654L150.269 163.16" fill="white"/>
<path d="M153.93 161.805H150.655V163.442" fill="white"/>
<path d="M153.93 161.805L151.28 163.73L150.317 162.405" fill="white"/>
<path d="M147.699 161.801L150.349 163.726L151.311 162.401" fill="white"/>
<path d="M147.699 161.801H150.974V163.438" fill="white"/>
<path d="M152.738 165.461L151.726 162.346L150.169 162.852" fill="white"/>
<path d="M152.738 165.461L150.089 163.536L151.051 162.211" fill="white"/>
<path d="M148.889 165.465L151.538 163.54L150.576 162.215" fill="white"/>
<path d="M148.889 165.465L149.901 162.35L151.458 162.856" fill="white"/>
<path d="M140.209 151.305L139.197 154.42L140.754 154.926" fill="white"/>
<path d="M140.209 151.305L141.221 154.42L139.664 154.926" fill="white"/>
<path d="M143.322 153.57H140.047V155.208" fill="white"/>
<path d="M143.322 153.57L140.673 155.495L139.71 154.171" fill="white"/>
<path d="M137.092 153.566L139.741 155.491L140.704 154.167" fill="white"/>
<path d="M137.092 153.566H140.367V155.204" fill="white"/>
<path d="M142.133 157.227L141.121 154.112L139.563 154.618" fill="white"/>
<path d="M142.133 157.227L139.483 155.301L140.446 153.977" fill="white"/>
<path d="M138.281 157.23L140.931 155.305L139.968 153.981" fill="white"/>
<path d="M138.281 157.23L139.293 154.116L140.851 154.622" fill="white"/>
<path d="M130.977 160.195L130.167 162.687L131.413 163.092" fill="white"/>
<path d="M130.977 160.195L131.786 162.687L130.54 163.092" fill="white"/>
<path d="M133.467 162.008H130.847V163.318" fill="white"/>
<path d="M133.467 162.008L131.347 163.548L130.577 162.488" fill="white"/>
<path d="M128.482 162.004L130.602 163.544L131.372 162.484" fill="white"/>
<path d="M128.482 162.004H131.103V163.314" fill="white"/>
<path d="M132.516 164.934L131.706 162.442L130.46 162.847" fill="white"/>
<path d="M132.516 164.934L130.396 163.394L131.166 162.334" fill="white"/>
<path d="M129.438 164.934L131.557 163.394L130.787 162.334" fill="white"/>
<path d="M129.438 164.934L130.247 162.442L131.493 162.847" fill="white"/>
<path d="M135.592 167.305L135.013 169.085L135.903 169.374" fill="white"/>
<path d="M135.592 167.305L136.17 169.085L135.28 169.374" fill="white"/>
<path d="M137.371 168.598H135.5V169.533" fill="white"/>
<path d="M137.371 168.598L135.857 169.698L135.307 168.941" fill="white"/>
<path d="M133.811 168.594L135.325 169.694L135.875 168.937" fill="white"/>
<path d="M133.811 168.594H135.682V169.53" fill="white"/>
<path d="M136.693 170.691L136.115 168.911L135.225 169.201" fill="white"/>
<path d="M136.693 170.691L135.179 169.591L135.729 168.834" fill="white"/>
<path d="M134.49 170.691L136.004 169.591L135.454 168.834" fill="white"/>
<path d="M134.49 170.691L135.069 168.911L135.959 169.201" fill="white"/>
<path d="M167.656 198.34L166.644 201.455L168.202 201.961" fill="white"/>
<path d="M167.656 198.34L168.668 201.455L167.111 201.961" fill="white"/>
<path d="M170.773 200.605H167.498V202.243" fill="white"/>
<path d="M170.773 200.605L168.124 202.531L167.161 201.206" fill="white"/>
<path d="M164.543 200.605L167.193 202.531L168.155 201.206" fill="white"/>
<path d="M164.543 200.605H167.818V202.243" fill="white"/>
<path d="M169.584 204.266L168.572 201.151L167.014 201.657" fill="white"/>
<path d="M169.584 204.266L166.934 202.341L167.897 201.016" fill="white"/>
<path d="M165.73 204.266L168.38 202.341L167.418 201.016" fill="white"/>
<path d="M165.73 204.266L166.743 201.151L168.3 201.657" fill="white"/>
<path d="M175.518 190.887L174.708 193.379L175.954 193.783" fill="white"/>
<path d="M175.518 190.887L176.327 193.379L175.081 193.783" fill="white"/>
<path d="M178.008 192.699H175.388V194.009" fill="white"/>
<path d="M178.008 192.699L175.888 194.239L175.118 193.179" fill="white"/>
<path d="M173.025 192.699L175.145 194.239L175.915 193.179" fill="white"/>
<path d="M173.025 192.699H175.646V194.009" fill="white"/>
<path d="M177.059 195.629L176.249 193.137L175.003 193.542" fill="white"/>
<path d="M177.059 195.629L174.939 194.089L175.709 193.029" fill="white"/>
<path d="M173.979 195.625L176.098 194.085L175.328 193.025" fill="white"/>
<path d="M173.979 195.625L174.788 193.133L176.034 193.538" fill="white"/>
<path d="M160.422 188.641L159.612 191.133L160.858 191.537" fill="white"/>
<path d="M160.422 188.641L161.232 191.133L159.986 191.537" fill="white"/>
<path d="M162.912 190.449H160.292V191.759" fill="white"/>
<path d="M162.912 190.449L160.792 191.989L160.022 190.929" fill="white"/>
<path d="M157.93 190.457L160.049 191.997L160.819 190.937" fill="white"/>
<path d="M157.93 190.457H160.55V191.767" fill="white"/>
<path d="M161.961 193.383L161.151 190.891L159.905 191.296" fill="white"/>
<path d="M161.961 193.383L159.841 191.843L160.611 190.783" fill="white"/>
<path d="M158.881 193.383L161.001 191.843L160.231 190.783" fill="white"/>
<path d="M158.881 193.383L159.691 190.891L160.936 191.296" fill="white"/>
<path d="M103.4 184.586L102.186 188.324L104.055 188.931" fill="white"/>
<path d="M103.4 184.586L104.615 188.324L102.746 188.931" fill="white"/>
<path d="M107.139 187.301H103.208V189.266" fill="white"/>
<path d="M107.139 187.301L103.959 189.611L102.804 188.021" fill="white"/>
<path d="M99.6621 187.301L102.842 189.611L103.997 188.021" fill="white"/>
<path d="M99.6621 187.301H103.592V189.266" fill="white"/>
<path d="M105.711 191.691L104.496 187.954L102.628 188.561" fill="white"/>
<path d="M105.711 191.691L102.531 189.381L103.686 187.792" fill="white"/>
<path d="M101.09 191.695L104.269 189.385L103.114 187.795" fill="white"/>
<path d="M101.09 191.695L102.304 187.957L104.173 188.565" fill="white"/>
<path d="M140.207 210.289L139.802 211.535L140.425 211.737" fill="white"/>
<path d="M140.207 210.289L140.612 211.535L139.989 211.737" fill="white"/>
<path d="M141.455 211.191H140.145V211.846" fill="white"/>
<path d="M141.455 211.191L140.395 211.961L140.01 211.432" fill="white"/>
<path d="M138.961 211.195L140.021 211.965L140.406 211.435" fill="white"/>
<path d="M138.961 211.195H140.271V211.85" fill="white"/>
<path d="M140.979 212.656L140.574 211.41L139.951 211.613" fill="white"/>
<path d="M140.979 212.656L139.919 211.886L140.304 211.356" fill="white"/>
<path d="M139.438 212.66L140.497 211.89L140.112 211.36" fill="white"/>
<path d="M139.438 212.66L139.842 211.414L140.465 211.617" fill="white"/>
</g>
</svg>
