<svg width="128" height="74" viewBox="0 0 128 74" fill="none" xmlns="http://www.w3.org/2000/svg">
<path d="M10.0787 0.508842C10.6278 -0.456058 12.1053 0.0586414 11.9361 1.15584L11.1241 6.42184C11.0608 6.83184 11.2573 7.23824 11.6178 7.44334L16.2487 10.0787C17.2136 10.6277 16.6989 12.1053 15.6017 11.9361L10.3357 11.124C9.92574 11.0608 9.51934 11.2572 9.31424 11.6178L6.67884 16.2487C6.12984 17.2136 4.65224 16.6989 4.82144 15.6017L5.63354 10.3357C5.69674 9.92574 5.50034 9.51934 5.13984 9.31414L0.508842 6.67884C-0.456058 6.12974 0.058642 4.65224 1.15584 4.82144L6.42184 5.63344C6.83184 5.69674 7.23824 5.50024 7.44344 5.13974L10.0787 0.508842Z" fill="#136DEC" fill-opacity="0.5"/>
<path d="M14.4694 28.4267C15.0184 27.4619 16.496 27.9766 16.3268 29.0737L16.1215 30.4053C16.0583 30.8152 16.2547 31.2216 16.6152 31.4268L17.7862 32.0932C18.751 32.6422 18.2363 34.1198 17.1392 33.9506L15.8076 33.7453C15.3977 33.682 14.9912 33.8785 14.7861 34.239L14.1197 35.4099C13.5707 36.3748 12.0931 35.8601 12.2623 34.7629L12.4676 33.4314C12.5309 33.0214 12.3344 32.615 11.9739 32.4099L10.803 31.7435C9.83813 31.1944 10.3528 29.7169 11.45 29.8861L12.7815 30.0914C13.1914 30.1546 13.5979 29.9582 13.803 29.5977L14.4694 28.4267Z" fill="#136DEC" fill-opacity="0.5"/>
<path d="M40.3033 1.82908C40.8524 0.864285 42.3299 1.37898 42.1607 2.47608L41.9554 3.80768C41.8922 4.21758 42.0887 4.62408 42.4492 4.82918L43.62 5.49558C44.5849 6.04459 44.0703 7.52218 42.9731 7.35298L41.6415 7.14768C41.2315 7.08438 40.8252 7.28088 40.62 7.64138L39.9536 8.81238C39.4045 9.77718 37.927 9.26248 38.0962 8.16528L38.3015 6.83378C38.3647 6.42388 38.1684 6.01739 37.8079 5.81228L36.6368 5.14588C35.672 4.59688 36.1866 3.11929 37.2838 3.28849L38.6154 3.49378C39.0253 3.55698 39.4317 3.36058 39.6369 3.00008L40.3033 1.82908Z" fill="#136DEC" fill-opacity="0.5"/>
<path d="M127.548 63.558C128.472 62.9426 127.855 61.5048 126.772 61.7506L121.576 62.9304C121.172 63.0223 120.752 62.8549 120.522 62.5097L117.568 58.0752C116.953 57.1513 115.515 57.7684 115.761 58.851L116.941 64.047C117.033 64.4516 116.865 64.8708 116.52 65.1007L112.086 68.0547C111.162 68.6702 111.779 70.108 112.861 69.8622L118.057 68.6823C118.462 68.5905 118.881 68.7579 119.111 69.1031L122.065 73.5375C122.681 74.4615 124.118 73.8443 123.873 72.7617L122.693 67.5657C122.601 67.1612 122.768 66.742 123.114 66.512L127.548 63.558Z" fill="#136DEC" fill-opacity="0.5"/>
<path d="M99.3913 61.1381C100.315 60.5226 99.6983 59.0849 98.6153 59.3307L97.3014 59.629C96.8974 59.7209 96.4784 59.5534 96.2484 59.2082L95.5013 58.087C94.8853 57.163 93.4474 57.7802 93.6934 58.8628L93.9923 60.1766C94.0833 60.5811 93.9164 61.0003 93.5714 61.2303L92.4504 61.9772C91.5264 62.5927 92.1433 64.0305 93.2253 63.7847L94.5393 63.4863C94.9443 63.3945 95.3633 63.5619 95.5933 63.9071L96.3404 65.0284C96.9554 65.9523 98.3933 65.3351 98.1473 64.2525L97.8494 62.9387C97.7574 62.5342 97.9243 62.115 98.2703 61.885L99.3913 61.1381Z" fill="#136DEC" fill-opacity="0.5"/>
<path d="M124.108 33.5014C125.032 32.8859 124.414 31.4482 123.332 31.694L122.018 31.9923C121.614 32.0842 121.194 31.9168 120.964 31.5715L120.217 30.4503C119.602 29.5263 118.164 30.1435 118.41 31.2261L118.708 32.5399C118.8 32.9444 118.633 33.3636 118.288 33.5936L117.166 34.3405C116.242 34.956 116.86 36.3938 117.942 36.148L119.256 35.8496C119.66 35.7578 120.08 35.9252 120.31 36.2704L121.057 37.3917C121.672 38.3156 123.11 37.6984 122.864 36.6159L122.566 35.302C122.474 34.8975 122.641 34.4783 122.986 34.2483L124.108 33.5014Z" fill="#136DEC" fill-opacity="0.5"/>
<rect x="28" y="22" width="80" height="28" rx="6" fill="#136DEC"/>
<path d="M50.7988 30.6001V33.0001M51.9988 31.8001H49.5988M41.1991 38.9999V40.1999M41.799 39.5999H40.5991M44.7612 38.0999C44.7076 37.8923 44.5994 37.7028 44.4477 37.5512C44.2961 37.3996 44.1066 37.2913 43.899 37.2378L40.2181 36.2886C40.1553 36.2708 40.1 36.2329 40.0607 36.1809C40.0213 36.1288 40 36.0653 40 36C40 35.9347 40.0213 35.8712 40.0607 35.8191C40.1 35.7671 40.1553 35.7292 40.2181 35.7114L43.899 34.7616C44.1065 34.7081 44.296 34.6 44.4476 34.4485C44.5992 34.2969 44.7075 34.1076 44.7612 33.9001L45.7103 30.2191C45.728 30.1561 45.7658 30.1006 45.8179 30.061C45.8701 30.0214 45.9338 30 45.9992 30C46.0647 30 46.1284 30.0214 46.1805 30.061C46.2327 30.1006 46.2705 30.1561 46.2881 30.2191L47.2367 33.9001C47.2903 34.1077 47.3985 34.2972 47.5501 34.4488C47.7017 34.6004 47.8912 34.7087 48.0989 34.7622L51.7798 35.7108C51.8431 35.7283 51.8989 35.766 51.9387 35.8182C51.9785 35.8705 52 35.9343 52 36C52 36.0657 51.9785 36.1295 51.9387 36.1817C51.8989 36.234 51.8431 36.2717 51.7798 36.2892L48.0989 37.2378C47.8912 37.2913 47.7017 37.3996 47.5501 37.5512C47.3985 37.7028 47.2903 37.8923 47.2367 38.0999L46.2875 41.7809C46.2699 41.8439 46.2321 41.8994 46.1799 41.939C46.1278 41.9786 46.0641 42 45.9986 42C45.9332 42 45.8695 41.9786 45.8173 41.939C45.7652 41.8994 45.7274 41.8439 45.7097 41.7809L44.7612 38.0999Z" stroke="white" stroke-linecap="round" stroke-linejoin="round"/>
<path d="M73.5895 35.0497C73.5303 34.858 73.4486 34.6863 73.3445 34.5348C73.2427 34.3809 73.1196 34.2495 72.9751 34.1406C72.8331 34.0317 72.6697 33.95 72.4851 33.8956C72.3004 33.8388 72.0992 33.8104 71.8814 33.8104C71.4908 33.8104 71.1428 33.9086 70.8374 34.1051C70.532 34.3016 70.2917 34.5904 70.1165 34.9716C69.9437 35.3504 69.8572 35.812 69.8572 36.3565C69.8572 36.9058 69.9437 37.371 70.1165 37.7521C70.2893 38.1333 70.5296 38.4233 70.8374 38.6222C71.1451 38.8187 71.5026 38.9169 71.9098 38.9169C72.2791 38.9169 72.5987 38.8459 72.8686 38.7038C73.1409 38.5618 73.3504 38.3606 73.4972 38.1001C73.6439 37.8374 73.7173 37.5296 73.7173 37.1768L74.0156 37.223H72.0412V36.1932H74.9922V37.0668C74.9922 37.6894 74.8596 38.228 74.5945 38.6825C74.3293 39.1371 73.9647 39.4875 73.5007 39.7337C73.0367 39.9775 72.504 40.0994 71.9027 40.0994C71.2327 40.0994 70.6444 39.9491 70.1378 39.6484C69.6335 39.3454 69.2393 38.9157 68.9553 38.3594C68.6735 37.8007 68.5327 37.1378 68.5327 36.3707C68.5327 35.7836 68.6155 35.2592 68.7812 34.7976C68.9493 34.3359 69.1837 33.9441 69.4844 33.6222C69.785 33.2978 70.1378 33.0516 70.5426 32.8835C70.9474 32.7131 71.3878 32.6278 71.8636 32.6278C72.2661 32.6278 72.6413 32.687 72.9893 32.8054C73.3374 32.9214 73.6463 33.0871 73.9162 33.3026C74.1884 33.518 74.4122 33.7737 74.5874 34.0696C74.7625 34.3655 74.8774 34.6922 74.9318 35.0497H73.5895ZM78.6241 40.1065C78.0772 40.1065 77.6049 39.9929 77.2072 39.7656C76.8118 39.536 76.5076 39.2116 76.2946 38.7926C76.0815 38.3712 75.975 37.8752 75.975 37.3047C75.975 36.7436 76.0815 36.2512 76.2946 35.8274C76.51 35.4013 76.8107 35.0698 77.1966 34.8331C77.5824 34.594 78.0358 34.4744 78.5566 34.4744C78.8928 34.4744 79.21 34.5289 79.5083 34.6378C79.809 34.7443 80.0742 34.91 80.3038 35.1349C80.5358 35.3598 80.7181 35.6463 80.8507 35.9943C80.9833 36.34 81.0495 36.7519 81.0495 37.2301V37.6243H76.5787V36.7578H79.8173C79.8149 36.5116 79.7617 36.2926 79.6575 36.1009C79.5533 35.9067 79.4077 35.754 79.2207 35.6428C79.036 35.5315 78.8206 35.4759 78.5744 35.4759C78.3116 35.4759 78.0808 35.5398 77.8819 35.6676C77.6831 35.7931 77.528 35.9588 77.4167 36.1648C77.3078 36.3684 77.2522 36.5921 77.2498 36.8359V37.5923C77.2498 37.9096 77.3078 38.1818 77.4238 38.4091C77.5398 38.634 77.702 38.8068 77.9103 38.9276C78.1187 39.0459 78.3625 39.1051 78.6419 39.1051C78.8289 39.1051 78.9982 39.0791 79.1497 39.027C79.3012 38.9725 79.4326 38.8932 79.5439 38.7891C79.6551 38.6849 79.7392 38.5559 79.796 38.402L80.9963 38.5369C80.9205 38.8542 80.7761 39.1312 80.563 39.3679C80.3523 39.6023 80.0824 39.7846 79.7534 39.9148C79.4243 40.0426 79.0479 40.1065 78.6241 40.1065ZM82.1371 40V34.5455H83.3835V35.4545H83.4403C83.5398 35.1397 83.7102 34.897 83.9517 34.7266C84.1955 34.5537 84.4737 34.4673 84.7862 34.4673C84.8572 34.4673 84.9366 34.4709 85.0241 34.478C85.1141 34.4827 85.1887 34.491 85.2479 34.5028V35.6854C85.1934 35.6664 85.107 35.6499 84.9886 35.6357C84.8726 35.6191 84.7602 35.6108 84.6513 35.6108C84.4169 35.6108 84.2062 35.6617 84.0192 35.7635C83.8345 35.8629 83.6889 36.0014 83.5824 36.179C83.4759 36.3565 83.4226 36.5613 83.4226 36.7933V40H82.1371ZM87.5739 40.1101C87.2282 40.1101 86.9169 40.0485 86.6399 39.9254C86.3653 39.8 86.1475 39.6153 85.9865 39.3714C85.8279 39.1276 85.7486 38.8269 85.7486 38.4695C85.7486 38.1617 85.8054 37.9072 85.919 37.706C86.0327 37.5047 86.1877 37.3438 86.3842 37.223C86.5807 37.1023 86.8021 37.0111 87.0483 36.9496C87.2969 36.8857 87.5537 36.8395 87.8189 36.8111C88.1385 36.7779 88.3977 36.7483 88.5966 36.7223C88.7955 36.6939 88.9399 36.6513 89.0298 36.5945C89.1222 36.5353 89.1683 36.4441 89.1683 36.321V36.2997C89.1683 36.0322 89.089 35.825 88.9304 35.6783C88.7718 35.5315 88.5433 35.4581 88.245 35.4581C87.9302 35.4581 87.6804 35.5268 87.4957 35.6641C87.3134 35.8014 87.1903 35.9635 87.1264 36.1506L85.9261 35.9801C86.0208 35.6487 86.1771 35.3717 86.3949 35.1491C86.6127 34.9242 86.879 34.7562 87.1939 34.6449C87.5088 34.5312 87.8568 34.4744 88.2379 34.4744C88.5007 34.4744 88.7623 34.5052 89.0227 34.5668C89.2831 34.6283 89.5211 34.7301 89.7365 34.8722C89.9519 35.0118 90.1248 35.2024 90.255 35.4439C90.3875 35.6854 90.4538 35.9872 90.4538 36.3494V40H89.218V39.2507H89.1754C89.0973 39.4022 88.9872 39.5443 88.8452 39.6768C88.7055 39.8071 88.5291 39.9124 88.3161 39.9929C88.1054 40.071 87.858 40.1101 87.5739 40.1101ZM87.9077 39.1655C88.1657 39.1655 88.3894 39.1146 88.5788 39.0128C88.7682 38.9086 88.9138 38.7713 89.0156 38.6009C89.1198 38.4304 89.1719 38.2446 89.1719 38.0433V37.4006C89.1316 37.4337 89.063 37.4645 88.9659 37.4929C88.8712 37.5213 88.7647 37.5462 88.6463 37.5675C88.5279 37.5888 88.4107 37.6077 88.2947 37.6243C88.1787 37.6409 88.0781 37.6551 87.9929 37.6669C87.8011 37.6929 87.6295 37.7356 87.478 37.7947C87.3265 37.8539 87.2069 37.9368 87.1193 38.0433C87.0317 38.1475 86.9879 38.2824 86.9879 38.4482C86.9879 38.6849 87.0743 38.8636 87.2472 38.9844C87.42 39.1051 87.6402 39.1655 87.9077 39.1655ZM91.7464 40V34.5455H92.9929V35.4545H93.0497C93.1491 35.1397 93.3196 34.897 93.5611 34.7266C93.8049 34.5537 94.0831 34.4673 94.3956 34.4673C94.4666 34.4673 94.5459 34.4709 94.6335 34.478C94.7235 34.4827 94.7981 34.491 94.8572 34.5028V35.6854C94.8028 35.6664 94.7164 35.6499 94.598 35.6357C94.482 35.6191 94.3696 35.6108 94.2607 35.6108C94.0263 35.6108 93.8156 35.6617 93.6286 35.7635C93.4439 35.8629 93.2983 36.0014 93.1918 36.179C93.0852 36.3565 93.032 36.5613 93.032 36.7933V40H91.7464Z" fill="white"/>
<mask id="mask0_662_761" style="mask-type:luminance" maskUnits="userSpaceOnUse" x="66" y="45" width="16" height="17">
<path d="M82 45H66V62H82V45Z" fill="white"/>
</mask>
<g mask="url(#mask0_662_761)">
<path fill-rule="evenodd" clip-rule="evenodd" d="M69.331 57.3791C69.047 57.0201 68.702 56.2861 68.088 55.3951C67.74 54.8911 66.877 53.9421 66.62 53.4601C66.397 53.0341 66.421 52.8431 66.474 52.4901C66.568 51.8621 67.212 51.3731 67.899 51.4391C68.418 51.4881 68.858 51.8311 69.254 52.1551C69.493 52.3501 69.787 52.7291 69.964 52.9431C70.127 53.1391 70.167 53.2201 70.341 53.4521C70.571 53.7591 70.643 53.9111 70.555 53.5731C70.484 53.0771 70.368 52.2301 70.2 51.4811C70.072 50.9131 70.041 50.8241 69.919 50.3881C69.79 49.9241 69.724 49.5991 69.603 49.1071C69.519 48.7591 69.368 48.0481 69.327 47.6481C69.27 47.1011 69.24 46.2091 69.591 45.7991C69.866 45.4781 70.497 45.3811 70.888 45.5791C71.4 45.8381 71.691 46.5821 71.824 46.8791C72.063 47.4131 72.211 48.0301 72.34 48.8401C72.504 49.8711 72.806 51.3021 72.816 51.6031C72.84 51.2341 72.748 50.4571 72.812 50.1031C72.87 49.7821 73.14 49.4091 73.478 49.3081C73.764 49.2231 74.099 49.1921 74.394 49.2531C74.707 49.3171 75.037 49.5411 75.16 49.7521C75.522 50.3761 75.529 51.6511 75.544 51.5831C75.63 51.2071 75.615 50.3541 75.828 49.9991C75.968 49.7651 76.325 49.5541 76.515 49.5201C76.809 49.4681 77.17 49.4521 77.479 49.5121C77.728 49.5611 78.065 49.8571 78.156 49.9991C78.374 50.3431 78.498 51.3161 78.535 51.6571C78.55 51.7981 78.609 51.2651 78.828 50.9211C79.234 50.2821 80.671 50.1581 80.726 51.5601C80.751 52.2141 80.746 52.1841 80.746 52.6241C80.746 53.1411 80.734 53.4521 80.706 53.8261C80.675 54.2261 80.589 55.1301 80.464 55.5681C80.378 55.8691 80.093 56.5461 79.812 56.9521C79.812 56.9521 78.738 58.2021 78.621 58.7651C78.503 59.3271 78.542 59.3311 78.519 59.7301C78.496 60.1281 78.64 60.6521 78.64 60.6521C78.64 60.6521 77.838 60.7561 77.406 60.6871C77.015 60.6241 76.531 59.8461 76.406 59.6081C76.234 59.2801 75.867 59.3431 75.724 59.5851C75.499 59.9681 75.015 60.6551 74.673 60.6981C74.005 60.7821 72.619 60.7291 71.534 60.7181C71.534 60.7181 71.719 59.7071 71.307 59.3601C71.002 59.1011 70.477 58.5761 70.163 58.3001L69.331 57.3791Z" fill="white"/>
<path fill-rule="evenodd" clip-rule="evenodd" d="M69.331 57.3791C69.047 57.0201 68.702 56.2861 68.088 55.3951C67.74 54.8911 66.877 53.9421 66.62 53.4601C66.397 53.0341 66.421 52.8431 66.474 52.4901C66.568 51.8621 67.212 51.3731 67.899 51.4391C68.418 51.4881 68.858 51.8311 69.254 52.1551C69.493 52.3501 69.787 52.7291 69.964 52.9431C70.127 53.1391 70.167 53.2201 70.341 53.4521C70.571 53.7591 70.643 53.9111 70.555 53.5731C70.484 53.0771 70.368 52.2301 70.2 51.4811C70.072 50.9131 70.041 50.8241 69.919 50.3881C69.79 49.9241 69.724 49.5991 69.603 49.1071C69.519 48.7591 69.368 48.0481 69.327 47.6481C69.27 47.1011 69.24 46.2091 69.591 45.7991C69.866 45.4781 70.497 45.3811 70.888 45.5791C71.4 45.8381 71.691 46.5821 71.824 46.8791C72.063 47.4131 72.211 48.0301 72.34 48.8401C72.504 49.8711 72.806 51.3021 72.816 51.6031C72.84 51.2341 72.748 50.4571 72.812 50.1031C72.87 49.7821 73.14 49.4091 73.478 49.3081C73.764 49.2231 74.099 49.1921 74.394 49.2531C74.707 49.3171 75.037 49.5411 75.16 49.7521C75.522 50.3761 75.529 51.6511 75.544 51.5831C75.63 51.2071 75.615 50.3541 75.828 49.9991C75.968 49.7651 76.325 49.5541 76.515 49.5201C76.809 49.4681 77.17 49.4521 77.479 49.5121C77.728 49.5611 78.065 49.8571 78.156 49.9991C78.374 50.3431 78.498 51.3161 78.535 51.6571C78.55 51.7981 78.609 51.2651 78.828 50.9211C79.234 50.2821 80.671 50.1581 80.726 51.5601C80.751 52.2141 80.746 52.1841 80.746 52.6241C80.746 53.1411 80.734 53.4521 80.706 53.8261C80.675 54.2261 80.589 55.1301 80.464 55.5681C80.378 55.8691 80.093 56.5461 79.812 56.9521C79.812 56.9521 78.738 58.2021 78.621 58.7651C78.503 59.3271 78.542 59.3311 78.519 59.7301C78.496 60.1281 78.64 60.6521 78.64 60.6521C78.64 60.6521 77.838 60.7561 77.406 60.6871C77.015 60.6241 76.531 59.8461 76.406 59.6081C76.234 59.2801 75.867 59.3431 75.724 59.5851C75.499 59.9681 75.015 60.6551 74.673 60.6981C74.005 60.7821 72.619 60.7291 71.534 60.7181C71.534 60.7181 71.719 59.7071 71.307 59.3601C71.002 59.1011 70.477 58.5761 70.163 58.3001L69.331 57.3791Z" stroke="black" stroke-width="0.75" stroke-linecap="round" stroke-linejoin="round"/>
<path d="M77.566 57.7324V54.2734" stroke="black" stroke-width="0.75" stroke-linecap="round"/>
<path d="M75.551 57.7464L75.535 54.2734" stroke="black" stroke-width="0.75" stroke-linecap="round"/>
<path d="M73.5551 54.3047L73.576 57.7307" stroke="black" stroke-width="0.75" stroke-linecap="round"/>
</g>
</svg>
