<svg width="148" height="26" viewBox="0 0 148 26" fill="none" xmlns="http://www.w3.org/2000/svg">
<g clip-path="url(#clip0_359_2998)">
<path d="M39.8161 12.9908L34.6977 7.86169L37.2555 2.73438L45.5719 11.0681C46.6315 12.13 46.6315 13.8516 45.5719 14.9134L35.336 25.1707C34.2764 26.2325 32.5584 26.2325 31.4988 25.1707C30.4392 24.1089 30.4392 22.3873 31.4988 21.3254L39.8161 12.9908Z" fill="#959595"/>
<path d="M31.5005 0.80104C32.5602 -0.2608 34.2786 -0.260354 35.3382 0.801485L37.2573 2.72456L14.8678 25.1609C13.8082 26.2227 12.0898 26.2223 11.0301 25.1604L9.11108 23.2374L31.5005 0.80104ZM21.9048 7.85276L18.0667 11.6989L12.9483 6.56982L6.55056 12.981L11.6689 18.1101L9.11108 23.2374L0.794716 14.9036C-0.264905 13.8418 -0.264905 12.1202 0.794716 11.0583L11.0301 0.801485C12.0898 -0.260354 13.8082 -0.2608 14.8678 0.80104L21.9048 7.85276Z" fill="black"/>
<path fill-rule="evenodd" clip-rule="evenodd" d="M57.7613 8.80875V17.5207H62.5466L63.5609 20.4246H57.7613C56.1629 20.4246 54.8672 19.1245 54.8672 17.5207V8.80875C54.8672 7.20493 56.1629 5.90478 57.7613 5.90478H62.5466V8.80875H63.5609V3.00081C63.5609 2.1989 64.2096 1.54883 65.0098 1.54883H66.4588V18.9726C66.4588 19.7746 65.8101 20.4246 65.0098 20.4246H63.5609V8.80875H57.7613ZM72.2508 20.4247C70.6524 20.4247 69.3567 19.1245 69.3567 17.5207V14.6167C69.3567 13.0129 70.6524 11.7127 72.2508 11.7127H77.0361V14.6167H78.0504V8.80875H70.0802V7.35677C70.0802 6.55486 70.7281 5.90478 71.5273 5.90478H78.0504C79.6509 5.90478 80.9483 7.20493 80.9483 8.80875V18.9727C80.9483 19.7746 80.2996 20.4247 79.4994 20.4247H78.0504V14.6167H72.2508V17.5207H77.0361L78.0504 20.4247C74.4779 20.4247 72.5447 20.4247 72.2508 20.4247ZM83.8462 20.4246V7.35677C83.8462 6.55486 84.4941 5.90478 85.2932 5.90478H86.7403V18.9726C86.7403 19.7746 86.0924 20.4246 85.2932 20.4246H83.8462ZM86.7403 3.0103C86.7403 3.41522 86.6016 3.75686 86.3241 4.03523C86.0467 4.31361 85.7062 4.4528 85.3027 4.4528C84.8992 4.4528 84.5555 4.31361 84.2718 4.03523C83.9881 3.75686 83.8462 3.41522 83.8462 3.0103C83.8462 2.59274 83.9881 2.24477 84.2718 1.96639C84.5555 1.68801 84.8992 1.54883 85.3027 1.54883C85.7062 1.54883 86.0467 1.68801 86.3241 1.96639C86.6016 2.24477 86.7403 2.59274 86.7403 3.0103ZM89.642 20.4246V3.00081C89.642 2.1989 90.2899 1.54883 91.0891 1.54883H92.5361V18.9726C92.5361 19.7746 91.8882 20.4246 91.0891 20.4246H89.642ZM99.4077 20.4305L95.5005 8.14236C95.2669 7.37549 95.7071 6.56376 96.4713 6.3293L97.8478 5.90478L101.036 16.3408L103.904 6.93263C104.138 6.16576 104.937 5.73416 105.701 5.96861L107.029 6.39313L102.108 22.7251C101.736 23.946 100.613 24.7799 99.3403 24.7801L96.9478 24.7806C96.1486 24.7806 95.5006 24.1307 95.5005 23.3288L95.5007 21.8766H97.9058C98.7027 21.8766 99.4045 21.2301 99.4077 20.4305Z" fill="black"/>
<path opacity="0.56" d="M111.75 20.6136V18.5619H109.646V20.6136H111.75ZM118.046 20.7479C119.066 20.7479 119.931 20.4922 120.639 19.9808C121.347 19.4695 121.841 18.7856 122.122 17.9291V20.6136H123.863V6.42383H122.122V12.7709C121.841 11.9144 121.347 11.2305 120.639 10.7191C119.931 10.2078 119.066 9.9521 118.046 9.9521C117.115 9.9521 116.285 10.1694 115.558 10.6041C114.831 11.0387 114.26 11.6651 113.846 12.4833C113.431 13.3014 113.224 14.2602 113.224 15.3596C113.224 16.459 113.431 17.4145 113.846 18.2263C114.26 19.0381 114.831 19.6613 115.558 20.0959C116.285 20.5305 117.115 20.7479 118.046 20.7479ZM118.543 19.2138C117.472 19.2138 116.614 18.8719 115.97 18.1879C115.326 17.504 115.003 16.5612 115.003 15.3596C115.003 14.1579 115.326 13.2151 115.97 12.5312C116.614 11.8473 117.472 11.5053 118.543 11.5053C119.232 11.5053 119.848 11.6619 120.39 11.9751C120.932 12.2883 121.356 12.7389 121.663 13.327C121.969 13.915 122.122 14.5926 122.122 15.3596C122.122 16.1266 121.969 16.8009 121.663 17.3826C121.356 17.9642 120.932 18.4149 120.39 18.7344C119.848 19.054 119.232 19.2138 118.543 19.2138ZM131.288 20.7479C132.168 20.7479 132.959 20.5881 133.66 20.2685C134.362 19.9489 134.933 19.5015 135.373 18.9262C135.813 18.3509 136.097 17.699 136.225 16.9703H134.368C134.241 17.6862 133.893 18.2583 133.326 18.6865C132.758 19.1148 132.053 19.3289 131.211 19.3289C130.28 19.3289 129.492 19.0285 128.848 18.4276C128.204 17.8268 127.862 16.9256 127.824 15.7239H136.225C136.276 15.4554 136.301 15.1359 136.301 14.7651C136.301 13.8831 136.1 13.0777 135.698 12.349C135.296 11.6204 134.716 11.0387 133.957 10.6041C133.198 10.1694 132.308 9.9521 131.288 9.9521C130.28 9.9521 129.387 10.1694 128.609 10.6041C127.83 11.0387 127.221 11.6651 126.781 12.4833C126.341 13.3014 126.121 14.2602 126.121 15.3596C126.121 16.459 126.341 17.4145 126.781 18.2263C127.221 19.0381 127.83 19.6613 128.609 20.0959C129.387 20.5305 130.28 20.7479 131.288 20.7479ZM134.541 14.8802H127.824C127.875 13.7297 128.226 12.8572 128.877 12.2627C129.527 11.6683 130.331 11.3711 131.288 11.3711C131.887 11.3711 132.442 11.4989 132.952 11.7546C133.463 12.0103 133.864 12.4002 134.158 12.9243C134.451 13.4484 134.579 14.1004 134.541 14.8802ZM143.668 20.6136L147.782 10.0863H145.907L142.654 18.7536L139.363 10.0863H137.487L141.602 20.6136H143.668Z" fill="#7D7D7D"/>
</g>
<defs>
<clipPath id="clip0_359_2998">
<rect width="148" height="26" fill="white"/>
</clipPath>
</defs>
</svg>
