<svg width="343" height="173" viewBox="0 0 343 173" fill="none" xmlns="http://www.w3.org/2000/svg">
<mask id="mask0_784_777" style="mask-type:alpha" maskUnits="userSpaceOnUse" x="0" y="2" width="343" height="171">
<path fill-rule="evenodd" clip-rule="evenodd" d="M323 2C334.046 2 343 10.9543 343 22V68C331.954 68 323 76.9543 323 88C323 99.0457 331.954 108 343 108V153C343 164.046 334.046 173 323 173H20C8.95431 173 8.05374e-08 164.046 0 153V108C10.3707 108 18.8969 100.107 19.9004 90H23V86H19.9004C18.8969 75.8934 10.3707 68 0 68V22C0 10.9543 8.95431 2 20 2H323ZM31 86V90H39V86H31ZM47 86V90H55V86H47ZM63 86V90H71V86H63ZM79 86V90H87V86H79ZM95 86V90H103V86H95ZM111 86V90H119V86H111ZM127 86V90H135V86H127ZM143 86V90H151V86H143ZM159 86V90H167V86H159ZM175 86V90H183V86H175ZM191 86V90H199V86H191ZM207 86V90H215V86H207ZM223 86V90H231V86H223ZM239 86V90H247V86H239ZM255 86V90H263V86H255ZM271 86V90H279V86H271ZM287 86V90H295V86H287ZM303 86V90H311V86H303ZM319 86V90H323V86H319Z" fill="#126AE4"/>
</mask>
<g mask="url(#mask0_784_777)">
<rect y="-2" width="343" height="90" fill="#126AE4"/>
</g>
<rect x="15" y="16" width="40" height="40" rx="20" fill="#FAFAFA"/>
<g clip-path="url(#clip0_784_777)">
<path opacity="0.998" fill-rule="evenodd" clip-rule="evenodd" d="M36.1331 32.8893C33.7605 33.9544 31.3859 35.0141 29.0092 36.0685C29.0062 33.5797 29.0092 31.0908 29.0182 28.602C29.0199 28.4563 29.0771 28.3382 29.1898 28.2477C30.6494 27.2501 32.1121 26.257 33.5779 25.2684C35.9977 25.2593 40.8373 25.2593 40.8373 25.2593C40.8373 25.2593 40.8373 28.7958 40.8283 30.564C40.8055 30.7341 40.7181 30.8582 40.5664 30.9364C39.1037 31.5813 37.5958 32.2444 36.1331 32.8893Z" fill="#1C1C1C"/>
<path fill-rule="evenodd" clip-rule="evenodd" d="M36.1602 33.7612C37.4062 34.4757 38.6522 35.1903 39.8983 35.9049C39.8777 35.94 39.8475 35.9672 39.808 35.9866C37.48 37.2529 35.1535 38.5216 32.8285 39.7925C32.8213 39.7884 32.8183 39.7823 32.8195 39.7744C32.8255 39.4895 32.8194 39.2049 32.8014 38.9205C31.6156 38.2938 30.4298 37.667 29.2439 37.0403C29.1182 36.9559 29.043 36.8378 29.0182 36.686C29.0092 36.4802 29.0062 36.2743 29.0092 36.0684C31.3859 35.014 33.7605 33.9542 36.1331 32.8892C36.1362 33.183 36.1452 33.4736 36.1602 33.7612Z" fill="url(#paint0_radial_784_777)"/>
<path opacity="0.998" fill-rule="evenodd" clip-rule="evenodd" d="M39.8981 35.9048C40.1423 36.0502 40.3891 36.1925 40.6385 36.3317C40.7476 36.4173 40.8108 36.5293 40.8281 36.6678C40.8402 39.2535 40.8402 41.8393 40.8281 44.425C40.8193 44.5729 40.756 44.691 40.6385 44.7793C39.0012 45.5968 37.3639 46.4143 35.7267 47.2318C33.4875 47.2409 29.009 47.2409 29.009 47.2409C29.009 47.2409 29.009 43.8618 29.0181 42.1723C29.0207 42.0186 29.09 41.9066 29.2257 41.8362C30.4246 41.1484 31.6224 40.4612 32.8193 39.7743C32.8181 39.7823 32.8211 39.7883 32.8283 39.7925C35.1534 38.5215 37.4799 37.2529 39.8078 35.9865C39.8474 35.9672 39.8775 35.9399 39.8981 35.9048Z" fill="#1C1C1C"/>
</g>
<path d="M73.4814 22.3755H71.0122V21.3789H73.4814C73.9596 21.3789 74.3468 21.3027 74.6431 21.1504C74.9393 20.998 75.1551 20.7865 75.2905 20.5156C75.4302 20.2448 75.5 19.9359 75.5 19.5889C75.5 19.2715 75.4302 18.9731 75.2905 18.6938C75.1551 18.4146 74.9393 18.1903 74.6431 18.021C74.3468 17.8475 73.9596 17.7607 73.4814 17.7607H71.2979V26H70.0728V16.7578H73.4814C74.1797 16.7578 74.77 16.8784 75.2524 17.1196C75.7349 17.3608 76.1009 17.6951 76.3506 18.1226C76.6003 18.5457 76.7251 19.0303 76.7251 19.5762C76.7251 20.1686 76.6003 20.6743 76.3506 21.0933C76.1009 21.5122 75.7349 21.8317 75.2524 22.0518C74.77 22.2676 74.1797 22.3755 73.4814 22.3755ZM77.6963 22.6421V22.4961C77.6963 22.001 77.7682 21.5418 77.9121 21.1187C78.056 20.6912 78.2633 20.321 78.5342 20.0078C78.805 19.6904 79.133 19.445 79.5181 19.2715C79.9032 19.0938 80.3348 19.0049 80.813 19.0049C81.2954 19.0049 81.7292 19.0938 82.1143 19.2715C82.5036 19.445 82.8337 19.6904 83.1045 20.0078C83.3796 20.321 83.589 20.6912 83.7329 21.1187C83.8768 21.5418 83.9487 22.001 83.9487 22.4961V22.6421C83.9487 23.1372 83.8768 23.5964 83.7329 24.0195C83.589 24.4427 83.3796 24.813 83.1045 25.1304C82.8337 25.4435 82.5057 25.689 82.1206 25.8667C81.7397 26.0402 81.3081 26.127 80.8257 26.127C80.3433 26.127 79.9095 26.0402 79.5244 25.8667C79.1393 25.689 78.8092 25.4435 78.5342 25.1304C78.2633 24.813 78.056 24.4427 77.9121 24.0195C77.7682 23.5964 77.6963 23.1372 77.6963 22.6421ZM78.8706 22.4961V22.6421C78.8706 22.9849 78.9108 23.3086 78.9912 23.6133C79.0716 23.9137 79.1922 24.1803 79.353 24.4131C79.5181 24.6458 79.7233 24.8299 79.9688 24.9653C80.2142 25.0965 80.4998 25.1621 80.8257 25.1621C81.1473 25.1621 81.4287 25.0965 81.6699 24.9653C81.9154 24.8299 82.1185 24.6458 82.2793 24.4131C82.4401 24.1803 82.5607 23.9137 82.6411 23.6133C82.7257 23.3086 82.7681 22.9849 82.7681 22.6421V22.4961C82.7681 22.1576 82.7257 21.8381 82.6411 21.5376C82.5607 21.2329 82.438 20.9642 82.2729 20.7314C82.1121 20.4945 81.909 20.3083 81.6636 20.1729C81.4224 20.0374 81.1388 19.9697 80.813 19.9697C80.4914 19.9697 80.2078 20.0374 79.9624 20.1729C79.7212 20.3083 79.5181 20.4945 79.353 20.7314C79.1922 20.9642 79.0716 21.2329 78.9912 21.5376C78.9108 21.8381 78.8706 22.1576 78.8706 22.4961ZM86.5957 20.2109V26H85.4214V19.1318H86.564L86.5957 20.2109ZM88.7412 19.0938L88.7349 20.1855C88.6375 20.1644 88.5444 20.1517 88.4556 20.1475C88.3709 20.139 88.2736 20.1348 88.1636 20.1348C87.8927 20.1348 87.6536 20.1771 87.4463 20.2617C87.2389 20.3464 87.0633 20.4648 86.9194 20.6172C86.7756 20.7695 86.6613 20.9515 86.5767 21.1631C86.4963 21.3704 86.4434 21.599 86.418 21.8486L86.0879 22.0391C86.0879 21.6243 86.1281 21.235 86.2085 20.8711C86.2931 20.5072 86.4222 20.1855 86.5957 19.9062C86.7692 19.6227 86.9893 19.4027 87.2559 19.2461C87.5267 19.0853 87.8483 19.0049 88.2207 19.0049C88.3053 19.0049 88.4027 19.0155 88.5127 19.0366C88.6227 19.0535 88.6989 19.0726 88.7412 19.0938ZM97.3804 24.667V16.25H98.561V26H97.4819L97.3804 24.667ZM92.7593 22.6421V22.5088C92.7593 21.984 92.8228 21.508 92.9497 21.0806C93.0809 20.6489 93.265 20.2786 93.502 19.9697C93.7432 19.6608 94.0288 19.4238 94.3589 19.2588C94.6932 19.0895 95.0656 19.0049 95.4761 19.0049C95.9077 19.0049 96.2843 19.0811 96.606 19.2334C96.9318 19.3815 97.2069 19.5994 97.4312 19.8872C97.6597 20.1707 97.8395 20.5135 97.9707 20.9155C98.1019 21.3175 98.1929 21.7725 98.2437 22.2803V22.8643C98.1971 23.3678 98.1061 23.8206 97.9707 24.2227C97.8395 24.6247 97.6597 24.9674 97.4312 25.251C97.2069 25.5345 96.9318 25.7524 96.606 25.9048C96.2801 26.0529 95.8993 26.127 95.4634 26.127C95.0614 26.127 94.6932 26.0402 94.3589 25.8667C94.0288 25.6932 93.7432 25.4499 93.502 25.1367C93.265 24.8236 93.0809 24.4554 92.9497 24.0322C92.8228 23.6048 92.7593 23.1414 92.7593 22.6421ZM93.9399 22.5088V22.6421C93.9399 22.9849 93.9738 23.3065 94.0415 23.6069C94.1134 23.9074 94.2235 24.1719 94.3716 24.4004C94.5197 24.6289 94.708 24.8088 94.9365 24.9399C95.165 25.0669 95.438 25.1304 95.7554 25.1304C96.1447 25.1304 96.4642 25.0479 96.7139 24.8828C96.9678 24.7178 97.1709 24.4998 97.3232 24.229C97.4756 23.9582 97.5941 23.6641 97.6787 23.3467V21.8169C97.6279 21.5841 97.5539 21.3599 97.4565 21.144C97.3634 20.924 97.2407 20.7293 97.0884 20.5601C96.9403 20.3866 96.7562 20.249 96.5361 20.1475C96.3203 20.0459 96.0643 19.9951 95.7681 19.9951C95.4465 19.9951 95.1693 20.0628 94.9365 20.1982C94.708 20.3294 94.5197 20.5114 94.3716 20.7441C94.2235 20.9727 94.1134 21.2393 94.0415 21.5439C93.9738 21.8444 93.9399 22.166 93.9399 22.5088ZM100.078 22.6421V22.4961C100.078 22.001 100.15 21.5418 100.294 21.1187C100.438 20.6912 100.645 20.321 100.916 20.0078C101.187 19.6904 101.515 19.445 101.9 19.2715C102.285 19.0938 102.717 19.0049 103.195 19.0049C103.677 19.0049 104.111 19.0938 104.496 19.2715C104.885 19.445 105.215 19.6904 105.486 20.0078C105.761 20.321 105.971 20.6912 106.115 21.1187C106.259 21.5418 106.331 22.001 106.331 22.4961V22.6421C106.331 23.1372 106.259 23.5964 106.115 24.0195C105.971 24.4427 105.761 24.813 105.486 25.1304C105.215 25.4435 104.888 25.689 104.502 25.8667C104.122 26.0402 103.69 26.127 103.208 26.127C102.725 26.127 102.291 26.0402 101.906 25.8667C101.521 25.689 101.191 25.4435 100.916 25.1304C100.645 24.813 100.438 24.4427 100.294 24.0195C100.15 23.5964 100.078 23.1372 100.078 22.6421ZM101.252 22.4961V22.6421C101.252 22.9849 101.293 23.3086 101.373 23.6133C101.453 23.9137 101.574 24.1803 101.735 24.4131C101.9 24.6458 102.105 24.8299 102.351 24.9653C102.596 25.0965 102.882 25.1621 103.208 25.1621C103.529 25.1621 103.811 25.0965 104.052 24.9653C104.297 24.8299 104.5 24.6458 104.661 24.4131C104.822 24.1803 104.943 23.9137 105.023 23.6133C105.108 23.3086 105.15 22.9849 105.15 22.6421V22.4961C105.15 22.1576 105.108 21.8381 105.023 21.5376C104.943 21.2329 104.82 20.9642 104.655 20.7314C104.494 20.4945 104.291 20.3083 104.045 20.1729C103.804 20.0374 103.521 19.9697 103.195 19.9697C102.873 19.9697 102.59 20.0374 102.344 20.1729C102.103 20.3083 101.9 20.4945 101.735 20.7314C101.574 20.9642 101.453 21.2329 101.373 21.5376C101.293 21.8381 101.252 22.1576 101.252 22.4961ZM109.079 19.1318V26H107.898V19.1318H109.079ZM107.81 17.3101C107.81 17.1196 107.867 16.9588 107.981 16.8276C108.099 16.6965 108.273 16.6309 108.501 16.6309C108.726 16.6309 108.897 16.6965 109.016 16.8276C109.138 16.9588 109.2 17.1196 109.2 17.3101C109.2 17.492 109.138 17.6486 109.016 17.7798C108.897 17.9067 108.726 17.9702 108.501 17.9702C108.273 17.9702 108.099 17.9067 107.981 17.7798C107.867 17.6486 107.81 17.492 107.81 17.3101ZM114.963 24.1782C114.963 24.009 114.925 23.8524 114.849 23.7085C114.777 23.5604 114.627 23.4271 114.398 23.3086C114.174 23.1859 113.836 23.0801 113.383 22.9912C113.002 22.9108 112.657 22.8156 112.348 22.7056C112.043 22.5955 111.783 22.4622 111.567 22.3057C111.356 22.1491 111.193 21.965 111.079 21.7534C110.964 21.5418 110.907 21.2943 110.907 21.0107C110.907 20.7399 110.966 20.4839 111.085 20.2427C111.208 20.0015 111.379 19.7878 111.599 19.6016C111.823 19.4154 112.092 19.2694 112.405 19.1636C112.718 19.0578 113.068 19.0049 113.453 19.0049C114.003 19.0049 114.472 19.1022 114.862 19.2969C115.251 19.4915 115.549 19.7518 115.757 20.0776C115.964 20.3993 116.068 20.7568 116.068 21.1504H114.894C114.894 20.96 114.836 20.7759 114.722 20.5981C114.612 20.4162 114.449 20.266 114.233 20.1475C114.022 20.029 113.762 19.9697 113.453 19.9697C113.127 19.9697 112.862 20.0205 112.659 20.1221C112.46 20.2194 112.314 20.3442 112.221 20.4966C112.132 20.6489 112.088 20.8097 112.088 20.979C112.088 21.106 112.109 21.2202 112.151 21.3218C112.198 21.4191 112.278 21.5101 112.393 21.5947C112.507 21.6751 112.668 21.7513 112.875 21.8232C113.082 21.8952 113.347 21.9671 113.668 22.0391C114.231 22.166 114.695 22.3184 115.059 22.4961C115.423 22.6738 115.693 22.8918 115.871 23.1499C116.049 23.408 116.138 23.7212 116.138 24.0894C116.138 24.3898 116.074 24.6649 115.947 24.9146C115.825 25.1642 115.645 25.38 115.408 25.562C115.175 25.7397 114.896 25.8794 114.57 25.981C114.248 26.0783 113.886 26.127 113.484 26.127C112.879 26.127 112.367 26.019 111.948 25.8032C111.529 25.5874 111.212 25.3081 110.996 24.9653C110.78 24.6226 110.672 24.2607 110.672 23.8799H111.853C111.87 24.2015 111.963 24.4575 112.132 24.6479C112.302 24.8341 112.509 24.9674 112.754 25.0479C113 25.124 113.243 25.1621 113.484 25.1621C113.806 25.1621 114.075 25.1198 114.291 25.0352C114.511 24.9505 114.678 24.8341 114.792 24.686C114.906 24.5379 114.963 24.3687 114.963 24.1782ZM122.073 20.4966V26H120.892V19.1318H122.009L122.073 20.4966ZM121.832 22.3057L121.286 22.2866C121.29 21.8169 121.351 21.3831 121.47 20.9854C121.588 20.5833 121.764 20.2342 121.997 19.938C122.229 19.6418 122.519 19.4132 122.866 19.2524C123.213 19.0874 123.615 19.0049 124.072 19.0049C124.394 19.0049 124.69 19.0514 124.961 19.1445C125.232 19.2334 125.467 19.3752 125.666 19.5698C125.864 19.7645 126.019 20.0142 126.129 20.3188C126.239 20.6235 126.294 20.9917 126.294 21.4233V26H125.12V21.4805C125.12 21.1208 125.058 20.833 124.936 20.6172C124.817 20.4014 124.648 20.2448 124.428 20.1475C124.208 20.0459 123.95 19.9951 123.653 19.9951C123.306 19.9951 123.016 20.0565 122.784 20.1792C122.551 20.3019 122.365 20.4712 122.225 20.687C122.085 20.9028 121.984 21.1504 121.92 21.4297C121.861 21.7048 121.832 21.9967 121.832 22.3057ZM126.281 21.6582L125.494 21.8994C125.498 21.5228 125.56 21.161 125.678 20.814C125.801 20.467 125.977 20.158 126.205 19.8872C126.438 19.6164 126.723 19.4027 127.062 19.2461C127.401 19.0853 127.788 19.0049 128.224 19.0049C128.592 19.0049 128.918 19.0535 129.201 19.1509C129.489 19.2482 129.73 19.3984 129.925 19.6016C130.124 19.8005 130.274 20.0565 130.375 20.3696C130.477 20.6828 130.528 21.0552 130.528 21.4868V26H129.347V21.4741C129.347 21.089 129.286 20.7907 129.163 20.5791C129.045 20.3633 128.875 20.2131 128.655 20.1284C128.439 20.0396 128.181 19.9951 127.881 19.9951C127.623 19.9951 127.394 20.0396 127.195 20.1284C126.996 20.2173 126.829 20.34 126.694 20.4966C126.558 20.6489 126.455 20.8245 126.383 21.0234C126.315 21.2223 126.281 21.4339 126.281 21.6582ZM135.155 26.127C134.677 26.127 134.243 26.0465 133.854 25.8857C133.469 25.7207 133.137 25.4901 132.857 25.1938C132.582 24.8976 132.371 24.5464 132.223 24.1401C132.075 23.7339 132 23.2896 132 22.8071V22.5405C132 21.9819 132.083 21.4847 132.248 21.0488C132.413 20.6087 132.637 20.2363 132.921 19.9316C133.204 19.627 133.526 19.3963 133.886 19.2397C134.245 19.0832 134.618 19.0049 135.003 19.0049C135.494 19.0049 135.917 19.0895 136.272 19.2588C136.632 19.4281 136.926 19.665 137.155 19.9697C137.383 20.2702 137.553 20.6257 137.663 21.0361C137.773 21.4424 137.828 21.8867 137.828 22.3691V22.896H132.699V21.9375H136.653V21.8486C136.636 21.5439 136.573 21.2477 136.463 20.96C136.357 20.6722 136.188 20.4352 135.955 20.249C135.722 20.0628 135.405 19.9697 135.003 19.9697C134.736 19.9697 134.491 20.0269 134.267 20.1411C134.042 20.2511 133.85 20.4162 133.689 20.6362C133.528 20.8563 133.403 21.125 133.314 21.4424C133.226 21.7598 133.181 22.1258 133.181 22.5405V22.8071C133.181 23.133 133.226 23.4398 133.314 23.7275C133.408 24.0111 133.541 24.2607 133.714 24.4766C133.892 24.6924 134.106 24.8617 134.355 24.9844C134.609 25.1071 134.897 25.1685 135.219 25.1685C135.633 25.1685 135.985 25.0838 136.272 24.9146C136.56 24.7453 136.812 24.5189 137.028 24.2354L137.739 24.8003C137.591 25.0246 137.402 25.2383 137.174 25.4414C136.945 25.6445 136.664 25.8096 136.33 25.9365C136 26.0635 135.608 26.127 135.155 26.127ZM143.198 24.1782C143.198 24.009 143.16 23.8524 143.083 23.7085C143.012 23.5604 142.861 23.4271 142.633 23.3086C142.409 23.1859 142.07 23.0801 141.617 22.9912C141.236 22.9108 140.891 22.8156 140.583 22.7056C140.278 22.5955 140.018 22.4622 139.802 22.3057C139.59 22.1491 139.427 21.965 139.313 21.7534C139.199 21.5418 139.142 21.2943 139.142 21.0107C139.142 20.7399 139.201 20.4839 139.319 20.2427C139.442 20.0015 139.613 19.7878 139.833 19.6016C140.058 19.4154 140.326 19.2694 140.64 19.1636C140.953 19.0578 141.302 19.0049 141.687 19.0049C142.237 19.0049 142.707 19.1022 143.096 19.2969C143.486 19.4915 143.784 19.7518 143.991 20.0776C144.199 20.3993 144.302 20.7568 144.302 21.1504H143.128C143.128 20.96 143.071 20.7759 142.957 20.5981C142.847 20.4162 142.684 20.266 142.468 20.1475C142.256 20.029 141.996 19.9697 141.687 19.9697C141.361 19.9697 141.097 20.0205 140.894 20.1221C140.695 20.2194 140.549 20.3442 140.456 20.4966C140.367 20.6489 140.322 20.8097 140.322 20.979C140.322 21.106 140.343 21.2202 140.386 21.3218C140.432 21.4191 140.513 21.5101 140.627 21.5947C140.741 21.6751 140.902 21.7513 141.109 21.8232C141.317 21.8952 141.581 21.9671 141.903 22.0391C142.466 22.166 142.929 22.3184 143.293 22.4961C143.657 22.6738 143.928 22.8918 144.105 23.1499C144.283 23.408 144.372 23.7212 144.372 24.0894C144.372 24.3898 144.309 24.6649 144.182 24.9146C144.059 25.1642 143.879 25.38 143.642 25.562C143.409 25.7397 143.13 25.8794 142.804 25.981C142.483 26.0783 142.121 26.127 141.719 26.127C141.114 26.127 140.602 26.019 140.183 25.8032C139.764 25.5874 139.446 25.3081 139.23 24.9653C139.015 24.6226 138.907 24.2607 138.907 23.8799H140.087C140.104 24.2015 140.197 24.4575 140.367 24.6479C140.536 24.8341 140.743 24.9674 140.989 25.0479C141.234 25.124 141.478 25.1621 141.719 25.1621C142.04 25.1621 142.309 25.1198 142.525 25.0352C142.745 24.9505 142.912 24.8341 143.026 24.686C143.141 24.5379 143.198 24.3687 143.198 24.1782ZM148.765 26.127C148.286 26.127 147.853 26.0465 147.463 25.8857C147.078 25.7207 146.746 25.4901 146.467 25.1938C146.192 24.8976 145.98 24.5464 145.832 24.1401C145.684 23.7339 145.61 23.2896 145.61 22.8071V22.5405C145.61 21.9819 145.692 21.4847 145.857 21.0488C146.022 20.6087 146.247 20.2363 146.53 19.9316C146.814 19.627 147.135 19.3963 147.495 19.2397C147.855 19.0832 148.227 19.0049 148.612 19.0049C149.103 19.0049 149.526 19.0895 149.882 19.2588C150.242 19.4281 150.536 19.665 150.764 19.9697C150.993 20.2702 151.162 20.6257 151.272 21.0361C151.382 21.4424 151.437 21.8867 151.437 22.3691V22.896H146.308V21.9375H150.263V21.8486C150.246 21.5439 150.182 21.2477 150.072 20.96C149.966 20.6722 149.797 20.4352 149.564 20.249C149.332 20.0628 149.014 19.9697 148.612 19.9697C148.346 19.9697 148.1 20.0269 147.876 20.1411C147.652 20.2511 147.459 20.4162 147.298 20.6362C147.138 20.8563 147.013 21.125 146.924 21.4424C146.835 21.7598 146.791 22.1258 146.791 22.5405V22.8071C146.791 23.133 146.835 23.4398 146.924 23.7275C147.017 24.0111 147.15 24.2607 147.324 24.4766C147.501 24.6924 147.715 24.8617 147.965 24.9844C148.219 25.1071 148.507 25.1685 148.828 25.1685C149.243 25.1685 149.594 25.0838 149.882 24.9146C150.17 24.7453 150.421 24.5189 150.637 24.2354L151.348 24.8003C151.2 25.0246 151.012 25.2383 150.783 25.4414C150.555 25.6445 150.273 25.8096 149.939 25.9365C149.609 26.0635 149.217 26.127 148.765 26.127ZM156.807 24.1782C156.807 24.009 156.769 23.8524 156.693 23.7085C156.621 23.5604 156.471 23.4271 156.242 23.3086C156.018 23.1859 155.679 23.0801 155.227 22.9912C154.846 22.9108 154.501 22.8156 154.192 22.7056C153.887 22.5955 153.627 22.4622 153.411 22.3057C153.2 22.1491 153.037 21.965 152.922 21.7534C152.808 21.5418 152.751 21.2943 152.751 21.0107C152.751 20.7399 152.81 20.4839 152.929 20.2427C153.051 20.0015 153.223 19.7878 153.443 19.6016C153.667 19.4154 153.936 19.2694 154.249 19.1636C154.562 19.0578 154.911 19.0049 155.296 19.0049C155.847 19.0049 156.316 19.1022 156.706 19.2969C157.095 19.4915 157.393 19.7518 157.601 20.0776C157.808 20.3993 157.912 20.7568 157.912 21.1504H156.737C156.737 20.96 156.68 20.7759 156.566 20.5981C156.456 20.4162 156.293 20.266 156.077 20.1475C155.866 20.029 155.605 19.9697 155.296 19.9697C154.971 19.9697 154.706 20.0205 154.503 20.1221C154.304 20.2194 154.158 20.3442 154.065 20.4966C153.976 20.6489 153.932 20.8097 153.932 20.979C153.932 21.106 153.953 21.2202 153.995 21.3218C154.042 21.4191 154.122 21.5101 154.236 21.5947C154.351 21.6751 154.511 21.7513 154.719 21.8232C154.926 21.8952 155.191 21.9671 155.512 22.0391C156.075 22.166 156.538 22.3184 156.902 22.4961C157.266 22.6738 157.537 22.8918 157.715 23.1499C157.893 23.408 157.981 23.7212 157.981 24.0894C157.981 24.3898 157.918 24.6649 157.791 24.9146C157.668 25.1642 157.488 25.38 157.251 25.562C157.019 25.7397 156.739 25.8794 156.414 25.981C156.092 26.0783 155.73 26.127 155.328 26.127C154.723 26.127 154.211 26.019 153.792 25.8032C153.373 25.5874 153.056 25.3081 152.84 24.9653C152.624 24.6226 152.516 24.2607 152.516 23.8799H153.697C153.714 24.2015 153.807 24.4575 153.976 24.6479C154.145 24.8341 154.353 24.9674 154.598 25.0479C154.844 25.124 155.087 25.1621 155.328 25.1621C155.65 25.1621 155.918 25.1198 156.134 25.0352C156.354 24.9505 156.521 24.8341 156.636 24.686C156.75 24.5379 156.807 24.3687 156.807 24.1782ZM164.107 21.6011L163.167 21.3599L163.631 16.7578H168.373V17.8433H164.627L164.348 20.3569C164.517 20.2596 164.731 20.1686 164.989 20.084C165.252 19.9993 165.552 19.957 165.891 19.957C166.318 19.957 166.701 20.0311 167.04 20.1792C167.378 20.3231 167.666 20.5304 167.903 20.8013C168.144 21.0721 168.328 21.3979 168.455 21.7788C168.582 22.1597 168.646 22.585 168.646 23.0547C168.646 23.499 168.584 23.9074 168.461 24.2798C168.343 24.6522 168.163 24.978 167.922 25.2573C167.681 25.5324 167.376 25.7461 167.008 25.8984C166.644 26.0508 166.214 26.127 165.719 26.127C165.347 26.127 164.993 26.0762 164.659 25.9746C164.329 25.8688 164.033 25.7101 163.771 25.4985C163.512 25.2827 163.301 25.0161 163.136 24.6987C162.975 24.3771 162.873 24.0005 162.831 23.5688H163.948C163.999 23.9159 164.101 24.2078 164.253 24.4448C164.405 24.6818 164.604 24.8617 164.85 24.9844C165.099 25.1029 165.389 25.1621 165.719 25.1621C165.999 25.1621 166.246 25.1134 166.462 25.0161C166.678 24.9188 166.86 24.7791 167.008 24.5972C167.156 24.4152 167.268 24.1951 167.344 23.937C167.425 23.6789 167.465 23.389 167.465 23.0674C167.465 22.7754 167.425 22.5046 167.344 22.2549C167.264 22.0052 167.143 21.7873 166.982 21.6011C166.826 21.4149 166.633 21.271 166.405 21.1694C166.176 21.0636 165.914 21.0107 165.618 21.0107C165.224 21.0107 164.926 21.0636 164.723 21.1694C164.524 21.2752 164.319 21.4191 164.107 21.6011ZM175.736 20.6426V22.0518C175.736 22.8092 175.668 23.4482 175.533 23.9688C175.397 24.4893 175.203 24.9082 174.949 25.2256C174.695 25.543 174.388 25.7736 174.028 25.9175C173.673 26.0571 173.271 26.127 172.822 26.127C172.467 26.127 172.139 26.0825 171.838 25.9937C171.538 25.9048 171.267 25.763 171.026 25.5684C170.789 25.3695 170.586 25.1113 170.417 24.7939C170.247 24.4766 170.118 24.0915 170.029 23.6387C169.94 23.1859 169.896 22.6569 169.896 22.0518V20.6426C169.896 19.8851 169.964 19.2503 170.099 18.7383C170.239 18.2262 170.436 17.8158 170.689 17.5068C170.943 17.1937 171.248 16.9694 171.604 16.834C171.963 16.6986 172.365 16.6309 172.81 16.6309C173.169 16.6309 173.499 16.6753 173.8 16.7642C174.104 16.8488 174.375 16.9863 174.612 17.1768C174.849 17.363 175.05 17.6126 175.215 17.9258C175.385 18.2347 175.514 18.6134 175.603 19.062C175.691 19.5106 175.736 20.0374 175.736 20.6426ZM174.555 22.2422V20.4458C174.555 20.0311 174.53 19.6672 174.479 19.354C174.432 19.0366 174.363 18.7658 174.27 18.5415C174.176 18.3172 174.058 18.1353 173.914 17.9956C173.774 17.856 173.611 17.7544 173.425 17.6909C173.243 17.6232 173.038 17.5894 172.81 17.5894C172.53 17.5894 172.283 17.6423 172.067 17.748C171.851 17.8496 171.669 18.0125 171.521 18.2368C171.377 18.4611 171.267 18.7552 171.191 19.1191C171.115 19.4831 171.077 19.9253 171.077 20.4458V22.2422C171.077 22.6569 171.1 23.0229 171.146 23.3403C171.197 23.6577 171.271 23.9328 171.369 24.1655C171.466 24.394 171.584 24.5824 171.724 24.7305C171.864 24.8786 172.025 24.9886 172.207 25.0605C172.393 25.1283 172.598 25.1621 172.822 25.1621C173.11 25.1621 173.362 25.1071 173.578 24.9971C173.793 24.887 173.973 24.7157 174.117 24.4829C174.265 24.2459 174.375 23.9434 174.447 23.5752C174.519 23.2028 174.555 22.7585 174.555 22.2422ZM177.145 19.0239V18.5352C177.145 18.1839 177.221 17.8644 177.374 17.5767C177.526 17.2889 177.744 17.0583 178.027 16.8848C178.311 16.7113 178.647 16.6245 179.037 16.6245C179.434 16.6245 179.773 16.7113 180.052 16.8848C180.336 17.0583 180.554 17.2889 180.706 17.5767C180.858 17.8644 180.935 18.1839 180.935 18.5352V19.0239C180.935 19.3667 180.858 19.682 180.706 19.9697C180.558 20.2575 180.342 20.4881 180.059 20.6616C179.779 20.8351 179.443 20.9219 179.049 20.9219C178.656 20.9219 178.315 20.8351 178.027 20.6616C177.744 20.4881 177.526 20.2575 177.374 19.9697C177.221 19.682 177.145 19.3667 177.145 19.0239ZM178.027 18.5352V19.0239C178.027 19.2186 178.063 19.4027 178.135 19.5762C178.211 19.7497 178.326 19.8914 178.478 20.0015C178.63 20.1073 178.821 20.1602 179.049 20.1602C179.278 20.1602 179.466 20.1073 179.614 20.0015C179.762 19.8914 179.872 19.7497 179.944 19.5762C180.016 19.4027 180.052 19.2186 180.052 19.0239V18.5352C180.052 18.3363 180.014 18.1501 179.938 17.9766C179.866 17.7988 179.754 17.6571 179.602 17.5513C179.453 17.4412 179.265 17.3862 179.037 17.3862C178.812 17.3862 178.624 17.4412 178.472 17.5513C178.324 17.6571 178.211 17.7988 178.135 17.9766C178.063 18.1501 178.027 18.3363 178.027 18.5352ZM181.646 24.229V23.7339C181.646 23.3869 181.722 23.0695 181.874 22.7817C182.026 22.494 182.244 22.2633 182.528 22.0898C182.811 21.9163 183.148 21.8296 183.537 21.8296C183.935 21.8296 184.273 21.9163 184.553 22.0898C184.836 22.2633 185.054 22.494 185.207 22.7817C185.359 23.0695 185.435 23.3869 185.435 23.7339V24.229C185.435 24.576 185.359 24.8934 185.207 25.1812C185.058 25.4689 184.843 25.6995 184.559 25.873C184.28 26.0465 183.943 26.1333 183.55 26.1333C183.156 26.1333 182.818 26.0465 182.534 25.873C182.251 25.6995 182.031 25.4689 181.874 25.1812C181.722 24.8934 181.646 24.576 181.646 24.229ZM182.528 23.7339V24.229C182.528 24.4237 182.564 24.6099 182.636 24.7876C182.712 24.9611 182.826 25.1029 182.979 25.2129C183.131 25.3187 183.321 25.3716 183.55 25.3716C183.778 25.3716 183.967 25.3187 184.115 25.2129C184.267 25.1029 184.379 24.9611 184.451 24.7876C184.523 24.6141 184.559 24.4279 184.559 24.229V23.7339C184.559 23.535 184.521 23.3488 184.445 23.1753C184.373 23.0018 184.261 22.8621 184.108 22.7563C183.96 22.6463 183.77 22.5913 183.537 22.5913C183.313 22.5913 183.125 22.6463 182.972 22.7563C182.824 22.8621 182.712 23.0018 182.636 23.1753C182.564 23.3488 182.528 23.535 182.528 23.7339ZM183.829 18.0718L179.316 25.2954L178.656 24.8765L183.169 17.6528L183.829 18.0718ZM189.809 22.6421V22.4961C189.809 22.001 189.881 21.5418 190.024 21.1187C190.168 20.6912 190.376 20.321 190.646 20.0078C190.917 19.6904 191.245 19.445 191.63 19.2715C192.015 19.0938 192.447 19.0049 192.925 19.0049C193.408 19.0049 193.841 19.0938 194.227 19.2715C194.616 19.445 194.946 19.6904 195.217 20.0078C195.492 20.321 195.701 20.6912 195.845 21.1187C195.989 21.5418 196.061 22.001 196.061 22.4961V22.6421C196.061 23.1372 195.989 23.5964 195.845 24.0195C195.701 24.4427 195.492 24.813 195.217 25.1304C194.946 25.4435 194.618 25.689 194.233 25.8667C193.852 26.0402 193.42 26.127 192.938 26.127C192.456 26.127 192.022 26.0402 191.637 25.8667C191.252 25.689 190.922 25.4435 190.646 25.1304C190.376 24.813 190.168 24.4427 190.024 24.0195C189.881 23.5964 189.809 23.1372 189.809 22.6421ZM190.983 22.4961V22.6421C190.983 22.9849 191.023 23.3086 191.104 23.6133C191.184 23.9137 191.305 24.1803 191.465 24.4131C191.63 24.6458 191.836 24.8299 192.081 24.9653C192.326 25.0965 192.612 25.1621 192.938 25.1621C193.26 25.1621 193.541 25.0965 193.782 24.9653C194.028 24.8299 194.231 24.6458 194.392 24.4131C194.552 24.1803 194.673 23.9137 194.753 23.6133C194.838 23.3086 194.88 22.9849 194.88 22.6421V22.4961C194.88 22.1576 194.838 21.8381 194.753 21.5376C194.673 21.2329 194.55 20.9642 194.385 20.7314C194.224 20.4945 194.021 20.3083 193.776 20.1729C193.535 20.0374 193.251 19.9697 192.925 19.9697C192.604 19.9697 192.32 20.0374 192.075 20.1729C191.833 20.3083 191.63 20.4945 191.465 20.7314C191.305 20.9642 191.184 21.2329 191.104 21.5376C191.023 21.8381 190.983 22.1576 190.983 22.4961ZM199.286 26H198.111V18.4082C198.111 17.9131 198.2 17.4963 198.378 17.1577C198.56 16.8149 198.82 16.5568 199.159 16.3833C199.497 16.2056 199.899 16.1167 200.365 16.1167C200.5 16.1167 200.636 16.1252 200.771 16.1421C200.911 16.159 201.046 16.1844 201.177 16.2183L201.114 17.1768C201.025 17.1556 200.923 17.1408 200.809 17.1323C200.699 17.1239 200.589 17.1196 200.479 17.1196C200.229 17.1196 200.014 17.1704 199.832 17.272C199.654 17.3693 199.518 17.5132 199.425 17.7036C199.332 17.894 199.286 18.1289 199.286 18.4082V26ZM200.746 19.1318V20.0332H197.026V19.1318H200.746ZM203.805 26H202.631V18.4082C202.631 17.9131 202.72 17.4963 202.897 17.1577C203.079 16.8149 203.34 16.5568 203.678 16.3833C204.017 16.2056 204.419 16.1167 204.884 16.1167C205.02 16.1167 205.155 16.1252 205.291 16.1421C205.43 16.159 205.566 16.1844 205.697 16.2183L205.633 17.1768C205.544 17.1556 205.443 17.1408 205.329 17.1323C205.219 17.1239 205.109 17.1196 204.999 17.1196C204.749 17.1196 204.533 17.1704 204.351 17.272C204.173 17.3693 204.038 17.5132 203.945 17.7036C203.852 17.894 203.805 18.1289 203.805 18.4082V26ZM205.265 19.1318V20.0332H201.545V19.1318H205.265ZM206.497 21.5059L207.772 19.7539L205.855 19.1826L206.154 18.2305L208.071 18.9351L208.014 16.7515H208.979L208.915 18.9731L210.807 18.2686L211.099 19.2397L209.15 19.8174L210.4 21.5376L209.613 22.1279L208.439 20.2998L207.29 22.0835L206.497 21.5059Z" fill="#EFEFEF"/>
<path d="M72.36 71V36.44H86.64C86.976 36.44 87.408 36.456 87.936 36.488C88.464 36.504 88.952 36.552 89.4 36.632C91.4 36.936 93.048 37.6 94.344 38.624C95.656 39.648 96.624 40.944 97.248 42.512C97.888 44.064 98.208 45.792 98.208 47.696C98.208 49.584 97.888 51.312 97.248 52.88C96.608 54.432 95.632 55.72 94.32 56.744C93.024 57.768 91.384 58.432 89.4 58.736C88.952 58.8 88.456 58.848 87.912 58.88C87.384 58.912 86.96 58.928 86.64 58.928H78.144V71H72.36ZM78.144 53.528H86.4C86.72 53.528 87.08 53.512 87.48 53.48C87.88 53.448 88.248 53.384 88.584 53.288C89.544 53.048 90.296 52.624 90.84 52.016C91.4 51.408 91.792 50.72 92.016 49.952C92.256 49.184 92.376 48.432 92.376 47.696C92.376 46.96 92.256 46.208 92.016 45.44C91.792 44.656 91.4 43.96 90.84 43.352C90.296 42.744 89.544 42.32 88.584 42.08C88.248 41.984 87.88 41.928 87.48 41.912C87.08 41.88 86.72 41.864 86.4 41.864H78.144V53.528ZM103.016 71V36.44H117.296C117.632 36.44 118.064 36.456 118.592 36.488C119.12 36.504 119.608 36.552 120.056 36.632C122.056 36.936 123.704 37.6 125 38.624C126.312 39.648 127.28 40.944 127.904 42.512C128.544 44.064 128.864 45.792 128.864 47.696C128.864 50.512 128.152 52.936 126.728 54.968C125.304 56.984 123.12 58.232 120.176 58.712L117.704 58.928H108.8V71H103.016ZM122.864 71L116.048 56.936L121.928 55.64L129.416 71H122.864ZM108.8 53.528H117.056C117.376 53.528 117.736 53.512 118.136 53.48C118.536 53.448 118.904 53.384 119.24 53.288C120.2 53.048 120.952 52.624 121.496 52.016C122.056 51.408 122.448 50.72 122.672 49.952C122.912 49.184 123.032 48.432 123.032 47.696C123.032 46.96 122.912 46.208 122.672 45.44C122.448 44.656 122.056 43.96 121.496 43.352C120.952 42.744 120.2 42.32 119.24 42.08C118.904 41.984 118.536 41.928 118.136 41.912C117.736 41.88 117.376 41.864 117.056 41.864H108.8V53.528ZM149.32 71.72C145.864 71.72 142.904 70.968 140.44 69.464C137.976 67.944 136.08 65.832 134.752 63.128C133.44 60.424 132.784 57.288 132.784 53.72C132.784 50.152 133.44 47.016 134.752 44.312C136.08 41.608 137.976 39.504 140.44 38C142.904 36.48 145.864 35.72 149.32 35.72C152.776 35.72 155.736 36.48 158.2 38C160.68 39.504 162.576 41.608 163.888 44.312C165.216 47.016 165.88 50.152 165.88 53.72C165.88 57.288 165.216 60.424 163.888 63.128C162.576 65.832 160.68 67.944 158.2 69.464C155.736 70.968 152.776 71.72 149.32 71.72ZM149.32 66.272C151.64 66.288 153.568 65.776 155.104 64.736C156.656 63.696 157.816 62.232 158.584 60.344C159.368 58.456 159.76 56.248 159.76 53.72C159.76 51.192 159.368 49 158.584 47.144C157.816 45.272 156.656 43.816 155.104 42.776C153.568 41.736 151.64 41.2 149.32 41.168C147 41.152 145.072 41.664 143.536 42.704C142 43.744 140.84 45.208 140.056 47.096C139.288 48.984 138.904 51.192 138.904 53.72C138.904 56.248 139.288 58.448 140.056 60.32C140.824 62.176 141.976 63.624 143.512 64.664C145.064 65.704 147 66.24 149.32 66.272ZM170.657 71V36.44H175.865L187.817 60.92L199.769 36.44H204.977V71H199.577V48.848L188.969 71H186.665L176.081 48.848V71H170.657ZM226.335 71.72C222.879 71.72 219.919 70.968 217.455 69.464C214.991 67.944 213.095 65.832 211.767 63.128C210.455 60.424 209.799 57.288 209.799 53.72C209.799 50.152 210.455 47.016 211.767 44.312C213.095 41.608 214.991 39.504 217.455 38C219.919 36.48 222.879 35.72 226.335 35.72C229.791 35.72 232.751 36.48 235.215 38C237.695 39.504 239.591 41.608 240.903 44.312C242.231 47.016 242.895 50.152 242.895 53.72C242.895 57.288 242.231 60.424 240.903 63.128C239.591 65.832 237.695 67.944 235.215 69.464C232.751 70.968 229.791 71.72 226.335 71.72ZM226.335 66.272C228.655 66.288 230.583 65.776 232.119 64.736C233.671 63.696 234.831 62.232 235.599 60.344C236.383 58.456 236.775 56.248 236.775 53.72C236.775 51.192 236.383 49 235.599 47.144C234.831 45.272 233.671 43.816 232.119 42.776C230.583 41.736 228.655 41.2 226.335 41.168C224.015 41.152 222.087 41.664 220.551 42.704C219.015 43.744 217.855 45.208 217.071 47.096C216.303 48.984 215.919 51.192 215.919 53.72C215.919 56.248 216.303 58.448 217.071 60.32C217.839 62.176 218.991 63.624 220.527 64.664C222.079 65.704 224.015 66.24 226.335 66.272ZM257.921 71.72C256.161 71.72 254.521 71.36 253.001 70.64C251.481 69.904 250.169 68.896 249.065 67.616C247.977 66.336 247.193 64.848 246.713 63.152L252.281 61.664C252.505 62.592 252.913 63.392 253.505 64.064C254.113 64.736 254.817 65.256 255.617 65.624C256.433 65.992 257.273 66.176 258.137 66.176C259.257 66.176 260.281 65.904 261.209 65.36C262.137 64.816 262.873 64.088 263.417 63.176C263.961 62.248 264.233 61.224 264.233 60.104C264.233 58.984 263.953 57.968 263.393 57.056C262.849 56.128 262.113 55.4 261.185 54.872C260.257 54.328 259.241 54.056 258.137 54.056C256.809 54.056 255.705 54.296 254.825 54.776C253.961 55.256 253.297 55.768 252.833 56.312L247.889 54.728L248.945 36.44H267.713V41.864H252.041L254.201 39.824L253.433 52.544L252.377 51.248C253.273 50.432 254.313 49.824 255.497 49.424C256.681 49.024 257.825 48.824 258.929 48.824C261.089 48.824 263.001 49.32 264.665 50.312C266.345 51.288 267.657 52.624 268.601 54.32C269.561 56.016 270.041 57.944 270.041 60.104C270.041 62.264 269.481 64.224 268.361 65.984C267.241 67.728 265.761 69.12 263.921 70.16C262.097 71.2 260.097 71.72 257.921 71.72ZM288.23 71.72C285.782 71.72 283.622 71.2 281.75 70.16C279.878 69.104 278.414 67.64 277.358 65.768C276.318 63.896 275.798 61.736 275.798 59.288V48.152C275.798 45.704 276.318 43.544 277.358 41.672C278.414 39.8 279.878 38.344 281.75 37.304C283.622 36.248 285.782 35.72 288.23 35.72C290.678 35.72 292.83 36.248 294.686 37.304C296.558 38.344 298.022 39.8 299.078 41.672C300.134 43.544 300.661 45.704 300.661 48.152V59.288C300.661 61.736 300.134 63.896 299.078 65.768C298.022 67.64 296.558 69.104 294.686 70.16C292.83 71.2 290.678 71.72 288.23 71.72ZM288.23 66.224C289.446 66.224 290.55 65.936 291.542 65.36C292.534 64.768 293.318 63.984 293.894 63.008C294.47 62.016 294.758 60.912 294.758 59.696V47.72C294.758 46.488 294.47 45.384 293.894 44.408C293.318 43.416 292.534 42.632 291.542 42.056C290.55 41.464 289.446 41.168 288.23 41.168C287.014 41.168 285.91 41.464 284.918 42.056C283.926 42.632 283.142 43.416 282.566 44.408C281.99 45.384 281.702 46.488 281.702 47.72V59.696C281.702 60.912 281.99 62.016 282.566 63.008C283.142 63.984 283.926 64.768 284.918 65.36C285.91 65.936 287.014 66.224 288.23 66.224Z" fill="#FAFAFA"/>
<defs>
<radialGradient id="paint0_radial_784_777" cx="0" cy="0" r="1" gradientUnits="userSpaceOnUse" gradientTransform="translate(34.6524 36.3499) rotate(67.5152) scale(2.99837 4.73832)">
<stop stop-color="#40BCFE"/>
<stop offset="1" stop-color="#1798DD"/>
</radialGradient>
<clipPath id="clip0_784_777">
<rect width="11.8462" height="22" fill="white" transform="translate(29 25.25)"/>
</clipPath>
</defs>
</svg>
