<svg width="5052" height="800" viewBox="0 0 5052 800" fill="none" xmlns="http://www.w3.org/2000/svg">
<path fill-rule="evenodd" clip-rule="evenodd" d="M317.4 504.499L317.375 278.129L533.525 391.704L317.4 504.499ZM792 238.903C792 238.903 784.175 183.387 760.2 158.939C729.775 126.838 695.675 126.687 680.05 124.824C568.1 116.666 400.175 116.667 400.175 116.667H399.825C399.825 116.667 231.9 116.666 119.95 124.824C104.3 126.687 70.2251 126.838 39.7751 158.939C15.8001 183.387 7.99993 238.903 7.99993 238.903C7.99993 238.903 0 304.112 0 369.296V430.427C0 495.636 7.99993 560.82 7.99993 560.82C7.99993 560.82 15.8001 616.336 39.7751 640.784C70.2251 672.885 110.2 671.878 128 675.226C192 681.42 400 683.333 400 683.333C400 683.333 568.1 683.081 680.05 674.924C695.675 673.036 729.775 672.885 760.2 640.784C784.175 616.336 792 560.82 792 560.82C792 560.82 800 495.636 800 430.427V369.296C800 304.112 792 238.903 792 238.903Z" fill="#CE1312"/>
<path d="M1463 666.667C1418.19 666.559 1373.97 656.413 1333.59 636.974C1293.21 617.534 1257.7 589.296 1229.67 554.333C1224.1 547.438 1221.5 538.612 1222.43 529.798C1223.37 520.984 1227.77 512.903 1234.67 507.333C1241.56 501.764 1250.39 499.162 1259.2 500.099C1268.02 501.037 1276.1 505.438 1281.67 512.333C1303.53 539.585 1331.24 561.579 1362.74 576.692C1394.24 591.805 1428.73 599.651 1463.67 599.651C1498.61 599.651 1533.1 591.805 1564.6 576.692C1596.1 561.579 1623.8 539.585 1645.67 512.333C1651.63 507.123 1659.25 504.204 1667.17 504.101C1675.08 503.997 1682.78 506.716 1688.88 511.769C1694.97 516.822 1699.07 523.88 1700.44 531.679C1701.8 539.478 1700.35 547.509 1696.33 554.333C1668.3 589.296 1632.79 617.534 1592.41 636.974C1552.03 656.413 1507.81 666.559 1463 666.667Z" fill="#126AE4"/>
<path d="M1463 66.6665C1418.8 66.6665 1376.4 84.226 1345.15 115.482C1313.89 146.738 1296.33 189.13 1296.33 233.333V366.666C1296.33 410.869 1313.89 453.262 1345.15 484.518C1376.4 515.774 1418.8 533.333 1463 533.333C1507.2 533.333 1549.59 515.774 1580.85 484.518C1612.11 453.262 1629.67 410.869 1629.67 366.666V233.333C1629.67 189.13 1612.11 146.738 1580.85 115.482C1549.59 84.226 1507.2 66.6665 1463 66.6665Z" fill="#126AE4"/>
<path d="M1463 733.333C1454.16 733.333 1445.68 729.821 1439.43 723.57C1433.18 717.319 1429.67 708.841 1429.67 700V633.333C1429.67 624.493 1433.18 616.014 1439.43 609.763C1445.68 603.512 1454.16 600 1463 600C1471.84 600 1480.32 603.512 1486.57 609.763C1492.82 616.014 1496.33 624.493 1496.33 633.333V700C1496.33 708.841 1492.82 717.319 1486.57 723.57C1480.32 729.821 1471.84 733.333 1463 733.333Z" fill="#126AE4"/>
<path d="M3727.25 343.75H3908.05C3925.15 343.75 3939 357.55 3939 374.6V539C3938.99 553.918 3936.04 568.688 3930.31 582.465C3924.59 596.243 3916.21 608.759 3905.66 619.298C3895.1 629.838 3882.57 638.194 3868.78 643.891C3854.99 649.588 3840.22 652.513 3825.3 652.5H3824.8C3809.88 652.513 3795.11 649.588 3781.32 643.891C3767.53 638.194 3755 629.838 3744.44 619.298C3733.89 608.759 3725.51 596.243 3719.79 582.465C3714.06 568.688 3711.11 553.918 3711.1 539V359.95C3711.1 351 3718.35 343.75 3727.25 343.75ZM3849.5 311.25C3889.9 311.25 3922.7 278.5 3922.7 238.15C3922.7 197.75 3889.9 165 3849.45 165C3809 165 3776.2 197.75 3776.2 238.15C3776.2 278.5 3809 311.25 3849.45 311.25H3849.5Z" fill="#5059C9"/>
<path d="M3621.55 311.25C3635.44 311.27 3649.19 308.554 3662.02 303.257C3674.86 297.96 3686.52 290.186 3696.35 280.38C3706.18 270.573 3713.98 258.926 3719.31 246.104C3724.64 233.281 3727.39 219.535 3727.4 205.65C3727.39 191.757 3724.65 178.001 3719.32 165.17C3713.99 152.338 3706.19 140.683 3696.35 130.871C3686.52 121.058 3674.84 113.281 3662 107.984C3649.16 102.687 3635.39 99.9739 3621.5 100C3607.62 99.9871 3593.87 102.708 3581.04 108.008C3568.21 113.308 3556.55 121.082 3546.73 130.888C3536.91 140.694 3529.11 152.339 3523.78 165.158C3518.46 177.977 3515.71 191.719 3515.7 205.6C3515.7 263.95 3563.05 311.25 3621.5 311.25H3621.55ZM3762.65 343.75H3464.15C3456.06 343.947 3448.37 347.349 3442.78 353.208C3437.2 359.068 3434.16 366.906 3434.35 375V562.5C3433.26 611.098 3451.51 658.141 3485.08 693.297C3518.65 728.452 3564.8 748.846 3613.4 750C3662.01 748.859 3708.17 728.471 3741.75 693.314C3775.33 658.157 3793.59 611.107 3792.5 562.5V375C3792.59 370.988 3791.89 366.997 3790.44 363.255C3788.99 359.513 3786.82 356.093 3784.05 353.191C3781.28 350.289 3777.96 347.961 3774.29 346.341C3770.62 344.722 3766.66 343.841 3762.65 343.75Z" fill="#7B83EB"/>
<path opacity="0.1" d="M3629.7 343.75V606.5C3629.66 614.387 3626.51 621.938 3620.93 627.51C3615.34 633.083 3607.79 636.224 3599.9 636.25H3448.65C3439.19 612.795 3434.32 587.742 3434.3 562.45V375C3434.21 370.99 3434.91 367.002 3436.36 363.262C3437.81 359.523 3439.98 356.107 3442.75 353.209C3445.53 350.31 3448.84 347.988 3452.51 346.373C3456.19 344.759 3460.14 343.884 3464.15 343.8H3629.65L3629.7 343.75Z" fill="black"/>
<path opacity="0.2" d="M3613.4 343.75V622.75C3613.33 630.629 3610.17 638.165 3604.6 643.732C3599.02 649.298 3591.48 652.448 3583.6 652.5H3456.35C3450.73 642.186 3446.25 631.288 3443 620C3437.31 601.363 3434.41 581.986 3434.4 562.5V374.9C3434.31 370.895 3435 366.91 3436.45 363.174C3437.9 359.438 3440.07 356.024 3442.84 353.126C3445.6 350.229 3448.91 347.905 3452.58 346.288C3456.25 344.67 3460.19 343.791 3464.2 343.7H3613.45L3613.4 343.75Z" fill="black"/>
<path opacity="0.2" d="M3613.4 343.75V590.25C3613.33 598.129 3610.17 605.665 3604.6 611.232C3599.02 616.798 3591.48 619.948 3583.6 620H3443C3437.31 601.363 3434.41 581.986 3434.4 562.5V374.9C3434.31 370.895 3435 366.91 3436.45 363.174C3437.9 359.438 3440.07 356.024 3442.84 353.126C3445.6 350.229 3448.91 347.905 3452.58 346.288C3456.25 344.67 3460.19 343.791 3464.2 343.7H3613.45L3613.4 343.75Z" fill="black"/>
<path opacity="0.2" d="M3597.15 343.75V590.25C3597.08 598.129 3593.92 605.665 3588.35 611.232C3582.77 616.798 3575.23 619.948 3567.35 620H3442.95C3437.26 601.363 3434.37 581.986 3434.35 562.5V374.9C3434.26 370.895 3434.95 366.91 3436.4 363.174C3437.85 359.438 3440.02 356.024 3442.79 353.126C3445.55 350.229 3448.86 347.905 3452.53 346.288C3456.2 344.67 3460.14 343.791 3464.15 343.7L3597.15 343.75Z" fill="black"/>
<path opacity="0.1" d="M3629.7 259.75V310.95C3626.95 311.1 3624.35 311.25 3621.55 311.25C3618.8 311.25 3616.2 311.1 3613.4 310.95C3591.07 309.229 3569.86 300.463 3552.83 285.915C3535.81 271.367 3523.84 251.788 3518.65 230H3599.9C3607.78 230.026 3615.33 233.161 3620.91 238.722C3626.49 244.283 3629.65 251.822 3629.7 259.7V259.75Z" fill="black"/>
<path opacity="0.2" d="M3613.4 276V310.95C3593.97 309.464 3575.34 302.64 3559.54 291.232C3543.75 279.824 3531.42 264.275 3523.9 246.3H3583.65C3591.52 246.339 3599.06 249.479 3604.63 255.039C3610.19 260.599 3613.35 268.13 3613.4 276Z" fill="black"/>
<path opacity="0.2" d="M3613.4 276V310.95C3593.97 309.464 3575.34 302.64 3559.54 291.232C3543.75 279.824 3531.42 264.275 3523.9 246.3H3583.65C3591.52 246.339 3599.06 249.479 3604.63 255.039C3610.19 260.599 3613.35 268.13 3613.4 276Z" fill="black"/>
<path opacity="0.2" d="M3597.15 276V308.35C3580.91 304.514 3565.8 296.887 3553.07 286.094C3540.34 275.301 3530.34 261.647 3523.9 246.25H3567.4C3575.28 246.289 3582.82 249.436 3588.39 255.007C3593.96 260.578 3597.11 268.122 3597.15 276Z" fill="black"/>
<path d="M3268.85 246.25H3567.3C3583.8 246.25 3597.15 259.6 3597.15 276.05V573.95C3597.15 577.868 3596.38 581.747 3594.88 585.366C3593.38 588.984 3591.18 592.272 3588.4 595.039C3585.63 597.807 3582.34 600.001 3578.72 601.496C3575.1 602.991 3571.22 603.757 3567.3 603.75H3268.8C3264.89 603.75 3261.01 602.979 3257.4 601.482C3253.78 599.984 3250.5 597.789 3247.73 595.022C3244.96 592.255 3242.77 588.969 3241.27 585.354C3239.77 581.738 3239 577.863 3239 573.95V276.05C3239 259.55 3252.35 246.25 3268.85 246.25Z" fill="url(#paint0_linear_787_783)"/>
<path d="M3496.6 359.65H3436.95V521.8H3398.95V359.65H3339.5V328.15H3496.55L3496.6 359.65Z" fill="white"/>
<path d="M4302 290C4302 205.992 4302 163.988 4318.35 131.902C4332.73 103.677 4355.68 80.73 4383.9 66.349C4415.99 50 4457.99 50 4542 50H4762C4846.01 50 4888.01 50 4920.1 66.349C4948.32 80.73 4971.27 103.677 4985.65 131.902C5002 163.988 5002 205.992 5002 290V510C5002 594.007 5002 636.012 4985.65 668.097C4971.27 696.322 4948.32 719.27 4920.1 733.65C4888.01 750 4846.01 750 4762 750H4542C4457.99 750 4415.99 750 4383.9 733.65C4355.68 719.27 4332.73 696.322 4318.35 668.097C4302 636.012 4302 594.007 4302 510V290Z" fill="#4087FC"/>
<path d="M4458.67 250C4441.18 250 4427 265.99 4427 285.715V458.927C4427 509.225 4463.15 550 4507.75 550L4695.33 548.215C4712.82 548.215 4727 532.225 4727 512.5V337.5C4727 287.203 4684.1 250 4639.5 250H4458.67Z" fill="white"/>
<path d="M4769.81 318.19C4758.49 329.38 4752 345.528 4752 362.5V434.983C4752 451.955 4758.49 468.105 4769.81 479.293L4840.22 541.313C4854.55 555.478 4877 544.003 4877 522.513V278.38C4877 256.888 4854.55 245.414 4840.22 259.58L4769.81 318.19Z" fill="white"/>
<g clip-path="url(#clip0_787_783)">
<path d="M2578.57 399.443L2656.56 488.59L2761.44 555.607L2779.68 400.006L2761.44 247.916L2654.55 306.786L2578.57 399.443Z" fill="#00832D"/>
<path d="M2126 541.124V673.718C2126 703.995 2150.57 728.573 2180.86 728.573H2313.45L2340.91 628.391L2313.45 541.124L2222.48 513.667L2126 541.124Z" fill="#0066DA"/>
<path d="M2313.45 70.3125L2126 257.762L2222.49 285.155L2313.45 257.762L2340.41 171.685L2313.45 70.3125Z" fill="#E94235"/>
<path d="M2126 541.186H2313.45V257.76H2126V541.186Z" fill="#2684FC"/>
<path d="M2881.18 149.681L2761.44 247.92V555.604L2881.68 654.226C2899.68 668.326 2926.01 655.474 2926.01 632.595V170.871C2926.01 147.737 2899.05 134.949 2881.18 149.681Z" fill="#00AC47"/>
<path d="M2578.57 399.443V541.124H2313.45V728.574H2706.59C2736.87 728.574 2761.44 703.995 2761.44 673.719V555.607L2578.57 399.443Z" fill="#00AC47"/>
<path d="M2706.59 70.3125H2313.45V257.762H2578.57V399.443L2761.44 247.915V125.168C2761.44 94.8853 2736.87 70.3125 2706.59 70.3125Z" fill="#FFBA00"/>
</g>
<defs>
<linearGradient id="paint0_linear_787_783" x1="3301.2" y1="223" x2="3534.3" y2="627.4" gradientUnits="userSpaceOnUse">
<stop stop-color="#5A62C3"/>
<stop offset="0.5" stop-color="#4D55BD"/>
<stop offset="1" stop-color="#3940AB"/>
</linearGradient>
<clipPath id="clip0_787_783">
<rect width="800" height="800" fill="white" transform="translate(2126)"/>
</clipPath>
</defs>
</svg>
