<svg width="393" height="717" viewBox="0 0 393 717" fill="none" xmlns="http://www.w3.org/2000/svg">
<path fill-rule="evenodd" clip-rule="evenodd" d="M240.036 272.593C281.854 296.49 323.672 320.388 365.49 344.286C364.799 345.46 363.787 346.372 362.46 347.02C284.331 389.371 206.25 431.8 128.219 474.305C127.977 474.167 127.876 473.964 127.916 473.698C128.118 464.171 127.915 454.652 127.31 445.142C87.5119 424.181 47.7146 403.22 7.9167 382.259C3.69794 379.438 1.1725 375.489 0.340992 370.411C0.0379637 363.529 -0.0632476 356.643 0.0379638 349.754C79.8028 314.491 159.499 279.05 239.127 243.43C239.23 253.255 239.533 262.976 240.036 272.593Z" fill="#136DEC"/>
<path opacity="0.998" fill-rule="evenodd" clip-rule="evenodd" d="M236.715 251.963C157.89 287.134 78.9978 322.129 0.0375808 356.948C-0.0626096 274.76 0.0375808 192.572 0.337552 110.384C0.393347 105.573 2.29337 101.673 6.03701 98.6855C54.5286 65.742 103.124 32.9466 151.823 0.299956C232.215 -1.78788e-08 393 0 393 0C393 0 393 116.783 392.7 175.174C391.944 180.792 389.04 184.892 384.001 187.473C335.405 208.769 285.31 230.666 236.715 251.963Z" fill="black"/>
<path opacity="0.998" fill-rule="evenodd" clip-rule="evenodd" d="M361.766 342.305C369.877 347.107 378.078 351.807 386.363 356.403C389.987 359.229 392.087 362.929 392.663 367.501C393.065 452.888 393.065 538.278 392.663 623.663C392.369 628.547 390.269 632.446 386.363 635.362C331.968 662.358 277.574 689.354 223.179 716.35C148.786 716.65 0 716.65 0 716.65C0 716.65 -1.78797e-08 605.066 0.299972 549.274C0.388763 544.199 2.68895 540.498 7.19932 538.176C47.0283 515.463 86.8244 492.769 126.588 470.086C126.549 470.349 126.649 470.549 126.888 470.686C204.132 428.716 281.426 386.822 358.766 345.004C360.08 344.364 361.082 343.464 361.766 342.305Z" fill="black"/>
</svg>
