<svg width="110" height="92" viewBox="0 0 110 92" fill="none" xmlns="http://www.w3.org/2000/svg">
<path d="M50.0492 85.1404C72.2179 85.1404 90.1892 67.1691 90.1892 45.0004C90.1892 22.8316 72.2179 4.86035 50.0492 4.86035C27.8805 4.86035 9.90918 22.8316 9.90918 45.0004C9.90918 67.1691 27.8805 85.1404 50.0492 85.1404Z" fill="#0B3D91"/>
<path d="M47.6795 13.0201C47.928 13.0201 48.1295 12.8186 48.1295 12.5701C48.1295 12.3216 47.928 12.1201 47.6795 12.1201C47.431 12.1201 47.2295 12.3216 47.2295 12.5701C47.2295 12.8186 47.431 13.0201 47.6795 13.0201Z" fill="white"/>
<path d="M52.2996 13.6207C52.5481 13.6207 52.7496 13.4192 52.7496 13.1707C52.7496 12.9222 52.5481 12.7207 52.2996 12.7207C52.0511 12.7207 51.8496 12.9222 51.8496 13.1707C51.8496 13.4192 52.0511 13.6207 52.2996 13.6207Z" fill="white"/>
<path d="M58.3592 21.7799C58.6077 21.7799 58.8092 21.5784 58.8092 21.3299C58.8092 21.0814 58.6077 20.8799 58.3592 20.8799C58.1107 20.8799 57.9092 21.0814 57.9092 21.3299C57.9092 21.5784 58.1107 21.7799 58.3592 21.7799Z" fill="white"/>
<path d="M25.1189 63.7799C25.3675 63.7799 25.5689 63.5784 25.5689 63.3299C25.5689 63.0814 25.3675 62.8799 25.1189 62.8799C24.8704 62.8799 24.6689 63.0814 24.6689 63.3299C24.6689 63.5784 24.8704 63.7799 25.1189 63.7799Z" fill="white"/>
<path d="M26.2889 67.3805C26.5374 67.3805 26.7389 67.179 26.7389 66.9305C26.7389 66.6819 26.5374 66.4805 26.2889 66.4805C26.0403 66.4805 25.8389 66.6819 25.8389 66.9305C25.8389 67.179 26.0403 67.3805 26.2889 67.3805Z" fill="white"/>
<path d="M20.7091 64.2072C20.8952 64.2072 21.0461 64.0563 21.0461 63.8702C21.0461 63.6841 20.8952 63.5332 20.7091 63.5332C20.523 63.5332 20.3721 63.6841 20.3721 63.8702C20.3721 64.0563 20.523 64.2072 20.7091 64.2072Z" fill="white"/>
<path d="M39.0089 71.2805C39.1956 71.2805 39.3469 71.1292 39.3469 70.9425C39.3469 70.7558 39.1956 70.6045 39.0089 70.6045C38.8222 70.6045 38.6709 70.7558 38.6709 70.9425C38.6709 71.1292 38.8222 71.2805 39.0089 71.2805Z" fill="white"/>
<path d="M67.711 65.3176C67.8971 65.3176 68.048 65.1667 68.048 64.9806C68.048 64.7944 67.8971 64.6436 67.711 64.6436C67.5249 64.6436 67.374 64.7944 67.374 64.9806C67.374 65.1667 67.5249 65.3176 67.711 65.3176Z" fill="white"/>
<path d="M76.0519 56.258C76.2385 56.258 76.3899 56.1067 76.3899 55.92C76.3899 55.7334 76.2385 55.582 76.0519 55.582C75.8652 55.582 75.7139 55.7334 75.7139 55.92C75.7139 56.1067 75.8652 56.258 76.0519 56.258Z" fill="white"/>
<path d="M35.169 24.299C35.3551 24.299 35.506 24.1481 35.506 23.962C35.506 23.7759 35.3551 23.625 35.169 23.625C34.9829 23.625 34.832 23.7759 34.832 23.962C34.832 24.1481 34.9829 24.299 35.169 24.299Z" fill="white"/>
<path d="M44.3497 17.5568C44.5358 17.5568 44.6867 17.4059 44.6867 17.2198C44.6867 17.0337 44.5358 16.8828 44.3497 16.8828C44.1636 16.8828 44.0127 17.0337 44.0127 17.2198C44.0127 17.4059 44.1636 17.5568 44.3497 17.5568Z" fill="white"/>
<path d="M43.3526 16.8976C43.5387 16.8976 43.6896 16.7468 43.6896 16.5606C43.6896 16.3745 43.5387 16.2236 43.3526 16.2236C43.1665 16.2236 43.0156 16.3745 43.0156 16.5606C43.0156 16.7468 43.1665 16.8976 43.3526 16.8976Z" fill="white"/>
<path d="M42.4522 16.2375C42.6384 16.2375 42.7892 16.0866 42.7892 15.9005C42.7892 15.7144 42.6384 15.5635 42.4522 15.5635C42.2661 15.5635 42.1152 15.7144 42.1152 15.9005C42.1152 16.0866 42.2661 16.2375 42.4522 16.2375Z" fill="white"/>
<path d="M36.6095 26.0402C36.7956 26.0402 36.9465 25.8893 36.9465 25.7032C36.9465 25.5171 36.7956 25.3662 36.6095 25.3662C36.4233 25.3662 36.2725 25.5171 36.2725 25.7032C36.2725 25.8893 36.4233 26.0402 36.6095 26.0402Z" fill="white"/>
<path d="M50.1309 8.49724C50.3171 8.49724 50.4679 8.34636 50.4679 8.16024C50.4679 7.97412 50.3171 7.82324 50.1309 7.82324C49.9448 7.82324 49.7939 7.97412 49.7939 8.16024C49.7939 8.34636 49.9448 8.49724 50.1309 8.49724Z" fill="white"/>
<path d="M52.3526 18.217C52.5387 18.217 52.6896 18.0661 52.6896 17.88C52.6896 17.6938 52.5387 17.543 52.3526 17.543C52.1665 17.543 52.0156 17.6938 52.0156 17.88C52.0156 18.0661 52.1665 18.217 52.3526 18.217Z" fill="white"/>
<path d="M48.8497 16.3195C49.0358 16.3195 49.1867 16.1686 49.1867 15.9825C49.1867 15.7964 49.0358 15.6455 48.8497 15.6455C48.6636 15.6455 48.5127 15.7964 48.5127 15.9825C48.5127 16.1686 48.6636 16.3195 48.8497 16.3195Z" fill="white"/>
<path d="M42.8497 18.9006C43.0358 18.9006 43.1867 18.7497 43.1867 18.5636C43.1867 18.3774 43.0358 18.2266 42.8497 18.2266C42.6636 18.2266 42.5127 18.3774 42.5127 18.5636C42.5127 18.7497 42.6636 18.9006 42.8497 18.9006Z" fill="white"/>
<path d="M69.3097 74.2199C69.4958 74.2199 69.6467 74.069 69.6467 73.8829C69.6467 73.6968 69.4958 73.5459 69.3097 73.5459C69.1235 73.5459 68.9727 73.6968 68.9727 73.8829C68.9727 74.069 69.1235 74.2199 69.3097 74.2199Z" fill="white"/>
<path d="M24.5489 65.9485C24.7356 65.9485 24.8869 65.7971 24.8869 65.6105C24.8869 65.4238 24.7356 65.2725 24.5489 65.2725C24.3623 65.2725 24.2109 65.4238 24.2109 65.6105C24.2109 65.7971 24.3623 65.9485 24.5489 65.9485Z" fill="white"/>
<path d="M48.0089 70.2981C48.1956 70.2981 48.3469 70.1467 48.3469 69.9601C48.3469 69.7734 48.1956 69.6221 48.0089 69.6221C47.8222 69.6221 47.6709 69.7734 47.6709 69.9601C47.6709 70.1467 47.8222 70.2981 48.0089 70.2981Z" fill="white"/>
<path d="M31.5314 65.678C31.718 65.678 31.8694 65.5266 31.8694 65.34C31.8694 65.1533 31.718 65.002 31.5314 65.002C31.3447 65.002 31.1934 65.1533 31.1934 65.34C31.1934 65.5266 31.3447 65.678 31.5314 65.678Z" fill="white"/>
<path d="M34.4493 70.4416C34.636 70.4416 34.7873 70.2903 34.7873 70.1036C34.7873 69.917 34.636 69.7656 34.4493 69.7656C34.2627 69.7656 34.1113 69.917 34.1113 70.1036C34.1113 70.2903 34.2627 70.4416 34.4493 70.4416Z" fill="white"/>
<path d="M55.9288 67.4406C56.1149 67.4406 56.2658 67.2897 56.2658 67.1036C56.2658 66.9175 56.1149 66.7666 55.9288 66.7666C55.7427 66.7666 55.5918 66.9175 55.5918 67.1036C55.5918 67.2897 55.7427 67.4406 55.9288 67.4406Z" fill="white"/>
<path d="M67.7716 60.757C67.9577 60.757 68.1086 60.6061 68.1086 60.42C68.1086 60.2339 67.9577 60.083 67.7716 60.083C67.5855 60.083 67.4346 60.2339 67.4346 60.42C67.4346 60.6061 67.5855 60.757 67.7716 60.757Z" fill="white"/>
<path d="M76.7491 64.8596C76.9352 64.8596 77.0861 64.7087 77.0861 64.5226C77.0861 64.3364 76.9352 64.1855 76.7491 64.1855C76.563 64.1855 76.4121 64.3364 76.4121 64.5226C76.4121 64.7087 76.563 64.8596 76.7491 64.8596Z" fill="white"/>
<path d="M79.8097 66.8176C79.9958 66.8176 80.1467 66.6667 80.1467 66.4806C80.1467 66.2944 79.9958 66.1436 79.8097 66.1436C79.6235 66.1436 79.4727 66.2944 79.4727 66.4806C79.4727 66.6667 79.6235 66.8176 79.8097 66.8176Z" fill="white"/>
<path d="M80.3126 61.4777C80.4987 61.4777 80.6496 61.3268 80.6496 61.1407C80.6496 60.9546 80.4987 60.8037 80.3126 60.8037C80.1265 60.8037 79.9756 60.9546 79.9756 61.1407C79.9756 61.3268 80.1265 61.4777 80.3126 61.4777Z" fill="white"/>
<path d="M35.671 53.9172C35.8571 53.9172 36.008 53.7663 36.008 53.5802C36.008 53.394 35.8571 53.2432 35.671 53.2432C35.4849 53.2432 35.334 53.394 35.334 53.5802C35.334 53.7663 35.4849 53.9172 35.671 53.9172Z" fill="white"/>
<path d="M35.7996 61.7701C36.0481 61.7701 36.2496 61.5686 36.2496 61.3201C36.2496 61.0716 36.0481 60.8701 35.7996 60.8701C35.5511 60.8701 35.3496 61.0716 35.3496 61.3201C35.3496 61.5686 35.5511 61.7701 35.7996 61.7701Z" fill="white"/>
<path d="M38.4988 67.4703C38.7474 67.4703 38.9488 67.2688 38.9488 67.0203C38.9488 66.7718 38.7474 66.5703 38.4988 66.5703C38.2503 66.5703 38.0488 66.7718 38.0488 67.0203C38.0488 67.2688 38.2503 67.4703 38.4988 67.4703Z" fill="white"/>
<path d="M70.8396 61.5299C71.0882 61.5299 71.2896 61.3284 71.2896 61.0799C71.2896 60.8314 71.0882 60.6299 70.8396 60.6299C70.5911 60.6299 70.3896 60.8314 70.3896 61.0799C70.3896 61.3284 70.5911 61.5299 70.8396 61.5299Z" fill="white"/>
<path d="M82.4793 60.8707C82.7278 60.8707 82.9293 60.6692 82.9293 60.4207C82.9293 60.1722 82.7278 59.9707 82.4793 59.9707C82.2308 59.9707 82.0293 60.1722 82.0293 60.4207C82.0293 60.6692 82.2308 60.8707 82.4793 60.8707Z" fill="white"/>
<path d="M76.7195 58.4098C76.9681 58.4098 77.1695 58.2083 77.1695 57.9598C77.1695 57.7112 76.9681 57.5098 76.7195 57.5098C76.471 57.5098 76.2695 57.7112 76.2695 57.9598C76.2695 58.2083 76.471 58.4098 76.7195 58.4098Z" fill="white"/>
<path d="M70.8396 58.65C71.0882 58.65 71.2896 58.4485 71.2896 58.2C71.2896 57.9515 71.0882 57.75 70.8396 57.75C70.5911 57.75 70.3896 57.9515 70.3896 58.2C70.3896 58.4485 70.5911 58.65 70.8396 58.65Z" fill="white"/>
<path d="M58.7099 12.2878L59.8289 12.1808L58.7119 12.1178C58.6769 11.9018 58.5039 11.7328 58.2859 11.7048L58.1789 10.5908L58.1149 11.7138C57.9129 11.7588 57.7579 11.9278 57.7329 12.1378L56.5889 12.2418L57.7409 12.3038C57.7829 12.4968 57.9389 12.6478 58.1349 12.6838L58.2389 13.8318L58.2999 12.6858C58.5069 12.6508 58.6709 12.4918 58.7099 12.2878Z" fill="white"/>
<path d="M39.8241 24.7458L40.9431 24.6388L39.8261 24.5758C39.7921 24.3598 39.6181 24.1908 39.4001 24.1628L39.2931 23.0488L39.2301 24.1718C39.0271 24.2168 38.8721 24.3858 38.8471 24.5958L37.7031 24.6998L38.8551 24.7618C38.8971 24.9548 39.0531 25.1058 39.2491 25.1418L39.3531 26.2898L39.4151 25.1438C39.6221 25.1098 39.7861 24.9498 39.8241 24.7458Z" fill="white"/>
<path d="M81.6591 57.6843L82.7781 57.5773L81.6611 57.5143C81.6271 57.2983 81.4531 57.1293 81.2351 57.1013L81.1281 55.9873L81.0651 57.1103C80.8631 57.1553 80.7081 57.3243 80.6831 57.5343L79.5391 57.6383L80.6911 57.7003C80.7331 57.8933 80.8891 58.0443 81.0851 58.0803L81.1891 59.2283L81.2511 58.0823C81.4561 58.0483 81.6201 57.8893 81.6591 57.6843Z" fill="white"/>
<path d="M36.0438 74.906L37.1628 74.799L36.0459 74.736C36.0109 74.52 35.8379 74.351 35.6199 74.323L35.5129 73.21L35.4499 74.332C35.2469 74.377 35.0919 74.546 35.0669 74.756L33.9229 74.86L35.0749 74.922C35.1169 75.115 35.2729 75.267 35.4689 75.302L35.5729 76.45L35.6348 75.304C35.8408 75.27 36.0058 75.11 36.0438 74.906Z" fill="white"/>
<path d="M78.1044 66.5066L79.2234 66.3996L78.1064 66.3366C78.0724 66.1206 77.8984 65.9516 77.6804 65.9236L77.5734 64.8096L77.5104 65.9316C77.3084 65.9766 77.1534 66.1456 77.1284 66.3556L75.9844 66.4596L77.1364 66.5216C77.1784 66.7146 77.3344 66.8656 77.5304 66.9016L77.6344 68.0496L77.6964 66.9036C77.9014 66.8706 78.0664 66.7106 78.1044 66.5066Z" fill="white"/>
<path d="M59.5682 35.3857C54.9012 37.1997 50.3492 38.8187 46.5082 40.0207C38.7032 42.4647 17.3482 49.0807 4.44824 57.4207L5.52824 57.8407C13.3882 53.4007 18.4972 52.0057 23.4082 50.4607C28.7482 48.7807 46.0112 44.7407 53.8282 42.5407C56.4692 41.7977 59.5622 40.8247 62.8382 39.6407C62.0762 38.5777 61.2722 37.5117 60.4262 36.4477C60.1432 36.0887 59.8562 35.7347 59.5682 35.3857ZM65.2702 43.2447C64.1402 44.0077 63.1932 44.6167 62.5302 45.0007C58.6902 47.2207 39.9692 60.0007 35.7102 62.9407C31.4512 65.8807 19.6302 77.0407 16.1502 80.2807L16.0302 81.5997C27.2502 71.5197 30.7702 69.0337 35.2302 65.6407C40.7502 61.4407 52.1692 53.6707 56.0502 51.1807C59.7602 48.8007 63.1062 46.6117 66.1092 44.6087C66.0602 44.5267 66.0112 44.4447 65.9622 44.3617C65.7362 43.9907 65.5052 43.6187 65.2702 43.2447ZM82.8092 24.7207C77.3432 27.9247 68.7282 31.7917 60.3702 35.0727C60.5702 35.3177 60.7692 35.5647 60.9672 35.8137C61.9012 36.9897 62.7822 38.1737 63.6112 39.3587C70.1812 36.9387 77.3902 33.6907 83.1102 29.7597C80.3852 32.3417 71.3762 39.0747 65.8832 42.8277C66.1662 43.2887 66.4402 43.7497 66.7052 44.2087C75.0272 38.6397 80.6272 34.5407 83.8902 31.7997C88.3902 28.0197 98.6502 19.5597 102.55 8.21973C95.7092 16.9207 87.6212 21.8997 82.8092 24.7207Z" fill="#FC3D21"/>
<path d="M44.8845 54.9397C43.9995 53.8257 42.7755 52.3337 41.8565 51.1767C40.6275 49.6297 39.4905 48.0667 38.4485 46.5057C38.1085 46.5907 37.7695 46.6757 37.4305 46.7607C38.6885 48.7237 40.0855 50.6837 41.6075 52.5997C42.7195 53.9997 43.7305 55.1267 44.2485 55.8277C44.3535 55.9697 44.5615 56.2837 44.8425 56.7017C45.1665 56.4817 45.4935 56.2597 45.8235 56.0357C45.5045 55.6887 45.1895 55.3237 44.8845 54.9397ZM51.3445 60.8037C50.6175 60.1157 48.8545 58.9667 47.0195 57.2427C46.6145 57.5207 46.2055 57.8027 45.7955 58.0867C46.9805 59.7567 48.5945 61.8077 49.8585 62.4057C51.7625 63.3077 52.2755 61.6857 51.3445 60.8037ZM60.9675 35.8137C50.4755 22.6077 37.6585 15.3527 32.1325 19.7437C27.8405 23.1537 29.6025 33.1197 35.5185 43.5887C35.8245 43.4837 36.1275 43.3807 36.4275 43.2787C30.4565 33.0787 28.8225 23.5997 32.8705 20.3827C37.9575 16.3407 50.2405 23.6237 60.4285 36.4467C62.5375 39.1007 64.3915 41.7647 65.9615 44.3617C71.9735 54.3117 73.8185 63.3097 69.6645 66.9827C68.3935 68.1067 64.5095 68.5477 59.4215 66.2577C59.3505 66.3467 59.4645 66.5877 59.5535 66.6467C63.9455 68.4127 68.1525 69.0857 70.2765 67.3987C75.3805 63.3427 71.4595 49.0197 60.9675 35.8137Z" fill="white"/>
<path d="M15.9697 37.3799H22.6897L28.3297 46.9499C28.3297 46.9499 28.3297 40.0199 28.3297 39.4799C28.3297 38.6399 27.2647 37.5449 26.8897 37.3799C27.3397 37.3799 31.2697 37.3799 31.5397 37.3799C31.2547 37.4549 30.3397 38.5649 30.3397 39.4799C30.3397 39.9299 30.3397 49.9799 30.3397 50.4599C30.3397 51.1349 31.3147 52.0649 31.7797 52.4249H25.2997L19.5697 42.8099C19.5697 42.8099 19.5697 49.9799 19.5697 50.3699C19.5697 51.1199 20.3047 51.8399 21.0697 52.4549H16.1197C16.8247 52.1549 17.4997 51.2099 17.5597 50.4599C17.6197 49.7099 17.5597 40.0349 17.5597 39.6149C17.5597 38.6999 16.6747 37.9499 15.9697 37.3799Z" fill="white"/>
<path d="M77.4391 52.4249H86.3791C85.8841 52.3049 85.3291 51.7199 85.0291 50.9399C84.7291 50.1599 79.9891 37.3799 79.9891 37.3799H76.5901C75.6261 38.0739 74.5931 38.8059 73.4901 39.5769C73.4871 39.6049 73.4841 39.6329 73.4791 39.6599C73.3311 40.5599 70.6711 50.1939 70.5091 50.6699C70.2841 51.3299 69.1291 52.0649 68.6641 52.4549H73.4791C72.9991 51.9149 72.6091 51.3899 72.6991 50.7899C72.7891 50.1899 73.0591 48.9899 73.0591 48.9899H78.0391C78.2641 49.5899 78.4321 50.1289 78.5191 50.6399C78.6241 51.2549 77.9941 51.9449 77.4391 52.4249ZM73.5091 47.0699L75.1891 41.5799L77.4091 47.0699H73.5091ZM72.7521 37.9279C72.9991 37.7459 73.2471 37.5629 73.4941 37.3799H72.1891C72.3191 37.4999 72.5341 37.6889 72.7521 37.9279Z" fill="white"/>
<path d="M38.5594 50.7899C38.6494 50.1899 38.9194 48.9899 38.9194 48.9899H43.8994C44.1244 49.5899 44.2924 50.1289 44.3794 50.6399C44.4844 51.2549 43.8544 51.9449 43.2994 52.4249H51.1704C51.3344 52.3149 51.4974 52.2049 51.6604 52.0959C51.3554 51.8259 51.0744 51.4209 50.8894 50.9399C50.5894 50.1599 45.8494 37.3799 45.8494 37.3799H38.0494C38.4244 37.7249 39.5044 38.6549 39.3394 39.6599C39.1924 40.5599 36.5314 50.1939 36.3694 50.6699C36.1444 51.3299 34.9894 52.0649 34.5244 52.4549H39.3394C38.8594 51.9149 38.4694 51.3899 38.5594 50.7899ZM41.0494 41.5799L43.2694 47.0699H39.3694L41.0494 41.5799Z" fill="white"/>
<path d="M65.7483 44.8479C64.2803 45.8259 62.7313 46.8469 61.0993 47.9129C61.8313 48.2679 62.4143 48.7139 62.4703 49.2899C62.5743 50.3719 60.4003 50.8949 58.4353 50.6699C58.0423 50.6249 57.6563 50.5219 57.2883 50.3839C56.8803 50.6469 56.4683 50.9119 56.0503 51.1799C55.6253 51.4529 55.1093 51.7889 54.5203 52.1769V53.7299C54.9103 52.9649 55.7633 52.2799 56.4253 52.2449C56.7103 52.2299 57.7003 53.1449 61.7803 52.9199C63.7603 52.8109 67.5853 50.6999 67.5253 48.2699C67.4893 46.8339 66.7393 45.7139 65.7483 44.8479ZM54.5193 48.5999V50.1819C54.8803 49.9409 55.2363 49.7039 55.5853 49.4729C55.0363 49.0909 54.6473 48.7339 54.5193 48.5999ZM64.3533 43.8549C63.9733 43.6299 63.5883 43.4329 63.2193 43.2589C61.2993 42.3589 59.2893 42.1939 58.8693 40.9789C58.5733 40.1219 59.4093 39.3289 61.4493 39.3589C63.4893 39.3889 65.3793 40.6039 65.8893 41.0389V37.1689C65.7393 37.3189 65.0813 38.0739 64.4793 37.9489C63.3243 37.7089 61.3593 37.3959 59.1093 37.4089C56.5293 37.4239 54.3093 39.4179 54.2343 41.9389C54.1293 45.4639 56.9493 46.4239 58.5393 46.9789C58.7033 47.0359 58.8903 47.0969 59.0933 47.1619C60.6183 46.1699 61.8243 45.4059 62.5303 44.9989C63.0043 44.7259 63.6253 44.3339 64.3533 43.8549Z" fill="white"/>
</svg>
