<svg width="2926" height="800" viewBox="0 0 2926 800" fill="none" xmlns="http://www.w3.org/2000/svg">
<path d="M1601.25 343.75H1782.05C1799.15 343.75 1813 357.55 1813 374.6V539C1812.99 553.918 1810.04 568.688 1804.31 582.465C1798.59 596.243 1790.21 608.759 1779.66 619.298C1769.1 629.838 1756.57 638.194 1742.78 643.891C1728.99 649.588 1714.22 652.513 1699.3 652.5H1698.8C1683.88 652.513 1669.11 649.588 1655.32 643.891C1641.53 638.194 1629 629.838 1618.44 619.298C1607.89 608.759 1599.51 596.243 1593.79 582.465C1588.06 568.688 1585.11 553.918 1585.1 539V359.95C1585.1 351 1592.35 343.75 1601.25 343.75ZM1723.5 311.25C1763.9 311.25 1796.7 278.5 1796.7 238.15C1796.7 197.75 1763.9 165 1723.45 165C1683 165 1650.2 197.75 1650.2 238.15C1650.2 278.5 1683 311.25 1723.45 311.25H1723.5Z" fill="#5059C9"/>
<path d="M1495.55 311.25C1509.44 311.27 1523.19 308.554 1536.02 303.257C1548.86 297.96 1560.52 290.186 1570.35 280.38C1580.18 270.573 1587.98 258.926 1593.31 246.104C1598.64 233.281 1601.39 219.535 1601.4 205.65C1601.39 191.757 1598.65 178.001 1593.32 165.17C1587.99 152.338 1580.19 140.683 1570.35 130.871C1560.52 121.058 1548.84 113.281 1536 107.984C1523.16 102.687 1509.39 99.9739 1495.5 100C1481.62 99.9871 1467.87 102.708 1455.04 108.008C1442.21 113.308 1430.55 121.082 1420.73 130.888C1410.91 140.694 1403.11 152.339 1397.78 165.158C1392.46 177.977 1389.71 191.719 1389.7 205.6C1389.7 263.95 1437.05 311.25 1495.5 311.25H1495.55ZM1636.65 343.75H1338.15C1330.06 343.947 1322.37 347.349 1316.78 353.208C1311.2 359.068 1308.16 366.906 1308.35 375V562.5C1307.26 611.098 1325.51 658.141 1359.08 693.297C1392.65 728.452 1438.8 748.846 1487.4 750C1536.01 748.859 1582.17 728.471 1615.75 693.314C1649.33 658.157 1667.59 611.107 1666.5 562.5V375C1666.59 370.988 1665.89 366.997 1664.44 363.255C1662.99 359.513 1660.82 356.093 1658.05 353.191C1655.28 350.289 1651.96 347.961 1648.29 346.341C1644.62 344.722 1640.66 343.841 1636.65 343.75Z" fill="#7B83EB"/>
<path opacity="0.1" d="M1503.7 343.75V606.5C1503.66 614.387 1500.51 621.938 1494.93 627.51C1489.34 633.083 1481.79 636.224 1473.9 636.25H1322.65C1313.19 612.795 1308.31 587.742 1308.3 562.45V375C1308.21 370.99 1308.91 367.002 1310.36 363.262C1311.81 359.523 1313.98 356.107 1316.75 353.209C1319.53 350.31 1322.84 347.988 1326.51 346.373C1330.19 344.759 1334.14 343.884 1338.15 343.8H1503.65L1503.7 343.75Z" fill="black"/>
<path opacity="0.2" d="M1487.4 343.749V622.749C1487.33 630.628 1484.17 638.164 1478.6 643.731C1473.02 649.297 1465.48 652.447 1457.6 652.499H1330.35C1324.73 642.185 1320.25 631.287 1317 619.999C1311.31 601.362 1308.42 581.985 1308.4 562.499V374.899C1308.31 370.894 1309 366.909 1310.45 363.173C1311.9 359.437 1314.07 356.023 1316.84 353.125C1319.6 350.228 1322.91 347.904 1326.58 346.287C1330.25 344.669 1334.19 343.79 1338.2 343.699H1487.45L1487.4 343.749Z" fill="black"/>
<path opacity="0.2" d="M1487.4 343.749V590.249C1487.33 598.128 1484.17 605.664 1478.6 611.231C1473.02 616.797 1465.48 619.947 1457.6 619.999H1317C1311.31 601.362 1308.42 581.985 1308.4 562.499V374.899C1308.31 370.894 1309 366.909 1310.45 363.173C1311.9 359.437 1314.07 356.023 1316.84 353.125C1319.6 350.228 1322.91 347.904 1326.58 346.287C1330.25 344.669 1334.19 343.79 1338.2 343.699H1487.45L1487.4 343.749Z" fill="black"/>
<path opacity="0.2" d="M1471.15 343.749V590.249C1471.08 598.128 1467.92 605.664 1462.35 611.231C1456.77 616.797 1449.23 619.947 1441.35 619.999H1316.95C1311.26 601.362 1308.37 581.985 1308.35 562.499V374.899C1308.26 370.894 1308.95 366.909 1310.4 363.173C1311.85 359.437 1314.02 356.023 1316.79 353.125C1319.55 350.228 1322.86 347.904 1326.53 346.287C1330.2 344.669 1334.14 343.79 1338.15 343.699L1471.15 343.749Z" fill="black"/>
<path opacity="0.1" d="M1503.7 259.75V310.95C1500.95 311.1 1498.35 311.25 1495.55 311.25C1492.8 311.25 1490.2 311.1 1487.4 310.95C1465.07 309.229 1443.86 300.463 1426.83 285.915C1409.81 271.367 1397.84 251.788 1392.65 230H1473.9C1481.78 230.026 1489.33 233.161 1494.91 238.722C1500.49 244.283 1503.65 251.822 1503.7 259.7V259.75Z" fill="black"/>
<path opacity="0.2" d="M1487.4 276.001V310.951C1467.97 309.465 1449.34 302.641 1433.54 291.233C1417.75 279.825 1405.42 264.276 1397.9 246.301H1457.65C1465.52 246.34 1473.06 249.48 1478.63 255.04C1484.19 260.6 1487.35 268.131 1487.4 276.001Z" fill="black"/>
<path opacity="0.2" d="M1487.4 276.001V310.951C1467.97 309.465 1449.34 302.641 1433.54 291.233C1417.75 279.825 1405.42 264.276 1397.9 246.301H1457.65C1465.52 246.34 1473.06 249.48 1478.63 255.04C1484.19 260.6 1487.35 268.131 1487.4 276.001Z" fill="black"/>
<path d="M1142.85 246.25H1441.3C1457.8 246.25 1471.15 259.6 1471.15 276.05V573.95C1471.15 577.868 1470.38 581.747 1468.88 585.366C1467.38 588.984 1465.18 592.272 1462.4 595.039C1459.63 597.807 1456.34 600.001 1452.72 601.496C1449.1 602.991 1445.22 603.757 1441.3 603.75H1142.8C1138.89 603.75 1135.01 602.979 1131.4 601.482C1127.78 599.984 1124.5 597.789 1121.73 595.022C1118.96 592.255 1116.77 588.969 1115.27 585.354C1113.77 581.738 1113 577.863 1113 573.95V276.05C1113 259.55 1126.35 246.25 1142.85 246.25Z" fill="url(#paint0_linear_708_35)"/>
<path d="M1370.6 359.648H1310.95V521.798H1272.95V359.648H1213.5V328.148H1370.55L1370.6 359.648Z" fill="white"/>
<path d="M2176 290C2176 205.992 2176 163.988 2192.35 131.902C2206.73 103.677 2229.68 80.73 2257.9 66.349C2289.99 50 2331.99 50 2416 50H2636C2720.01 50 2762.01 50 2794.1 66.349C2822.32 80.73 2845.27 103.677 2859.65 131.902C2876 163.988 2876 205.992 2876 290V510C2876 594.007 2876 636.012 2859.65 668.097C2845.27 696.322 2822.32 719.27 2794.1 733.65C2762.01 750 2720.01 750 2636 750H2416C2331.99 750 2289.99 750 2257.9 733.65C2229.68 719.27 2206.73 696.322 2192.35 668.097C2176 636.012 2176 594.007 2176 510V290Z" fill="#4087FC"/>
<path d="M2332.67 250C2315.18 250 2301 265.99 2301 285.715V458.927C2301 509.225 2337.15 550 2381.75 550L2569.33 548.215C2586.82 548.215 2601 532.225 2601 512.5V337.5C2601 287.203 2558.1 250 2513.5 250H2332.67Z" fill="white"/>
<path d="M2643.81 318.188C2632.49 329.378 2626 345.526 2626 362.498V434.981C2626 451.953 2632.49 468.103 2643.81 479.291L2714.22 541.311C2728.55 555.476 2751 544.001 2751 522.511V278.378C2751 256.886 2728.55 245.412 2714.22 259.578L2643.81 318.188Z" fill="white"/>
<g clip-path="url(#clip0_708_35)">
<path d="M452.57 399.441L530.559 488.588L635.442 555.605L653.684 400.004L635.442 247.914L528.552 306.784L452.57 399.441Z" fill="#00832D"/>
<path d="M0.00170898 541.124V673.719C0.00170898 703.995 24.5745 728.574 54.8567 728.574H187.451L214.908 628.391L187.451 541.124L96.4825 513.668L0.00170898 541.124Z" fill="#0066DA"/>
<path d="M187.449 70.3125L0 257.762L96.4866 285.155L187.449 257.762L214.407 171.685L187.449 70.3125Z" fill="#E94235"/>
<path d="M0.00170898 541.187H187.451V257.762H0.00170898V541.187Z" fill="#2684FC"/>
<path d="M755.183 149.681L635.441 247.92V555.604L755.682 654.226C773.681 668.326 800.012 655.474 800.012 632.595V170.871C800.012 147.737 773.055 134.949 755.183 149.681Z" fill="#00AC47"/>
<path d="M452.57 399.441V541.122H187.451V728.572H580.587C610.869 728.572 635.442 703.993 635.442 673.717V555.605L452.57 399.441Z" fill="#00AC47"/>
<path d="M580.587 70.3125H187.451V257.762H452.57V399.443L635.442 247.915V125.168C635.442 94.8853 610.869 70.3125 580.587 70.3125Z" fill="#FFBA00"/>
</g>
<defs>
<linearGradient id="paint0_linear_708_35" x1="1175.2" y1="223" x2="1408.3" y2="627.4" gradientUnits="userSpaceOnUse">
<stop stop-color="#5A62C3"/>
<stop offset="0.5" stop-color="#4D55BD"/>
<stop offset="1" stop-color="#3940AB"/>
</linearGradient>
<clipPath id="clip0_708_35">
<rect width="800" height="800" fill="white"/>
</clipPath>
</defs>
</svg>
