<svg width="800" height="238" viewBox="0 0 800 238" fill="none" xmlns="http://www.w3.org/2000/svg">
<path d="M770.37 237.517H29.6296C13.037 237.517 0 224.48 0 207.888V30.1101C0 13.5175 13.037 0.480469 29.6296 0.480469H770.37C786.963 0.480469 800 13.5175 800 30.1101V207.888C800 224.48 786.963 237.517 770.37 237.517Z" fill="black"/>
<path d="M770.37 5.22121C784 5.22121 795.259 16.4805 795.259 30.1101V207.888C795.259 221.517 784 232.777 770.37 232.777H29.6296C16 232.777 4.74074 221.517 4.74074 207.888V30.1101C4.74074 16.4805 16 5.22121 29.6296 5.22121H770.37ZM770.37 0.480469H29.6296C13.037 0.480469 0 14.1101 0 30.1101V207.888C0 224.48 13.037 237.517 29.6296 237.517H770.37C786.963 237.517 800 224.48 800 207.888V30.1101C800 14.1101 786.963 0.480469 770.37 0.480469Z" fill="#A6A6A6"/>
<path d="M280.89 60.9266C280.89 65.6674 279.704 69.8155 276.741 72.7785C273.186 76.3341 269.038 78.1118 263.704 78.1118C258.371 78.1118 254.223 76.3341 250.667 72.7785C247.112 69.2229 245.334 65.0748 245.334 59.7415C245.334 54.4081 247.112 50.26 250.667 46.7044C254.223 43.1489 258.371 41.3711 263.704 41.3711C266.075 41.3711 268.445 41.9637 270.815 43.1489C273.186 44.3341 274.964 45.5192 276.149 47.297L273.186 50.26C270.815 47.297 267.852 46.1118 263.704 46.1118C260.149 46.1118 256.593 47.297 254.223 50.26C251.26 52.6303 250.075 56.1859 250.075 60.3341C250.075 64.4822 251.26 68.0378 254.223 70.4081C257.186 72.7785 260.149 74.5563 263.704 74.5563C267.852 74.5563 270.815 73.3711 273.778 70.4081C275.556 68.6304 276.741 66.26 276.741 63.297H263.704V58.5563H280.89V60.9266ZM308.149 46.1118H292.149V57.3711H306.964V61.5192H292.149V72.7785H308.149V77.5192H287.408V41.9637H308.149V46.1118ZM327.704 77.5192H322.964V46.1118H312.89V41.9637H337.778V46.1118H327.704V77.5192ZM354.964 77.5192V41.9637H359.704V77.5192H354.964ZM379.852 77.5192H375.112V46.1118H365.038V41.9637H389.334V46.1118H379.26V77.5192H379.852ZM436.149 72.7785C432.593 76.3341 428.445 78.1118 423.112 78.1118C417.778 78.1118 413.63 76.3341 410.075 72.7785C406.519 69.2229 404.741 65.0748 404.741 59.7415C404.741 54.4081 406.519 50.26 410.075 46.7044C413.63 43.1489 417.778 41.3711 423.112 41.3711C428.445 41.3711 432.593 43.1489 436.149 46.7044C439.704 50.26 441.482 54.4081 441.482 59.7415C441.482 65.0748 439.704 69.2229 436.149 72.7785ZM413.63 69.8155C416.001 72.1859 419.556 73.9637 423.112 73.9637C426.667 73.9637 430.223 72.7785 432.593 69.8155C434.964 67.4452 436.741 63.8896 436.741 59.7415C436.741 55.5933 435.556 52.0378 432.593 49.6674C430.223 47.297 426.667 45.5192 423.112 45.5192C419.556 45.5192 416.001 46.7044 413.63 49.6674C411.26 52.0378 409.482 55.5933 409.482 59.7415C409.482 63.8896 410.667 67.4452 413.63 69.8155ZM448.001 77.5192V41.9637H453.334L470.519 69.8155V41.9637H475.26V77.5192H470.519L452.149 48.4822V77.5192H448.001Z" fill="white" stroke="white" stroke-width="1.18519" stroke-miterlimit="10"/>
<path d="M403.555 129.668C389.332 129.668 378.073 140.335 378.073 155.15C378.073 169.372 389.332 180.631 403.555 180.631C417.777 180.631 429.036 169.965 429.036 155.15C429.036 139.742 417.777 129.668 403.555 129.668ZM403.555 169.965C395.851 169.965 389.332 163.446 389.332 154.557C389.332 145.668 395.851 139.15 403.555 139.15C411.258 139.15 417.777 145.076 417.777 154.557C417.777 163.446 411.258 169.965 403.555 169.965ZM348.444 129.668C334.221 129.668 322.962 140.335 322.962 155.15C322.962 169.372 334.221 180.631 348.444 180.631C362.666 180.631 373.925 169.965 373.925 155.15C373.925 139.742 362.666 129.668 348.444 129.668ZM348.444 169.965C340.74 169.965 334.221 163.446 334.221 154.557C334.221 145.668 340.74 139.15 348.444 139.15C356.147 139.15 362.666 145.076 362.666 154.557C362.666 163.446 356.147 169.965 348.444 169.965ZM282.666 137.372V148.039H308.147C307.555 153.965 305.184 158.705 302.221 161.668C298.666 165.224 292.74 169.372 282.666 169.372C266.666 169.372 254.814 156.928 254.814 140.928C254.814 124.928 267.258 112.483 282.666 112.483C290.962 112.483 297.481 116.039 302.221 120.187L309.925 112.483C303.407 106.557 295.11 101.816 283.258 101.816C261.925 101.816 243.555 119.594 243.555 140.928C243.555 162.261 261.925 180.039 283.258 180.039C295.11 180.039 303.407 176.483 310.518 168.779C317.629 161.668 319.999 151.594 319.999 143.89C319.999 141.52 319.999 139.15 319.407 137.372H282.666ZM551.703 145.668C549.332 139.742 543.407 129.668 530.37 129.668C517.332 129.668 506.666 139.742 506.666 155.15C506.666 169.372 517.332 180.631 531.555 180.631C542.814 180.631 549.925 173.52 552.295 169.372L543.999 163.446C541.036 167.594 537.481 170.557 531.555 170.557C525.629 170.557 522.073 168.187 519.11 162.853L552.888 148.631L551.703 145.668ZM517.332 153.965C517.332 144.483 525.036 139.15 530.37 139.15C534.518 139.15 538.666 141.52 539.851 144.483L517.332 153.965ZM489.481 178.261H500.74V104.187H489.481V178.261ZM471.703 135.002C468.74 132.039 463.999 129.076 458.073 129.076C445.629 129.076 433.777 140.335 433.777 154.557C433.777 168.779 445.036 179.446 458.073 179.446C463.999 179.446 468.74 176.483 471.11 173.52H471.703V177.076C471.703 186.557 466.37 191.89 458.073 191.89C451.555 191.89 446.814 187.15 445.629 183.002L436.147 187.15C439.11 193.668 446.221 201.965 458.666 201.965C471.703 201.965 482.37 194.261 482.37 175.89V130.853H471.703V135.002ZM458.666 169.965C450.962 169.965 444.444 163.446 444.444 154.557C444.444 145.668 450.962 139.15 458.666 139.15C466.37 139.15 472.295 145.668 472.295 154.557C472.295 163.446 466.37 169.965 458.666 169.965ZM603.258 104.187H576.592V178.261H587.851V150.409H603.258C615.703 150.409 627.555 141.52 627.555 127.298C627.555 113.076 615.703 104.187 603.258 104.187ZM603.851 139.742H587.851V114.261H603.851C612.147 114.261 616.888 121.372 616.888 126.705C616.295 133.224 611.555 139.742 603.851 139.742ZM671.999 129.076C663.703 129.076 655.407 132.631 652.444 140.335L662.518 144.483C664.888 140.335 668.444 139.15 672.592 139.15C678.518 139.15 683.851 142.705 684.444 148.631V149.224C682.666 148.039 677.925 146.261 673.184 146.261C662.518 146.261 651.851 152.187 651.851 162.853C651.851 172.928 660.74 179.446 670.221 179.446C677.925 179.446 681.481 175.89 684.444 172.335H685.036V178.261H695.703V149.816C694.518 136.779 684.444 129.076 671.999 129.076ZM670.814 169.965C667.258 169.965 661.925 168.187 661.925 163.446C661.925 157.52 668.444 155.742 673.777 155.742C678.518 155.742 680.888 156.928 683.851 158.113C682.666 165.224 676.74 169.965 670.814 169.965ZM733.036 130.853L720.592 162.853H719.999L706.962 130.853H695.11L714.666 175.89L703.407 200.779H714.666L744.888 130.853H733.036ZM633.481 178.261H644.74V104.187H633.481V178.261Z" fill="white"/>
<path d="M61.6301 44.9258C59.8524 46.7036 59.2598 49.6665 59.2598 53.2221V184.185C59.2598 187.741 60.445 190.704 62.2227 192.481L62.8153 193.074L136.297 119.592V118.407L61.6301 44.9258Z" fill="url(#paint0_linear_644_48)"/>
<path d="M160.001 144.484L135.705 120.187V118.41L160.001 94.1133L160.594 94.7059L189.631 111.298C197.927 116.039 197.927 123.743 189.631 128.484L160.001 144.484Z" fill="url(#paint1_linear_644_48)"/>
<path d="M160.594 143.889L135.705 119L61.6309 193.074C64.5938 196.037 68.742 196.037 74.0753 193.667L160.594 143.889Z" fill="url(#paint2_linear_644_48)"/>
<path d="M160.594 94.1137L74.0753 44.9285C68.742 41.9655 64.5938 42.5581 61.6309 45.5211L135.705 119.003L160.594 94.1137Z" fill="url(#paint3_linear_644_48)"/>
<path opacity="0.2" d="M160.001 143.297L74.0753 191.889C69.3346 194.852 65.1864 194.26 62.2235 191.889L61.6309 192.482L62.2235 193.075C65.1864 195.445 69.3346 196.038 74.0753 193.075L160.001 143.297Z" fill="black"/>
<path opacity="0.12" d="M61.6301 191.889C59.8524 190.111 59.2598 187.148 59.2598 183.593V184.185C59.2598 187.741 60.445 190.704 62.2227 192.481V191.889H61.6301ZM189.63 126.704L160.001 143.296L160.593 143.889L189.63 127.296C193.778 124.926 195.556 121.963 195.556 119C195.556 121.963 193.186 124.333 189.63 126.704Z" fill="black"/>
<path opacity="0.25" d="M74.0746 45.5193L189.63 111.297C193.186 113.667 195.556 116.038 195.556 119.001C195.556 116.038 193.778 113.075 189.63 110.704L74.0746 44.9267C65.7783 40.1859 59.2598 43.7415 59.2598 53.223V53.8155C59.2598 44.9267 65.7783 40.7785 74.0746 45.5193Z" fill="white"/>
<defs>
<linearGradient id="paint0_linear_644_48" x1="129.186" y1="52.0962" x2="29.7309" y2="151.545" gradientUnits="userSpaceOnUse">
<stop stop-color="#00A0FF"/>
<stop offset="0.007" stop-color="#00A1FF"/>
<stop offset="0.26" stop-color="#00BEFF"/>
<stop offset="0.512" stop-color="#00D2FF"/>
<stop offset="0.76" stop-color="#00DFFF"/>
<stop offset="1" stop-color="#00E3FF"/>
</linearGradient>
<linearGradient id="paint1_linear_644_48" x1="200.499" y1="119.008" x2="57.1095" y2="119.008" gradientUnits="userSpaceOnUse">
<stop stop-color="#FFE000"/>
<stop offset="0.409" stop-color="#FFBD00"/>
<stop offset="0.775" stop-color="#FFA500"/>
<stop offset="1" stop-color="#FF9C00"/>
</linearGradient>
<linearGradient id="paint2_linear_644_48" x1="147.124" y1="132.606" x2="12.262" y2="267.468" gradientUnits="userSpaceOnUse">
<stop stop-color="#FF3A44"/>
<stop offset="1" stop-color="#C31162"/>
</linearGradient>
<linearGradient id="paint3_linear_644_48" x1="43.2427" y1="1.52699" x2="103.468" y2="61.7522" gradientUnits="userSpaceOnUse">
<stop stop-color="#32A071"/>
<stop offset="0.069" stop-color="#2DA771"/>
<stop offset="0.476" stop-color="#15CF74"/>
<stop offset="0.801" stop-color="#06E775"/>
<stop offset="1" stop-color="#00F076"/>
</linearGradient>
</defs>
</svg>
