<svg width="243" height="56" viewBox="0 0 243 56" fill="none" xmlns="http://www.w3.org/2000/svg">
<mask id="path-1-inside-1_749_1027" fill="white">
<path d="M0 8C0 3.58172 3.58172 0 8 0H235C239.418 0 243 3.58172 243 8V48C243 52.4183 239.418 56 235 56H8C3.58172 56 0 52.4183 0 48V8Z"/>
</mask>
<path d="M0 8C0 3.58172 3.58172 0 8 0H235C239.418 0 243 3.58172 243 8V48C243 52.4183 239.418 56 235 56H8C3.58172 56 0 52.4183 0 48V8Z" fill="#F6F6F6"/>
<path d="M8 0V0.5H235V0V-0.5H8V0ZM243 8H242.5V48H243H243.5V8H243ZM235 56V55.5H8V56V56.5H235V56ZM0 48H0.5V8H0H-0.5V48H0ZM8 56V55.5C3.85786 55.5 0.5 52.1421 0.5 48H0H-0.5C-0.5 52.6944 3.30557 56.5 8 56.5V56ZM243 48H242.5C242.5 52.1421 239.142 55.5 235 55.5V56V56.5C239.694 56.5 243.5 52.6944 243.5 48H243ZM235 0V0.5C239.142 0.5 242.5 3.85786 242.5 8H243H243.5C243.5 3.30558 239.694 -0.5 235 -0.5V0ZM8 0V-0.5C3.30558 -0.5 -0.5 3.30558 -0.5 8H0H0.5C0.5 3.85786 3.85786 0.5 8 0.5V0Z" fill="#E9E9E9" mask="url(#path-1-inside-1_749_1027)"/>
<path d="M16 24.4444V29.7778M20.2 17.3333V36.8889M24.4 12V44M28.6 20.8889V33.3333M32.8 15.5556V38.6667M37 24.4444V29.7778" stroke="#136DEC" stroke-width="2" stroke-linecap="round" stroke-linejoin="round"/>
<path d="M58 24.4444V29.7778M62.2 17.3333V36.8889M66.4 12V44M70.6 20.8889V33.3333M74.8 15.5556V38.6667M79 24.4444V29.7778" stroke="#136DEC" stroke-width="2" stroke-linecap="round" stroke-linejoin="round"/>
<path d="M79 24.4444V29.7778M83.2 17.3333V36.8889M87.4 12V44M91.6 20.8889V33.3333M95.8 15.5556V38.6667M100 24.4444V29.7778" stroke="#136DEC" stroke-width="2" stroke-linecap="round" stroke-linejoin="round"/>
<path d="M37 24.4444V29.7778M41.2 17.3333V36.8889M45.4 12V44M49.6 20.8889V33.3333M53.8 15.5556V38.6667M58 24.4444V29.7778" stroke="#136DEC" stroke-width="2" stroke-linecap="round" stroke-linejoin="round"/>
<path d="M142 24.4444V29.7778M146.2 17.3333V36.8889M150.4 12V44M154.6 20.8889V33.3333M158.8 15.5556V38.6667M163 24.4444V29.7778" stroke="#136DEC" stroke-width="2" stroke-linecap="round" stroke-linejoin="round"/>
<path d="M163 24.4444V29.7778M167.2 17.3333V36.8889M171.4 12V44M175.6 20.8889V33.3333M179.8 15.5556V38.6667M184 24.4444V29.7778" stroke="#136DEC" stroke-width="2" stroke-linecap="round" stroke-linejoin="round"/>
<path d="M184 24.4444V29.7778M188.2 17.3333V36.8889M192.4 12V44M196.6 20.8889V33.3333M200.8 15.5556V38.6667M205 24.4444V29.7778" stroke="#136DEC" stroke-width="2" stroke-linecap="round" stroke-linejoin="round"/>
<path d="M205 24.4444V29.7778M209.2 17.3333V36.8889M213.4 12V44M217.6 20.8889V33.3333M221.8 15.5556V38.6667M226 24.4444V29.7778" stroke="#136DEC" stroke-width="2" stroke-linecap="round" stroke-linejoin="round"/>
<mask id="path-11-inside-2_749_1027" fill="white">
<path d="M101 28C101 16.9543 109.954 8 121 8V8C132.046 8 141 16.9543 141 28V28C141 39.0457 132.046 48 121 48V48C109.954 48 101 39.0457 101 28V28Z"/>
</mask>
<path d="M101 28C101 16.9543 109.954 8 121 8V8C132.046 8 141 16.9543 141 28V28C141 39.0457 132.046 48 121 48V48C109.954 48 101 39.0457 101 28V28Z" fill="#136DEC"/>
<path d="M121 48V47.5C110.23 47.5 101.5 38.7696 101.5 28H101H100.5C100.5 39.3218 109.678 48.5 121 48.5V48ZM141 28H140.5C140.5 38.7696 131.77 47.5 121 47.5V48V48.5C132.322 48.5 141.5 39.3218 141.5 28H141ZM121 8V8.5C131.77 8.5 140.5 17.2304 140.5 28H141H141.5C141.5 16.6782 132.322 7.5 121 7.5V8ZM121 8V7.5C109.678 7.5 100.5 16.6782 100.5 28H101H101.5C101.5 17.2304 110.23 8.5 121 8.5V8Z" fill="white" mask="url(#path-11-inside-2_749_1027)"/>
<path d="M128 26V28C128 29.8565 127.263 31.637 125.95 32.9497C124.637 34.2625 122.857 35 121 35M121 35C119.143 35 117.363 34.2625 116.05 32.9497C114.737 31.637 114 29.8565 114 28V26M121 35V38M121 18C120.204 18 119.441 18.3161 118.879 18.8787C118.316 19.4413 118 20.2044 118 21V28C118 28.7956 118.316 29.5587 118.879 30.1213C119.441 30.6839 120.204 31 121 31C121.796 31 122.559 30.6839 123.121 30.1213C123.684 29.5587 124 28.7956 124 28V21C124 20.2044 123.684 19.4413 123.121 18.8787C122.559 18.3161 121.796 18 121 18Z" stroke="white" stroke-width="2" stroke-linecap="round" stroke-linejoin="round"/>
</svg>
