<svg width="299" height="64" viewBox="0 0 299 64" fill="none" xmlns="http://www.w3.org/2000/svg">
<g clip-path="url(#clip0_359_3007)">
<path d="M80.0199 41.4799C77.7199 43.5999 74.8899 44.6599 71.5499 44.6599C68.2099 44.6599 65.3799 43.6099 63.0799 41.5099C60.7799 39.4099 59.6299 36.6699 59.6299 33.2899V16.4199H65.5499V33.0199C65.5499 34.8199 66.1299 36.2999 67.2899 37.4599C68.4499 38.6199 69.8699 39.1999 71.5599 39.1999C73.2499 39.1999 74.6599 38.6199 75.8099 37.4599C76.9499 36.2999 77.5299 34.8199 77.5299 33.0199V16.4199H83.4899V33.2799C83.4899 36.6299 82.3399 39.3599 80.0399 41.4699L80.0199 41.4799Z" fill="black"/>
<path d="M89.0498 44.2299V16.4199H95.6098L102.87 27.3499C103.46 28.2299 104.14 29.2699 104.93 30.4499C105.72 31.6299 106.36 32.5999 106.85 33.3399L107.64 34.5199V16.4199H113.65V44.2199H107.3L100.33 33.8199C99.5798 32.6999 98.7598 31.4799 97.8698 30.1499C96.9798 28.8199 96.2698 27.7599 95.7498 26.9799L95.0698 25.8199V44.2299H89.0598H89.0498Z" fill="black"/>
<path d="M119.64 44.2299V16.4199H125.65V44.2199H119.64V44.2299Z" fill="black"/>
<path d="M131.66 44.2299V16.4199H138.22L145.48 27.3499C146.07 28.2299 146.75 29.2699 147.54 30.4499C148.33 31.6299 148.97 32.5999 149.46 33.3399L150.25 34.5199V16.4199H156.26V44.2199H149.91L142.94 33.8199C142.19 32.6999 141.37 31.4799 140.48 30.1499C139.59 28.8199 138.88 27.7599 138.36 26.9799L137.68 25.8199V44.2299H131.67H131.66Z" fill="black"/>
<path d="M159.46 44.2297L171.5 16.4297H177.53L189.25 44.2297H183.49L181.65 39.8097H167.55L165.65 44.2297H159.47H159.46ZM169.57 35.0897H179.67L177.5 29.8997L174.53 22.7697C173.55 25.6297 172.63 28.0397 171.77 29.9797L169.57 35.0897Z" fill="black"/>
<path d="M191.55 40.8798L193.7 36.2498C196.56 38.3098 199.62 39.3398 202.88 39.3398C204.34 39.3398 205.6 39.0198 206.66 38.3698C207.72 37.7298 208.25 36.9298 208.25 35.9898C208.25 35.0498 207.8 34.3698 206.9 33.8898C206 33.3998 204.73 32.9898 203.1 32.6498C201.9 32.3598 200.86 32.0998 199.99 31.8598C199.12 31.6198 198.18 31.2598 197.18 30.7898C196.18 30.3198 195.36 29.7998 194.73 29.2198C194.1 28.6498 193.57 27.9198 193.14 27.0298C192.71 26.1398 192.5 25.1398 192.5 24.0298C192.5 21.4798 193.52 19.5098 195.55 18.1098C197.58 16.7098 200.03 16.0098 202.89 16.0098C206.69 16.0098 210.08 16.9998 213.06 18.9698L210.87 23.5998C208.41 22.0798 205.75 21.3298 202.89 21.3298C201.86 21.3298 200.88 21.5298 199.95 21.9298C199.02 22.3298 198.56 23.0198 198.56 23.9898C198.56 24.8198 198.97 25.4598 199.8 25.8998C200.63 26.3398 201.93 26.7498 203.7 27.1198C210.76 28.6898 214.3 31.6498 214.3 35.9998C214.3 38.7998 213.16 40.9498 210.89 42.4398C208.62 43.9298 205.93 44.6698 202.85 44.6698C198.36 44.6698 194.6 43.4098 191.57 40.8898L191.55 40.8798Z" fill="black"/>
<path d="M217.72 40.8798L219.87 36.2498C222.73 38.3098 225.79 39.3398 229.05 39.3398C230.51 39.3398 231.77 39.0198 232.83 38.3698C233.89 37.7298 234.42 36.9298 234.42 35.9898C234.42 35.0498 233.97 34.3698 233.07 33.8898C232.17 33.3998 230.9 32.9898 229.27 32.6498C228.07 32.3598 227.03 32.0998 226.16 31.8598C225.29 31.6198 224.35 31.2598 223.35 30.7898C222.35 30.3198 221.53 29.7998 220.9 29.2198C220.27 28.6498 219.74 27.9198 219.31 27.0298C218.88 26.1398 218.67 25.1398 218.67 24.0298C218.67 21.4798 219.69 19.5098 221.72 18.1098C223.75 16.7098 226.2 16.0098 229.06 16.0098C232.86 16.0098 236.25 16.9998 239.23 18.9698L237.04 23.5998C234.58 22.0798 231.92 21.3298 229.06 21.3298C228.03 21.3298 227.05 21.5298 226.12 21.9298C225.19 22.3298 224.73 23.0198 224.73 23.9898C224.73 24.8198 225.14 25.4598 225.97 25.8998C226.8 26.3398 228.1 26.7498 229.87 27.1198C236.93 28.6898 240.47 31.6498 240.47 35.9998C240.47 38.7998 239.33 40.9498 237.06 42.4398C234.79 43.9298 232.1 44.6698 229.02 44.6698C224.53 44.6698 220.77 43.4098 217.74 40.8898L217.72 40.8798Z" fill="black"/>
<path d="M242.39 44.2297L254.43 16.4297H260.46L272.18 44.2297H266.42L264.58 39.8097H250.48L248.58 44.2297H242.4H242.39ZM252.5 35.0897H262.6L260.43 29.8997L257.46 22.7697C256.48 25.6297 255.56 28.0397 254.7 29.9797L252.5 35.0897Z" fill="black"/>
<path d="M294.89 41.4799C292.59 43.5999 289.76 44.6599 286.42 44.6599C283.08 44.6599 280.25 43.6099 277.95 41.5099C275.65 39.4099 274.5 36.6699 274.5 33.2899V16.4199H280.42V33.0199C280.42 34.8199 281 36.2999 282.16 37.4599C283.32 38.6199 284.74 39.1999 286.43 39.1999C288.12 39.1999 289.53 38.6199 290.68 37.4599C291.82 36.2999 292.4 34.8199 292.4 33.0199V16.4199H298.36V33.2799C298.36 36.6299 297.21 39.3599 294.91 41.4699L294.89 41.4799Z" fill="black"/>
<path d="M1.99023 12.3398V45.8998C1.99023 47.1398 2.25023 48.3698 2.75023 49.4998C4.15023 52.6698 8.63023 54.7598 12.0302 55.4098C18.8802 56.7298 22.0502 57.7498 23.3602 59.6598C24.6802 57.7398 27.8402 56.7198 34.6902 55.4098C38.0902 54.7598 42.5702 52.6698 43.9702 49.4998C44.4702 48.3598 44.7302 47.1398 44.7302 45.8998V12.3398H1.99023Z" fill="#213366"/>
<path d="M45.4 1.32V45.9C45.4 47.24 45.13 48.55 44.58 49.77C43.89 51.34 42.45 52.79 40.42 53.97C38.76 54.93 36.72 55.69 34.82 56.06C27.78 57.41 25.02 58.42 23.91 60.04L23.36 60.84L22.81 60.04C21.7 58.42 18.94 57.42 11.9 56.06C10 55.69 7.96 54.93 6.3 53.97C4.27 52.79 2.83 51.34 2.14 49.77C1.6 48.54 1.32 47.24 1.32 45.9V1.32H13.23V3.38H17.41V1.32H29.31V3.38H33.49V1.32H45.39M46.71 0H32.16V2.06H30.63V0H16.08V2.06H14.55V0H0V45.9C0 47.43 0.31 48.91 0.93 50.31C1.74 52.14 3.37 53.8 5.64 55.12C7.42 56.15 9.61 56.97 11.65 57.37C18.13 58.62 20.86 59.54 21.72 60.8L22.27 61.6L23.36 63.19L24.45 61.6L25 60.8C25.86 59.55 28.59 58.62 35.07 57.37C37.11 56.98 39.3 56.16 41.08 55.12C43.35 53.8 44.98 52.13 45.79 50.31C46.41 48.91 46.72 47.43 46.72 45.9V0H46.71Z" fill="white"/>
<path d="M34.1602 1.99023V4.05023H28.6502V1.99023H18.0802V4.05023H12.5602V1.99023H1.99023V4.05023V11.8702H44.7302V4.05023V1.99023H34.1602Z" fill="#C2012E"/>
<path d="M5.53043 10.0006L3.94043 6.14062H4.64043L5.56043 8.34063L5.86043 9.20062C5.99043 8.81062 6.09043 8.53063 6.16043 8.34063L7.08043 6.14062H7.79043L6.20043 10.0006H5.53043Z" fill="white"/>
<path d="M10.7803 9.99062V6.14062H13.7703V6.73063H11.4703V7.67063H13.6403V8.26063H11.4703V9.39063H13.8503V9.98062H10.7803V9.99062Z" fill="white"/>
<path d="M16.96 9.99062V6.14062H18.58C19.13 6.14062 19.55 6.28063 19.84 6.55063C20.13 6.83063 20.28 7.18063 20.28 7.61063C20.28 7.87063 20.21 8.12063 20.07 8.35063C19.93 8.58063 19.74 8.75063 19.49 8.87063L20.33 9.99062H19.49L18.82 9.06063C18.7 9.06063 18.5 9.07062 18.21 9.07062H17.65V9.99062H16.96ZM17.65 8.48062H18.62C18.91 8.48062 19.13 8.40062 19.3 8.23062C19.47 8.06062 19.56 7.86063 19.56 7.61063C19.56 7.36063 19.47 7.15062 19.3 6.99062C19.13 6.82062 18.9 6.74062 18.62 6.74062H17.65V8.49062V8.48062Z" fill="white"/>
<path d="M23.4805 9.99062V6.14062H24.1705V9.99062H23.4805Z" fill="white"/>
<path d="M28.5707 9.99062V6.73063H27.2207V6.14062H30.6207V6.73063H29.2707V9.99062H28.5807H28.5707Z" fill="white"/>
<path d="M32.7805 9.99062L34.5105 6.14062H35.1605L36.8905 9.99062H36.1905L35.8905 9.32062H33.7705L33.4705 9.99062H32.7705H32.7805ZM34.0305 8.78062H35.6605L35.2205 7.80063C35.1705 7.69063 35.1105 7.55063 35.0405 7.40063C34.9705 7.25063 34.9205 7.12063 34.8805 7.03063L34.8305 6.88063C34.7005 7.24063 34.5805 7.54063 34.4605 7.80063L34.0205 8.77063L34.0305 8.78062Z" fill="white"/>
<path d="M39.6904 9.50031L39.9604 8.98031C40.3304 9.28031 40.7604 9.43031 41.2404 9.43031C41.4604 9.43031 41.6604 9.38031 41.8204 9.28031C41.9904 9.18031 42.0704 9.05031 42.0704 8.88031C42.0704 8.77031 42.0304 8.68031 41.9404 8.60031C41.8504 8.52031 41.7604 8.47031 41.6704 8.44031C41.5804 8.41031 41.4504 8.38031 41.2804 8.33031C41.1104 8.28031 40.9704 8.24031 40.8604 8.21031C40.7504 8.18031 40.6204 8.13031 40.4804 8.06031C40.3404 7.99031 40.2304 7.92031 40.1504 7.85031C40.0704 7.78031 40.0004 7.68031 39.9404 7.56031C39.8804 7.44031 39.8504 7.31031 39.8504 7.16031C39.8504 6.82031 39.9904 6.55031 40.2604 6.36031C40.5304 6.17031 40.8604 6.07031 41.2504 6.07031C41.7504 6.07031 42.2104 6.21031 42.6204 6.49031L42.3504 7.02031C42.0104 6.81031 41.6504 6.70031 41.2504 6.70031C41.1504 6.70031 41.0504 6.71031 40.9504 6.74031C40.8504 6.77031 40.7604 6.82031 40.6804 6.89031C40.6004 6.96031 40.5604 7.05031 40.5604 7.16031C40.5604 7.30031 40.6204 7.40031 40.7504 7.48031C40.8804 7.55031 41.0804 7.62031 41.3604 7.69031C41.5604 7.76031 41.7404 7.81031 41.8904 7.86031C42.0404 7.91031 42.1904 7.98031 42.3404 8.07031C42.4904 8.16031 42.6004 8.27031 42.6804 8.41031C42.7604 8.55031 42.8004 8.71031 42.8004 8.88031C42.8004 9.26031 42.6504 9.55031 42.3404 9.75031C42.0304 9.95031 41.6704 10.0503 41.2504 10.0503C40.6204 10.0503 40.1104 9.87031 39.7104 9.50031H39.6904Z" fill="white"/>
<path d="M14.0897 50.8802C14.0297 51.2502 13.9697 51.5602 14.1797 51.8702C14.3397 51.7302 14.4997 51.5902 14.6597 51.4502C15.0997 51.4502 15.1597 51.0202 15.4097 50.7602C15.2897 51.2002 15.2097 51.5202 15.5297 51.8802C15.7397 51.7102 15.9397 51.5402 16.1497 51.3602C16.2297 51.3602 16.3397 51.3602 16.4097 51.3302C16.6197 51.2402 16.7397 51.0902 16.8097 50.8702C17.2697 50.7202 17.6797 50.7402 18.0897 51.0302C18.2297 51.1302 18.2897 51.3002 18.3397 51.4602C18.8397 50.8102 18.4997 50.0702 17.7697 49.8802C17.0297 49.0802 18.5097 47.2102 19.0297 46.5502C19.0297 47.0602 18.8697 47.4002 18.6197 47.8202C19.2797 47.5502 19.7197 47.1202 20.1497 46.5402C21.2797 47.6302 22.3797 48.7002 23.6797 49.5602C24.5297 49.4902 25.2497 49.6602 25.8697 50.0002C24.6797 49.9702 23.3497 49.7102 22.8397 51.0802C22.6797 50.5302 22.8197 50.1302 23.1397 49.7002C22.5397 49.2902 21.3797 49.1502 20.8697 49.4702C19.9697 50.0202 19.7497 51.1102 20.2497 51.8402C20.4197 52.0902 20.6097 51.8702 20.7897 51.9102C20.6697 51.3202 20.7497 50.7602 21.1997 50.4002C21.4197 50.2302 21.7897 50.2302 21.7897 50.2302C21.6397 50.3502 21.5097 50.4402 21.4197 50.6202C21.2197 51.0502 21.1697 51.6102 21.5797 51.9302C21.6497 51.9902 21.7797 51.9802 21.8697 51.9802C24.9597 51.9302 28.0397 51.9502 31.1297 51.8902C31.2797 51.8902 31.5097 51.9402 31.5597 51.7402C31.6397 51.4502 32.0497 51.1002 32.0497 51.0902C33.0497 50.7502 33.8797 50.4702 34.4197 49.4502C35.5697 45.3202 30.2497 43.5102 33.6797 42.8002C33.6197 42.9402 33.4797 43.0202 33.4397 43.1602C34.2697 43.1802 34.9297 42.6802 34.6997 41.7602C34.6097 41.3802 34.3697 41.0202 34.3797 40.6102C35.0397 39.0602 36.0397 39.6502 34.7797 37.6202C34.5897 37.2702 34.1997 38.6802 33.7997 38.9302C33.8397 38.6702 33.9597 38.4802 34.0897 38.2602C33.3897 38.6302 32.6397 38.7902 32.6197 39.9102C32.5997 41.0802 34.0997 42.0602 31.9597 42.0002C29.4797 44.4102 34.6597 45.2302 33.4397 48.9002C33.2097 49.1902 32.8897 49.2802 32.5297 49.2202C32.2697 48.9702 32.4297 48.5902 32.3797 48.2602C31.9497 45.6502 30.8197 43.6102 28.4697 42.4802C29.7297 42.1002 30.7297 41.4502 31.5697 40.3902C30.5897 40.4902 29.6397 40.4802 28.6597 40.3002C30.6597 40.1902 32.4197 39.7002 33.4297 37.7502C32.1597 37.8502 30.9997 37.6602 29.7797 37.3102C33.5397 37.6802 38.3797 36.1602 39.5397 33.3302C36.8597 34.4902 33.7797 35.7802 30.8497 35.3602C34.1697 34.9002 39.2297 33.4502 40.7497 29.5002C39.1897 30.8502 36.2997 32.5302 32.2997 32.7302C32.2897 32.7302 40.8397 30.8302 41.7097 25.8502C37.4897 29.5502 33.2197 30.7602 33.2197 30.7602C33.2197 30.7602 42.5097 26.2602 42.5097 21.3302C41.4497 22.6702 39.8997 24.3402 37.7297 25.8902C36.2697 26.9302 34.8697 27.6802 33.6697 28.2102C34.6297 27.7502 36.3797 26.7502 37.8297 24.8002C39.9297 21.9702 40.0297 18.9702 40.0197 17.9302C39.0497 20.2102 37.3897 23.0102 34.4797 25.1402C34.1297 25.4002 33.7797 25.6302 33.4297 25.8402C34.0597 25.3502 35.4397 24.1402 36.1597 22.0702C37.2497 18.9502 36.0097 16.2402 35.7297 15.6702C35.7497 16.7902 35.6397 18.7602 34.6097 20.9002C34.0197 22.1302 33.3097 23.0402 32.7197 23.6802C33.0397 22.9702 33.4097 21.8702 33.4297 20.5002C33.4797 17.6302 31.9397 15.6102 31.4197 14.9902C31.7097 16.4002 31.9097 18.3302 31.5997 20.5502C31.4797 21.4302 31.2897 22.2302 31.0897 22.9302C31.0897 22.1902 30.9897 21.1602 30.5197 20.0402C29.3497 17.2402 26.8097 16.0702 26.1197 15.7802C26.7697 16.9502 27.4297 18.3602 27.9597 20.0202C28.1897 20.7402 28.3697 21.4402 28.5197 22.0902C28.1597 21.4602 27.3197 20.2302 25.7697 19.3102C23.8097 18.1502 21.9097 18.2002 21.1997 18.2502C24.0397 19.6802 25.6097 21.5402 26.3497 22.5702C28.4397 25.4702 30.2397 30.4202 28.2397 34.5202C27.7097 35.6002 27.0497 36.3602 26.6097 36.8102C26.5297 36.6602 26.4497 36.5302 26.3597 36.3902C26.2797 36.2502 26.2097 36.1102 26.1297 35.9702C26.2597 36.0702 26.3797 36.1702 26.5097 36.2702C26.6897 35.1702 26.5297 34.2802 25.9797 33.3202C26.2197 33.4802 26.4497 33.6302 26.6897 33.8002C26.4597 32.4802 25.7697 31.6602 24.8097 30.8202C25.2297 30.8802 25.6297 31.0202 26.0397 31.1102C25.1797 29.7002 23.8497 29.4202 22.3397 29.2802C22.6797 29.0702 23.0197 28.8602 23.3597 28.6502C21.2197 28.4702 17.6697 28.2602 18.1297 31.4302C16.6597 31.8602 15.7697 32.9502 16.9897 34.2802C16.9897 34.2202 16.9297 34.1602 16.9797 34.1002C17.5097 33.3802 18.8597 33.5202 19.6497 33.5302C19.6497 33.5302 19.6497 33.5202 19.6497 33.5502C19.6497 33.6202 19.4297 33.7902 19.5397 33.8902C19.5697 33.9202 19.7597 34.1502 19.7897 34.3002C19.8197 34.4402 19.6597 34.7602 19.6197 34.8102C17.4597 37.3402 15.9197 41.2802 16.2997 44.6302C16.6697 44.0902 16.9597 43.5202 17.2497 42.9402C17.0397 44.1302 16.8597 45.3002 16.4397 46.4402C16.8997 46.3202 17.2197 46.0902 17.5197 45.7002C16.4397 48.7502 12.8697 50.3902 12.9597 51.4602C13.0497 51.3702 13.1497 51.2702 13.2397 51.1802C13.3097 51.2002 13.4897 51.2202 13.6897 51.1502C13.8797 51.0802 13.9897 50.9702 14.0397 50.9102L14.0897 50.8802ZM18.8197 31.6002C18.8197 31.6002 18.7897 31.5702 18.7697 31.5602C19.0297 30.8302 19.4297 30.7702 20.1197 30.7802C19.6797 31.0502 19.2497 31.3302 18.8097 31.6002H18.8197Z" fill="#F3D332"/>
<path d="M18.8293 31.61C18.8293 31.61 18.7993 31.58 18.7793 31.57C19.0393 30.84 19.4393 30.78 20.1293 30.79C19.6893 31.06 19.2593 31.34 18.8193 31.61H18.8293Z" fill="#213366"/>
<path d="M23.0897 24.0606L17.7897 24.7206L19.9597 26.1206L17.3797 25.9706L19.0097 27.9706L16.6097 27.0306L17.5397 29.4406L15.5397 27.8106L15.6897 30.3806L14.2997 28.2106L13.6397 32.2706L12.9797 28.2106L11.5797 30.3806L11.7297 27.8106L9.72969 29.4406L10.6697 27.0306L8.25969 27.9706L9.88969 25.9706L7.31969 26.1206L9.48969 24.7206L4.17969 24.0606L9.48969 23.4106L7.31969 22.0106L9.88969 22.1606L8.25969 20.1606L10.6697 21.0906L9.72969 18.6906L11.7297 20.3206L11.5797 17.7406L12.9797 19.9106L13.6397 15.8506L14.2997 19.9106L15.6897 17.7406L15.5397 20.3206L17.5397 18.6906L16.6097 21.0906L19.0097 20.1606L17.3797 22.1606L19.9597 22.0106L17.7897 23.4106L23.0897 24.0606Z" fill="white"/>
<path d="M13.6401 26.121C14.7778 26.121 15.7001 25.1987 15.7001 24.061C15.7001 22.9233 14.7778 22.001 13.6401 22.001C12.5024 22.001 11.5801 22.9233 11.5801 24.061C11.5801 25.1987 12.5024 26.121 13.6401 26.121Z" fill="#213366"/>
</g>
<defs>
<clipPath id="clip0_359_3007">
<rect width="298.34" height="63.18" fill="white"/>
</clipPath>
</defs>
</svg>
