<svg width="280" height="280" viewBox="0 0 280 280" fill="none" xmlns="http://www.w3.org/2000/svg">
<mask id="mask0_761_1315" style="mask-type:alpha" maskUnits="userSpaceOnUse" x="0" y="0" width="280" height="280">
<circle cx="140" cy="140" r="140" fill="#D9D9D9"/>
</mask>
<g mask="url(#mask0_761_1315)">
<path d="M420.974 -2.62891H-121V282.62H420.974V-2.62891Z" fill="white"/>
<path d="M420.995 -2.62891H-39.25V19.311H420.995V-2.62891Z" fill="#BB133E"/>
<path d="M420.974 41.2539H-121V63.1962H420.974V41.2539Z" fill="black"/>
<path d="M421.001 41.2539H-26.0156V63.1938H421.001V41.2539Z" fill="#BB133E"/>
<path d="M420.994 85.1445H-33.1875V107.084H420.994V85.1445Z" fill="#BB133E"/>
<path d="M420.996 129.027H-75.627V150.967H420.996V129.027Z" fill="#BB133E"/>
<path d="M420.974 172.91H-121V194.85H420.974V172.91Z" fill="#BB133E"/>
<path d="M420.976 216.789H-120.998V238.729H420.976V216.789Z" fill="#BB133E"/>
<path d="M420.974 260.684H-121V282.623H420.974V260.684Z" fill="#BB133E"/>
<path d="M95.7896 -2.62891H-121V150.967H95.7896V-2.62891Z" fill="#002664"/>
<path d="M3.05691 10.8802L7.67581 14.236L0.202265 19.6658L3.05691 10.8802Z" fill="white"/>
<path d="M6.24885 9.83976L4.48459 15.2696L-2.98896 9.83976L6.24885 9.83976Z" fill="white"/>
<path d="M8.221 12.5552H2.51172L5.36636 3.76953L8.221 12.5552Z" fill="white"/>
<path d="M6.24647 15.2737L4.48221 9.84383L13.72 9.84383L6.24647 15.2737Z" fill="white"/>
<path d="M3.05489 14.2285L7.6738 10.8727L10.5284 19.6584L3.05489 14.2285Z" fill="white"/>
<path d="M38.9983 10.8802L43.6172 14.236L36.1437 19.6658L38.9983 10.8802Z" fill="white"/>
<path d="M42.1903 9.83976L40.426 15.2696L32.9524 9.83976L42.1903 9.83976Z" fill="white"/>
<path d="M44.1624 12.5552H38.4531L41.3078 3.76953L44.1624 12.5552Z" fill="white"/>
<path d="M42.1898 15.2737L40.4256 9.84383L49.6634 9.84383L42.1898 15.2737Z" fill="white"/>
<path d="M38.9982 14.2285L43.6172 10.8727L46.4718 19.6584L38.9982 14.2285Z" fill="white"/>
<path d="M74.9378 10.8802L79.5567 14.236L72.0831 19.6658L74.9378 10.8802Z" fill="white"/>
<path d="M78.1317 9.83976L76.3674 15.2696L68.8939 9.83976L78.1317 9.83976Z" fill="white"/>
<path d="M80.1019 12.5552H74.3926L77.2472 3.76953L80.1019 12.5552Z" fill="white"/>
<path d="M78.1293 15.2737L76.365 9.84383L85.6028 9.84383L78.1293 15.2737Z" fill="white"/>
<path d="M74.9377 14.2285L79.5566 10.8727L82.4112 19.6584L74.9377 14.2285Z" fill="white"/>
<path d="M21.0276 26.2825L25.6465 29.6383L18.173 35.0682L21.0276 26.2825Z" fill="white"/>
<path d="M24.2196 25.2421L22.4553 30.672L14.9817 25.2421L24.2196 25.2421Z" fill="white"/>
<path d="M26.1917 27.9576H20.4824L23.3371 19.1719L26.1917 27.9576Z" fill="white"/>
<path d="M24.2191 30.6721L22.4549 25.2423L31.6927 25.2423L24.2191 30.6721Z" fill="white"/>
<path d="M21.0275 29.6348L25.6465 26.279L28.5011 35.0646L21.0275 29.6348Z" fill="white"/>
<path d="M56.969 26.2825L61.5879 29.6383L54.1144 35.0682L56.969 26.2825Z" fill="white"/>
<path d="M60.161 25.2421L58.3967 30.672L50.9231 25.2421L60.161 25.2421Z" fill="white"/>
<path d="M62.1331 27.9576H56.4238L59.2785 19.1719L62.1331 27.9576Z" fill="white"/>
<path d="M60.1605 30.6721L58.3963 25.2423L67.6341 25.2423L60.1605 30.6721Z" fill="white"/>
<path d="M56.969 29.6348L61.5879 26.279L64.4425 35.0646L56.969 29.6348Z" fill="white"/>
<path d="M3.05691 41.6809L7.67581 45.0368L0.202265 50.4666L3.05691 41.6809Z" fill="white"/>
<path d="M6.24885 40.6445L4.48459 46.0743L-2.98896 40.6445L6.24885 40.6445Z" fill="white"/>
<path d="M8.221 43.3599H2.51172L5.36636 34.5742L8.221 43.3599Z" fill="white"/>
<path d="M6.24647 46.0784L4.48221 40.6485L13.72 40.6485L6.24647 46.0784Z" fill="white"/>
<path d="M3.05489 45.0371L7.6738 41.6813L10.5284 50.467L3.05489 45.0371Z" fill="white"/>
<path d="M38.9983 41.6809L43.6172 45.0368L36.1437 50.4666L38.9983 41.6809Z" fill="white"/>
<path d="M42.1903 40.6445L40.426 46.0743L32.9524 40.6445L42.1903 40.6445Z" fill="white"/>
<path d="M44.1624 43.3599H38.4531L41.3078 34.5742L44.1624 43.3599Z" fill="white"/>
<path d="M42.1898 46.0784L40.4256 40.6485L49.6634 40.6485L42.1898 46.0784Z" fill="white"/>
<path d="M38.9982 45.0371L43.6172 41.6813L46.4718 50.467L38.9982 45.0371Z" fill="white"/>
<path d="M74.9378 41.6809L79.5567 45.0368L72.0831 50.4666L74.9378 41.6809Z" fill="white"/>
<path d="M78.1317 40.6445L76.3674 46.0743L68.8939 40.6445L78.1317 40.6445Z" fill="white"/>
<path d="M80.1019 43.3599H74.3926L77.2472 34.5742L80.1019 43.3599Z" fill="white"/>
<path d="M78.1293 46.0784L76.365 40.6485L85.6028 40.6485L78.1293 46.0784Z" fill="white"/>
<path d="M74.9377 45.0371L79.5566 41.6813L82.4112 50.467L74.9377 45.0371Z" fill="white"/>
<path d="M21.0276 57.0911L25.6465 60.4469L18.173 65.8768L21.0276 57.0911Z" fill="white"/>
<path d="M24.2196 56.0507L22.4553 61.4805L14.9817 56.0507L24.2196 56.0507Z" fill="white"/>
<path d="M26.1917 58.7661H20.4824L23.3371 49.9805L26.1917 58.7661Z" fill="white"/>
<path d="M24.2191 61.4807L22.4549 56.0509L31.6927 56.0509L24.2191 61.4807Z" fill="white"/>
<path d="M21.0275 60.4434L25.6465 57.0875L28.5011 65.8732L21.0275 60.4434Z" fill="white"/>
<path d="M56.969 57.0911L61.5879 60.4469L54.1144 65.8768L56.969 57.0911Z" fill="white"/>
<path d="M60.161 56.0507L58.3967 61.4805L50.9231 56.0507L60.161 56.0507Z" fill="white"/>
<path d="M62.1331 58.7661H56.4238L59.2785 49.9805L62.1331 58.7661Z" fill="white"/>
<path d="M60.1605 61.4807L58.3963 56.0509L67.6341 56.0509L60.1605 61.4807Z" fill="white"/>
<path d="M56.969 60.4434L61.5879 57.0875L64.4425 65.8732L56.969 60.4434Z" fill="white"/>
<path d="M3.05691 72.4895L7.67581 75.8454L0.202265 81.2752L3.05691 72.4895Z" fill="white"/>
<path d="M6.24885 71.453L4.48459 76.8829L-2.98896 71.453L6.24885 71.453Z" fill="white"/>
<path d="M8.221 74.1685H2.51172L5.36636 65.3828L8.221 74.1685Z" fill="white"/>
<path d="M6.24647 76.8831L4.48221 71.4532L13.72 71.4532L6.24647 76.8831Z" fill="white"/>
<path d="M3.05489 75.8457L7.6738 72.4899L10.5284 81.2756L3.05489 75.8457Z" fill="white"/>
<path d="M38.9983 72.4895L43.6172 75.8454L36.1437 81.2752L38.9983 72.4895Z" fill="white"/>
<path d="M42.1903 71.453L40.426 76.8829L32.9524 71.453L42.1903 71.453Z" fill="white"/>
<path d="M44.1624 74.1685H38.4531L41.3078 65.3828L44.1624 74.1685Z" fill="white"/>
<path d="M42.1898 76.8831L40.4256 71.4532L49.6634 71.4532L42.1898 76.8831Z" fill="white"/>
<path d="M38.9982 75.8457L43.6172 72.4899L46.4718 81.2756L38.9982 75.8457Z" fill="white"/>
<path d="M74.9378 72.4895L79.5567 75.8454L72.0831 81.2752L74.9378 72.4895Z" fill="white"/>
<path d="M78.1317 71.453L76.3674 76.8829L68.8939 71.453L78.1317 71.453Z" fill="white"/>
<path d="M80.1019 74.1685H74.3926L77.2472 65.3828L80.1019 74.1685Z" fill="white"/>
<path d="M78.1293 76.8831L76.365 71.4532L85.6028 71.4532L78.1293 76.8831Z" fill="white"/>
<path d="M74.9377 75.8457L79.5566 72.4899L82.4112 81.2756L74.9377 75.8457Z" fill="white"/>
<path d="M21.0276 87.8958L25.6465 91.2516L18.173 96.6815L21.0276 87.8958Z" fill="white"/>
<path d="M24.2196 86.8593L22.4553 92.2891L14.9817 86.8593L24.2196 86.8593Z" fill="white"/>
<path d="M26.1917 89.5708H20.4824L23.3371 80.7852L26.1917 89.5708Z" fill="white"/>
<path d="M24.2191 92.2893L22.4549 86.8595L31.6927 86.8595L24.2191 92.2893Z" fill="white"/>
<path d="M21.0275 91.252L25.6465 87.8961L28.5011 96.6818L21.0275 91.252Z" fill="white"/>
<path d="M56.969 87.8958L61.5879 91.2516L54.1144 96.6815L56.969 87.8958Z" fill="white"/>
<path d="M60.161 86.8593L58.3967 92.2891L50.9231 86.8593L60.161 86.8593Z" fill="white"/>
<path d="M62.1331 89.5708H56.4238L59.2785 80.7852L62.1331 89.5708Z" fill="white"/>
<path d="M60.1605 92.2893L58.3963 86.8595L67.6341 86.8595L60.1605 92.2893Z" fill="white"/>
<path d="M56.969 91.252L61.5879 87.8961L64.4425 96.6818L56.969 91.252Z" fill="white"/>
<path d="M3.05691 103.298L7.67581 106.654L0.202265 112.084L3.05691 103.298Z" fill="white"/>
<path d="M6.24885 102.258L4.48459 107.688L-2.98896 102.258L6.24885 102.258Z" fill="white"/>
<path d="M8.221 104.973H2.51172L5.36636 96.1875L8.221 104.973Z" fill="white"/>
<path d="M6.24647 107.688L4.48221 102.258L13.72 102.258L6.24647 107.688Z" fill="white"/>
<path d="M3.05489 106.65L7.6738 103.295L10.5284 112.08L3.05489 106.65Z" fill="white"/>
<path d="M38.9983 103.298L43.6172 106.654L36.1437 112.084L38.9983 103.298Z" fill="white"/>
<path d="M42.1903 102.258L40.426 107.688L32.9524 102.258L42.1903 102.258Z" fill="white"/>
<path d="M44.1624 104.973H38.4531L41.3078 96.1875L44.1624 104.973Z" fill="white"/>
<path d="M42.1898 107.688L40.4256 102.258L49.6634 102.258L42.1898 107.688Z" fill="white"/>
<path d="M38.9982 106.65L43.6172 103.295L46.4718 112.08L38.9982 106.65Z" fill="white"/>
<path d="M74.9378 103.298L79.5567 106.654L72.0831 112.084L74.9378 103.298Z" fill="white"/>
<path d="M78.1317 102.258L76.3674 107.688L68.8939 102.258L78.1317 102.258Z" fill="white"/>
<path d="M80.1019 104.973H74.3926L77.2472 96.1875L80.1019 104.973Z" fill="white"/>
<path d="M78.1293 107.688L76.365 102.258L85.6028 102.258L78.1293 107.688Z" fill="white"/>
<path d="M74.9377 106.65L79.5566 103.295L82.4112 112.08L74.9377 106.65Z" fill="white"/>
<path d="M21.0276 118.704L25.6465 122.06L18.173 127.49L21.0276 118.704Z" fill="white"/>
<path d="M24.2196 117.668L22.4553 123.098L14.9817 117.668L24.2196 117.668Z" fill="white"/>
<path d="M26.1917 120.383H20.4824L23.3371 111.598L26.1917 120.383Z" fill="white"/>
<path d="M24.2191 123.098L22.4549 117.668L31.6927 117.668L24.2191 123.098Z" fill="white"/>
<path d="M21.0275 122.057L25.6465 118.701L28.5011 127.487L21.0275 122.057Z" fill="white"/>
<path d="M56.969 118.704L61.5879 122.06L54.1144 127.49L56.969 118.704Z" fill="white"/>
<path d="M60.161 117.668L58.3967 123.098L50.9231 117.668L60.161 117.668Z" fill="white"/>
<path d="M62.1331 120.383H56.4238L59.2785 111.598L62.1331 120.383Z" fill="white"/>
<path d="M60.1605 123.098L58.3963 117.668L67.6341 117.668L60.1605 123.098Z" fill="white"/>
<path d="M56.969 122.057L61.5879 118.701L64.4425 127.487L56.969 122.057Z" fill="white"/>
<path d="M3.05691 134.107L7.67581 137.463L0.202265 142.892L3.05691 134.107Z" fill="white"/>
<path d="M6.24885 133.07L4.48459 138.5L-2.98896 133.07L6.24885 133.07Z" fill="white"/>
<path d="M8.221 135.782H2.51172L5.36636 126.996L8.221 135.782Z" fill="white"/>
<path d="M6.24647 138.5L4.48221 133.07L13.72 133.07L6.24647 138.5Z" fill="white"/>
<path d="M3.05489 137.463L7.6738 134.107L10.5284 142.893L3.05489 137.463Z" fill="white"/>
<path d="M38.9983 134.107L43.6172 137.463L36.1437 142.892L38.9983 134.107Z" fill="white"/>
<path d="M42.1903 133.07L40.426 138.5L32.9524 133.07L42.1903 133.07Z" fill="white"/>
<path d="M44.1624 135.782H38.4531L41.3078 126.996L44.1624 135.782Z" fill="white"/>
<path d="M42.1898 138.5L40.4256 133.07L49.6634 133.07L42.1898 138.5Z" fill="white"/>
<path d="M38.9982 137.463L43.6172 134.107L46.4718 142.893L38.9982 137.463Z" fill="white"/>
<path d="M74.9378 134.107L79.5567 137.463L72.0831 142.892L74.9378 134.107Z" fill="white"/>
<path d="M78.1317 133.07L76.3674 138.5L68.8939 133.07L78.1317 133.07Z" fill="white"/>
<path d="M80.1019 135.782H74.3926L77.2472 126.996L80.1019 135.782Z" fill="white"/>
<path d="M78.1293 138.5L76.365 133.07L85.6028 133.07L78.1293 138.5Z" fill="white"/>
<path d="M74.9377 137.463L79.5566 134.107L82.4112 142.893L74.9377 137.463Z" fill="white"/>
</g>
</svg>
